<?xml version="1.0" encoding="UTF-8"?>
<svg id="Capa_1" data-name="Capa 1" xmlns="http://www.w3.org/2000/svg" viewBox="0 0 992.13 992.13">
  <defs>
    <style>
      .cls-1 {
        fill: #fff;
      }
    </style>
  </defs>
  <path class="cls-1" d="m677.91,824.64c7.37-5.43,14.84-10.71,22.09-16.3,39.73-30.64,63.95-71.43,78.72-118.79,7.27-23.32,10.21-46.55,4.93-70.52-7.86-35.69-29.8-61.72-57.82-83.38-8.45-6.53-17.56-12.2-26.37-18.26.46-.84.92-1.67,1.37-2.51,11.27,6.48,23.15,12.09,33.7,19.58,42.69,30.31,69.27,71.02,61.74,124.29-10.15,71.81-45.75,129.16-111.35,164.84-1.94,1.05-4.17,1.58-6.26,2.35-.25-.43-.5-.86-.76-1.3Z"/>
  <path class="cls-1" d="m53.89,459.16c.25,15.21.42,30.43.8,45.64.07,2.83.97,5.64.89,8.55-10.68-28.16-10.07-57.09-4.99-86.06,2.17-12.37,6.26-24.4,9.48-36.58,0,0-.22-.07-.22-.07-2.05,22.98-4.09,45.97-6.14,68.95l.19-.43Z"/>
  <path class="cls-1" d="m708.35,454.59c-12.6,8.49-24.79,16.71-36.8,24.8,4.03-15.57,21.26-27.27,36.8-24.8Z"/>
  <path class="cls-1" d="m473.35,730.09c0-10.08.29-20.16-.1-30.22-.26-6.8,1.29-10.93,9.12-11.08,4.64-.09,9.35-1.16,13.86-2.4,8.35-2.3,11.9.5,11.8,9.22-.23,20.82-.27,41.65-.01,62.47.09,7.07-2.62,9.91-9.64,11.17-25.12,4.51-25.08,4.77-25.06-20.01,0-6.38,0-12.76,0-19.14h.04Z"/>
  <path class="cls-1" d="m569.11,712.18c0,10.39-.03,20.79,0,31.18.02,5.92-2.41,8.86-8.71,9.91-25.44,4.23-25.42,4.43-25.44-21.03-.01-15.76.2-31.52-.05-47.28-.12-7.58,3.41-10.72,10.58-11.76,23.57-3.4,23.55-3.53,23.55,19.86,0,6.37,0,12.74,0,19.11h.06Z"/>
  <path class="cls-1" d="m592.43,691.28c0-10.05.26-20.12-.09-30.16-.24-6.67,2.94-10.07,8.98-11.14,5.59-1,11.26-1.85,16.92-2.16,6.35-.35,9.11,3.74,9.15,9.51.13,20.44.09,40.88,0,61.33-.02,6.17-2.94,9.61-9.38,10.91-23.18,4.7-25.59,2.94-25.59-20.19,0-6.03,0-12.06,0-18.1Z"/>
  <path class="cls-1" d="m316.5,702.26c0,4.03.69,8.21-.19,12.04-.97,4.23-3.38,8.13-5.17,12.17-5.92-2.98-14.4-2.98-14.3-12.81.1-10.06-.46-20.16.19-30.18.23-3.55,3.15-6.92,4.84-10.38,5.55,2.77,13.95,2.01,14.5,11.05.36,6.02.07,12.08.07,18.12h.05Z"/>
  <path class="cls-1" d="m220.18,621.33c14.18,3.1,17.24,6.5,17.29,17.82.03,7.02.35,14.06-.19,21.03-.3,3.89-2.11,7.66-3.24,11.49-4.62-2.9-12.84-5.4-13.22-8.79-1.53-13.59-.63-27.46-.63-41.56Z"/>
  <path class="cls-1" d="m275.64,701.13c-12.42-4.8-19.31-9.46-18.26-21.37.86-9.73.17-19.59.17-30.12,17.39,5.5,18.06,6.39,18.08,21.68.01,9.23,0,18.46,0,29.81Z"/>
  <path class="cls-1" d="m309.77,565.53c0-4.36.29-8.74-.06-13.06-.69-8.54,2.9-12.33,11.54-12.31,8.5.02,12.19,3.57,11.82,12.19-.41,9.7-.19,19.43-.11,29.15.06,7.65-4.4,9.65-11.07,9.55-6.54-.1-12.35-.69-12.12-9.43.14-5.36.03-10.72,0-16.08Z"/>
  <path class="cls-1" d="m108.02,505.56c-11.85-1.49-16.32-21.52-9.4-42.15,12.18,2.02,16.42,21.03,9.4,42.15Z"/>
  <path class="cls-1" d="m143.05,562.17c-10.01-1.4-13.82-4.93-13.49-12.93.41-9.92.1-19.88.1-30.58,9.04,1.27,13.74,4.19,13.46,12.71-.32,9.9-.07,19.81-.07,30.8Z"/>
  <path class="cls-1" d="m114.22,492.04c13.57,1.85,17,16.41,10.81,44.54-4.27-3.82-10.03-6.51-10.36-9.74-1.15-11.45-.45-23.08-.45-34.81Z"/>
  <path class="cls-1" d="m393.33,532.55c3.92-5.97,7.04-14.54,9.97-14.48,9.59.21,6.35,9.18,6.29,14.9-.06,5.68,3.28,14.81-6.54,14.66-2.99-.04-5.84-8.77-9.72-15.08Z"/>
  <path class="cls-1" d="m382.74,185.45c0,18.89-14.83,29.2-37.89,29.2-11.12,0-21.2-2.43-28.85-5.91l7.53-21.78c5.33,3.01,12.98,6.37,22.71,6.37,6.49,0,7.53-1.51,7.53-2.67,0-6.49-31.05-.12-31.05-26.76,0-17.84,14.02-30.59,36.61-30.59,8.69,0,19,1.85,27.11,4.52l-7.53,21.67c-4.52-2.32-12.86-4.63-20.85-4.63-4.05,0-7.07.58-7.07,2.67,0,6.83,31.75.35,31.75,27.92Z"/>
  <path class="cls-1" d="m433.25,157.76l.81-6.02h28.04l-5.56,39.51c-.58,4.52,2.2,5.33,6.49,4.29l-2.43,16.92c-3.82,1.27-10.43,2.2-16.22,2.2-8.57,0-14.02-3.94-15.87-9.62-4.87,5.79-11.01,9.62-19.81,9.62-12.98,0-20.51-12.05-20.51-27.11,0-20.74,13.56-37.31,30.47-37.31,6.72,0,11.24,2.9,14.6,7.53Zm-1.04,22.94c0-4.87-2.67-8.69-6.83-8.69-5.45,0-9.73,5.56-9.73,11.93,0,4.87,2.55,8.69,6.84,8.69,5.33,0,9.73-5.56,9.73-11.93Z"/>
  <path class="cls-1" d="m508.1,195.53l-2.43,16.92c-3.82,1.27-8.92,2.2-14.71,2.2-11.47,0-22.48-5.21-19.58-25.72l8.69-61.41h27.92l-8.57,61.41c-.93,6.37,2.43,6.83,5.91,6.83.81,0,1.97-.12,2.78-.23Z"/>
  <path class="cls-1" d="m520.26,151.73h28.04l-4.98,35.1c-.46,3.13.93,5.68,3.71,5.68,6.95,0,13.79-15.29,6.95-40.78h27.58c11.12,54.34-23.75,62.91-41.36,62.91-18.89,0-27.23-9.85-25.03-26.18l5.1-36.73Z"/>
  <path class="cls-1" d="m614.22,191.12c1.74,3.24,6.14,4.29,11.24,4.29,6.14,0,11.93-.93,16.57-2.43l.93,17.73c-6.49,2.09-15.06,3.94-23.52,3.94-19,0-31.63-8.34-31.63-27.69,0-20.51,16.1-36.73,37.66-36.73,14.71,0,24.91,7.88,24.91,20.74,0,19.12-20.74,21.78-36.15,20.16Zm14.25-20.39c0-2.2-1.74-3.36-3.94-3.36-5.56,0-8.46,4.4-9.62,8.81,3.94.46,13.56.58,13.56-5.45Z"/>
  <path class="cls-1" d="m764.03,171.43l-2.9,20.04c-.58,4.4,2.32,5.1,6.49,4.06l-2.43,16.92c-3.82,1.27-10.43,2.2-16.22,2.2-12.98,0-18.07-7.88-16.68-17.26l2.78-19.35c.46-3.13-1.27-5.68-4.17-5.68s-5.1,2.55-5.56,5.68l-4.98,35.11h-28.15l4.98-35.11c.46-3.13-1.27-5.68-4.17-5.68s-5.1,2.55-5.56,5.68l-4.98,35.11h-28.15l8.57-61.41h26.88l-.81,6.26c4.52-4.52,11.93-7.76,19.23-7.76s13.21,3.48,15.99,8.92c3.71-3.71,11.93-8.92,21.55-8.92,13.56,0,20.04,9.04,18.31,21.2Z"/>
  <path class="cls-1" d="m842.35,178.38c0,22.71-19.35,36.26-39.97,36.26-17.49,0-31.17-10.2-31.17-28.04,0-22.94,19.35-36.38,40.2-36.38,17.26,0,30.93,10.31,30.93,28.15Zm-27.23,2.32c0-4.98-2.43-9.04-6.84-9.04-5.56,0-9.85,6.02-9.85,12.51,0,4.98,2.43,9.04,6.83,9.04,5.56,0,9.85-6.02,9.85-12.51Z"/>
  <path class="cls-1" d="m900.62,190.78c0,15.29-12.63,23.87-31.05,23.87-10.54,0-19.12-2.78-26.07-7.07l4.98-17.61c4.63,3.71,12.28,6.26,18.31,6.26,3.71,0,5.68-.93,5.68-2.2,0-4.29-22.36.23-22.36-19.93,0-15.41,13.09-23.87,31.51-23.87,8.92,0,15.99,1.97,22.36,4.98l-4.87,16.8c-3.82-1.85-9.96-3.71-15.87-3.71-1.51,0-5.45.12-5.45,1.97,0,4.63,22.83,0,22.83,20.51Z"/>
  <path class="cls-1" d="m336.29,287.97h18.1l-2.01,14.15h-36.57l7.08-50.35h18.47l-5.06,36.2Z"/>
  <path class="cls-1" d="m386.34,266.52l.52-3.87h18.02l-3.58,25.4c-.37,2.9,1.42,3.43,4.17,2.76l-1.56,10.87c-2.46.82-6.7,1.42-10.43,1.42-5.51,0-9.01-2.53-10.2-6.18-3.13,3.73-7.08,6.18-12.74,6.18-8.34,0-13.18-7.75-13.18-17.43,0-13.33,8.71-23.98,19.59-23.98,4.32,0,7.22,1.86,9.38,4.84Zm-.67,14.75c0-3.13-1.71-5.59-4.4-5.59-3.5,0-6.26,3.58-6.26,7.67,0,3.13,1.64,5.59,4.39,5.59,3.43,0,6.26-3.57,6.26-7.67Z"/>
  <path class="cls-1" d="m443.99,287.74c0,9.83-8.12,15.34-19.96,15.34-6.78,0-12.29-1.79-16.76-4.54l3.2-11.32c2.98,2.38,7.89,4.02,11.77,4.02,2.38,0,3.65-.6,3.65-1.41,0-2.76-14.38.15-14.38-12.81,0-9.91,8.42-15.34,20.26-15.34,5.74,0,10.28,1.27,14.38,3.2l-3.13,10.8c-2.46-1.19-6.41-2.38-10.2-2.38-.97,0-3.5.07-3.5,1.27,0,2.98,14.67,0,14.67,13.18Z"/>
  <path class="cls-1" d="m493.6,302.12h-18.47l5.06-35.98h-13.63l2.01-14.38h45.66l-2.01,14.38h-13.56l-5.06,35.98Z"/>
  <path class="cls-1" d="m553.48,279.78c0,14.6-12.44,23.31-25.7,23.31-11.25,0-20.04-6.55-20.04-18.02,0-14.75,12.44-23.39,25.85-23.39,11.1,0,19.89,6.63,19.89,18.1Zm-17.5,1.49c0-3.2-1.56-5.81-4.39-5.81-3.58,0-6.33,3.87-6.33,8.04,0,3.2,1.56,5.81,4.39,5.81,3.58,0,6.33-3.87,6.33-8.04Z"/>
  <path class="cls-1" d="m575.75,287.37l-2.08,14.75h-18.1l5.51-39.48h16.91l-.97,7c1.86-3.28,5.44-9.53,13.48-7.6l-2.16,15.49c-6.85-.97-11.47,2.09-12.59,9.83Z"/>
  <path class="cls-1" d="m608,298.25l-2.61,18.32h-18.1l7.6-53.93h17.36l-.75,5.06c3.28-3.65,7.6-6.03,12.29-6.03,8.27,0,13.11,7.75,13.11,17.43,0,12.96-8.19,23.98-19.59,23.98-4.32,0-7.22-1.86-9.31-4.84Zm.6-14.9c0,3.13,1.64,5.59,4.39,5.59,3.5,0,6.26-3.57,6.26-7.67,0-3.13-1.64-5.59-4.39-5.59-3.5,0-6.26,3.58-6.26,7.67Z"/>
  <path class="cls-1" d="m656.63,287.97c1.12,2.08,3.95,2.76,7.22,2.76,3.95,0,7.67-.6,10.65-1.56l.6,11.4c-4.17,1.34-9.68,2.53-15.12,2.53-12.21,0-20.33-5.36-20.33-17.8,0-13.18,10.35-23.61,24.21-23.61,9.46,0,16.01,5.06,16.01,13.33,0,12.29-13.33,14-23.24,12.96Zm9.16-13.11c0-1.42-1.12-2.16-2.53-2.16-3.58,0-5.44,2.83-6.18,5.66,2.53.3,8.71.37,8.71-3.5Z"/>
  <path class="cls-1" d="m712.12,266.52l2.68-19.44h18.02l-5.74,40.97c-.37,2.9,1.42,3.43,4.17,2.76l-1.56,10.87c-2.46.82-6.7,1.42-10.43,1.42-5.51,0-9.01-2.53-10.2-6.18-3.13,3.65-6.93,6.18-12.74,6.18-8.34,0-13.18-7.75-13.18-17.43,0-13.63,8.71-23.98,19.59-23.98,4.32,0,7.22,1.86,9.38,4.84Zm-.67,14.75c0-3.13-1.71-5.59-4.4-5.59-3.5,0-6.26,3.58-6.26,7.67,0,3.13,1.64,5.59,4.39,5.59,3.43,0,6.26-3.57,6.26-7.67Z"/>
  <path class="cls-1" d="m751.52,287.97c1.12,2.08,3.95,2.76,7.22,2.76,3.95,0,7.67-.6,10.65-1.56l.6,11.4c-4.17,1.34-9.68,2.53-15.12,2.53-12.21,0-20.33-5.36-20.33-17.8,0-13.18,10.35-23.61,24.21-23.61,9.46,0,16.01,5.06,16.01,13.33,0,12.29-13.33,14-23.24,12.96Zm9.16-13.11c0-1.42-1.12-2.16-2.53-2.16-3.58,0-5.44,2.83-6.18,5.66,2.53.3,8.71.37,8.71-3.5Z"/>
  <path class="cls-1" d="m797.48,287.37l-2.08,14.75h-18.1l5.51-39.48h16.91l-.97,7c1.86-3.28,5.44-9.53,13.48-7.6l-2.16,15.49c-6.85-.97-11.47,2.09-12.59,9.83Z"/>
  <path class="cls-1" d="m840.08,266.52l.52-3.87h18.02l-3.58,25.4c-.37,2.9,1.42,3.43,4.17,2.76l-1.56,10.87c-2.46.82-6.7,1.42-10.43,1.42-5.51,0-9.01-2.53-10.2-6.18-3.13,3.73-7.08,6.18-12.74,6.18-8.34,0-13.18-7.75-13.18-17.43,0-13.33,8.71-23.98,19.59-23.98,4.32,0,7.22,1.86,9.38,4.84Zm-.67,14.75c0-3.13-1.71-5.59-4.4-5.59-3.5,0-6.26,3.58-6.26,7.67,0,3.13,1.64,5.59,4.39,5.59,3.43,0,6.26-3.57,6.26-7.67Z"/>
  <path class="cls-1" d="m897.73,287.74c0,9.83-8.12,15.34-19.96,15.34-6.78,0-12.29-1.79-16.76-4.54l3.2-11.32c2.98,2.38,7.89,4.02,11.77,4.02,2.38,0,3.65-.6,3.65-1.41,0-2.76-14.38.15-14.38-12.81,0-9.91,8.42-15.34,20.26-15.34,5.74,0,10.28,1.27,14.38,3.2l-3.13,10.8c-2.46-1.19-6.41-2.38-10.2-2.38-.97,0-3.5.07-3.5,1.27,0,2.98,14.67,0,14.67,13.18Z"/>
  <path class="cls-1" d="m136.88,177.3c35.93-12.35,91.45-11.25,123.98-2.12,1.21.35,2.41.72,3.6,1.11.4-2.99.49-6.31.32-10.13-.63-4.96-.91-9.89-.28-20.42.61-10.29-3.16-14.99-12.44-17.07-10.34-2.31-20.6-4.94-32.76-7.88,2.35-6.55,5.02-12.16,6.32-18.06,1.79-8.13,2.76-16.47,3.5-24.77.12-1.32-2.55-3.67-4.35-4.27-20.81-6.87-41.45-5.84-63.4,1.64,1.6,8.56,2.65,16.79,4.77,24.74,1.92,7.24,5,14.17,7.59,21.3-11.8,3.02-20.84,5.42-29.93,7.64-5.3,1.29-7.86,3.96-7.47,9.89.56,8.38,1.08,16.91.15,25.21-.53,4.76-.41,9.14.41,13.19Z"/>
  <path class="cls-1" d="m53.7,459.59c.44.68.89,1.36,1.33,2.04-.38-.82-.76-1.65-1.15-2.47l-.19.43Z"/>
  <g>
    <path class="cls-1" d="m154.6,204.85c28.17-5.12,63.5-5.37,90.08,1.06.59-1.42,17.94-18.74,19.58-28.31-1.26-.32-2.52-.62-3.79-.9-2.42-.54-7.25-1.46-9.7-1.85-30.58-4.87-79.97-5.46-113.66,3.58,1.8,7.6,16.72,23.6,17.49,26.41Z"/>
    <path class="cls-1" d="m922.1,550.56c-4.81-25.41-14.45-48.63-33.3-66.45-27.46-25.96-59.62-29.49-94.52-16.63-4.38,1.61-11.63,1.77-14.73-.8-6.6-5.47-11.48-13.06-16.81-19.99-6.3-8.18-11.81-17.04-18.72-24.64-2.66-2.92-8.15-4.15-12.47-4.47-6.21-.47-12.53.6-15.93.83-4.77-7.08-7.18-14.72-12.01-16.86-6.94-3.07-15.71-3.12-23.59-2.65-7.89.47-15.71,2.95-23.42,5.08-1.82.5-3.89,2.92-4.39,4.84-2.53,9.56-4.34,19.32-6.91,28.88-1.21,4.51-3.53,8.72-5.92,14.41-11.04-13.16-23.6-15.57-37.95-17.31-18.25-2.22-21.23,14.45-32.34,20.75,10.11-21.11,20.95-41.41,46.93-47.24-24.3-3.33-52.4,17.49-57.85,43.15-6.09-15.17-14.42-24.36-31-25.53-16.15-1.15-27.57,5.54-38.6,16.17-19.85-27.1-46.1-42.36-79-45.25-33.33-2.92-61.58,9.32-86.4,31.32-2-2.7-4.13-4.63-5.09-7.02-4.21-10.55-12.01-12.58-22.57-11.79-12.97.97-26.07.23-40.18.23-.51-6.14-1.6-12.44-1.4-18.71.21-6.49-2.62-8.84-8.58-9.57-28.11-3.44-56.22-5.76-84.49-1.75-18.05,2.56-18.04,2.48-20.37,20.18-.1.79-1.15,1.45-.82,1.06-7.98-7.33-15.85-14.57-24.45-22.47,2.43-.74,3.71-1.57,4.83-1.39,8.06,1.23,15.9.77,23.17-3.17,2.11-1.14,3.7-3.24,5.52-4.9-4.19-7.33-1.69-17.39-1.48-25.87.39-16.02,3.03-31.99,4.83-48.86,30.02,0,58.89-.12,87.74.27,1.96.03,5.17,3.73,5.57,6.1,1.45,8.55,4.88,73.06,5.73,81.71,4.19,2.12,2.36,4.5-1.84-73.52-1.7-31.58-4.3-63.1-6.06-94.67-.12-2.08.24-4.64.98-6.89-5.97-.9-11.96-1.51-17.97-1.97-23.69-1.53-47.62-1.15-71.26,1.52.28,1.51.38,3.01.29,4.31-2.51,36.24-5.56,72.44-8.64,108.63-1.3,15.25-3.05,30.46-4.69,46.59-4.57-1.2-8.33-1.6-11.55-3.13-10.86-5.17-21.25-11.43-32.37-15.9-7.11-2.86-10.47-6.55-11.63-14.2-1.27-8.32-9.76-10.55-15.96-4.89-2.77,2.53-5.11,5.51-6.44,6.96,2.44,1.91,7.45,4.63,7.12,5.76-4.58,15.31.78,26.83,14.97,37.12-8.11,2.02-14.16,3.38-20.12,5.06-3.73,1.05-8.67,1.57-5.94,7.75l-.22-.07c7.11,9.14,14.21,18.28,21.32,27.42.9-.61,1.8-1.23,2.69-1.84-5.53-8.68-11.07-17.36-17.67-27.73,8.47-2.24,16.17-4.27,23.87-6.31.67.87,1.34,1.75,2.01,2.62-2.69,4.03-5.39,8.06-8.38,12.53,1.6.9,4,2.61,6.66,3.69,9.28,3.77,11.9,1.89,12.67-8.18.24-3.09,1.5-6.11,2.29-9.15,3.1,1.54,6.62,2.57,9.22,4.72,6.69,5.53,12.96,11.56,21.19,19.01-15.23,5.32-27.56,10.17-40.23,13.84-6.62,1.92-9.31,5.3-9.9,11.85-1.76,19.37-3.86,38.72-5.9,58.07-.16,1.53-.82,3-1.59,5.74-8.14-12.47-15.61-23.91-23.05-35.3,7.37,15.87,14.72,31.74,22.13,47.59,33.73,72.17,78.09,136.59,138.52,189.18,66.1,57.54,140.87,95.78,229.27,105.41,43.64,4.75,86.64,4.23,128.85-7.94,34.92-10.07,62.63-30.46,79.45-63.44,21.56-42.3,21.75-86.65,10.16-131.51-3.42-13.23-11.85-23.39-24.01-30.97-10.88-6.78-20.39-15.73-30.51-23.73,3.73,12.24,14.3,17.97,23.7,24.76,4.03,2.91,8.32,5.47,14.02,9.19-51.99,50.68-114.98,73.09-184.15,81.88,71.1-3.85,137.65-18.7,186.56-77.32,9.46,12.26,11.46,26.73,12.97,40.89,4.05,37.91-.21,74.5-20.58,107.84-14.62,23.93-35.95,39.8-62.09,48.59-42.91,14.42-87.09,14.82-131.61,9.74-7.56-.86-10.81-3.77-11.1-11.81-1.57-42.36-3.71-84.69-5.44-127.04-.11-2.73.79-6.25,2.56-8.19,9.85-10.84,20.1-21.3,31.82-33.57v21.53c41.47,5.74,125.23-20.58,150.21-65.75-8.12,5.93-16.23,11.86-22.93,16.76-9.04-5.48-17.06-10.34-26.74-16.2-2.12,10.84-3.64,20.39-5.99,29.73-.89,3.56-2.87,8.25-5.73,9.7-26,13.16-53.47,21.3-84.07,22.67v-27.29h-47.11c3.22-4.95,4.49-9.35,7.32-10.9,44.55-24.38,91.76-40.83,139.76-46.31-1.06,3.6-3.32,7.87-3.36,12.16-.07,7.02,9,13.84,20.3,15.98v-32.2c8.15,1.76,14.99,3.24,21.83,4.72-1.45-3.62-2.91-7.24-4.45-11.07-6.29.35-12.18.68-19.75,1.1,5.07-14.85-8.21-16.74-14.43-24.17,3.4,1.09,6.8,2.17,11.85,3.79-2.69-7.06,1.17-15.35-9.2-15.99,1.42-5.07,2.8-10.05,4.71-16.88,4.72,6.99,8.08,11.97,11.44,16.94,1.01-.37,2.03-.73,3.04-1.1-.91-6.28-1.83-12.56-2.92-20.07,12.16-4.01,25-7.06,36.71-12.53,7.39-3.45,12.23-1.94,17.63,2.19-2.95,6.86-5.9,13.71-8.86,20.56,4.67-3.67,8.77-8.01,11.09-13.15,4.6-10.22,10.36-18.22,21.98-21.58,4.72-1.37,8.53-6.14,12.54-9.61,6.64-5.73,12.65-12.36,19.91-17.11,2.44-1.6,8.8.18,11.78,2.48,12.68,9.77,24.76,20.3,37.06,30.56.7-.83,1.39-1.65,2.09-2.48-9.95-11.98-27.92-16.09-33.88-33.87,9.42,1.04,17.76-5.95,26.42,4.06,8.69,10.04,13.55,23.59,26.42,30.09,1.69.85,2.03,4.36,3.55,7.95-7.81-1-14.03-2.31-20.3-2.5-25.66-.77-47.09,9.36-65.08,26.97-5.54,5.43-10.2,7.65-18.43,5.6-9.6-2.39-20.02-2.78-29.95-2.09-6.32.44-12.39,4.43-18.57,6.82l.99,2.57c14.57-6.37,34.79-7.2,50.7-1.14,6.87,2.61,11.49,2.17,16.71-3.63,28.7-31.89,89.12-39.37,124.19,3.3,15.13,18.42,28.92,37.32,35.69,60.28,16.13,54.68,6.34,107.2-15.04,158.34-4.52,10.82-11.3,20.7-17.04,31.02,4.37-2,7.54-4.88,10.15-8.2,26.05-32.95,35.58-71.85,39.65-112.5,5.66-56.47-11.28-104.07-56.3-140.31-4.55-3.66-8.88-7.59-13.5-11.55,20.39-13.95,61.61-7.29,80.34,10.81,24.93,24.08,33.09,54.72,35.51,87.36,3.34,44.99-5.28,88.3-22.17,129.98-24.07,59.41-56.07,112.53-111.64,148.76-51.82,33.78-107.84,56.44-168.69,65.25-55.26,8-110.43,5.18-165.01-9.02-55.23-14.37-105.89-38.86-154.59-67.43-71.63-42.03-124.65-103.19-167.26-173.18-18.21-29.92-31.05-63.13-46.04-94.98-4.01-8.52-6.93-17.56-10.35-26.36-.78.3-1.57.6-2.35.89,6.65,18.81,12.63,37.89,20.1,56.37,20.09,49.74,48.22,94.91,81.57,136.69,33.84,42.39,71.63,80.73,119.94,106.98,29.99,16.3,59.9,32.83,90.5,47.93,39.85,19.66,82.71,30.29,126.6,34.93,79.47,8.39,156.13-2.8,228.78-37.57,31.26-14.96,60.97-32.56,86.65-55.75,36.25-32.73,60.92-73.82,79.47-118.6,22.78-55.02,34.39-111.65,23.09-171.39Zm-368.27-92.21c-20.8-5.08-36.71.97-49.02,18.96-4.57-11.59-7.83-19.85-11.06-28.03,20.73-11.54,44.44-8.36,60.08,9.07Zm-249.62-40.73c2.41,0,5.36,3.55,7.13,6.11,15.84,22.87,31.46,45.89,47.19,68.82.49.71,1.55,1.04,2.32,1.53-3.11-12.27-6.2-24.47-9.3-36.68,1.13-.39,2.25-.77,3.38-1.16,7.43,13.64,14.96,27.23,22.17,40.99,1.16,2.22,1.25,5.18,1.27,7.8.21,35.32,1.34,70.69-.26,105.94-.4,8.89-9.55,17.43-14.95,25.95-.45.71-3.19.51-4.59-.02-22.2-8.46-44.42-16.87-66.42-25.82-2.51-1.02-5.44-5.26-5.32-7.87,1.35-27.85,3.28-55.68,5.24-86.42,18.74,0,36.8-.22,54.84.35,1.76.06,4.67,4.91,4.83,7.66,1.11,19.13,1.59,38.3,2.37,57.45.1,2.49.78,4.95,1.19,7.42.83-.03,1.65-.06,2.48-.09v-82.25c-18.37-.56-37.75-1.73-57.1-1.48-9.76.13-14.95-3.15-19.26-11.93-10.77-21.96-22.72-43.34-34.13-64.99-1.22-2.32-1.96-4.89-4.02-10.12,21.51-.52,41.22-1.22,60.93-1.18Zm-65.44,13.27c12.53,22.75,23.35,43.9,35.65,64.16,7.69,12.67,10.26,25.49,9.51,40.05-1.09,21.47-.71,43.01-1,64.52-.03,2.22-.4,4.43-.73,7.98-8.89-4.62-16.99-8.44-24.62-13.03-1.99-1.2-3.41-4.77-3.55-7.34-.35-6.02-.52-12.23.59-18.1,2.57-13.53.87-24.88-12.17-32.51-1.85-1.08-3.51-4.23-3.53-6.43-.22-32.21-.15-64.42-.15-99.3Zm-99.99,168.83c-9.48-13.65-18.24-25.29-25.94-37.6-9.42-15.06-17.71-30.81-26.93-46-7.17-11.81-1.3-23.7-.64-35.41.74-13.33,4.13-26.5,5.49-39.83.83-8.06,3.82-12.75,11.95-14.95,12.16-3.3,24.04-7.58,37.3-11.85-.64,11.9-1.21,22.45-1.89,35.29-5.32-5.05-9.24-8.79-13.17-12.53-.68.58-1.35,1.17-2.03,1.75,21.13,25.17,42.26,50.34,63.75,75.95-6.18,1.86-11.53,3.46-18.07,5.43-18.63-25.44-37.08-50.63-55.53-75.83-.82.58-1.65,1.15-2.47,1.73,1.86,2.91,3.67,5.86,5.6,8.72,12.59,18.58,24.92,37.36,37.97,55.61,4.52,6.32,6.04,10.76,3.19,19.19-7.06,20.91-11.44,42.73-16.9,64.19-.3,1.2-.65,2.38-1.69,6.14Zm43.99,41.13c-.11,2.58-.01,5.17-2.26,8.88-12.11-14.5-24.37-28.89-36.16-43.65-1.51-1.89-1.37-5.97-.61-8.64,5.87-20.62,11.91-41.2,18.4-61.63.93-2.93,4.09-6.21,6.97-7.27,10.37-3.79,20.95-7.13,31.69-9.67,3.19-.75,7.83.76,10.6,2.84,9.36,7.01,18.18,14.75,28.82,23.54-16.3,4.41-30.96,9.03-45.93,12.14-6.52,1.35-8.18,4.15-8.4,9.92-.94,24.52-2.08,49.03-3.11,73.55Zm163.32,125.56c-11.81-5.47-23.75-10.29-35.02-16.34-35.54-19.07-68.69-41.59-97.87-69.67-2.14-2.06-4.99-3.35-7.41-5.14-14.64-10.79-22.53-23.11-17.99-43.26,4.02-17.82,3.16-36.76,4.21-55.22.42-7.4,2.43-12.22,10.96-13.8,15.09-2.79,29.95-6.87,46.14-10.69v36.27c-4.15-2.13-7.25-3.73-10.36-5.33-.55.77-1.1,1.53-1.64,2.3,9.31,6.32,18.02,13.87,28.03,18.73,28.59,13.9,57.77,26.59,86.52,40.19,2.57,1.22,5,5.52,5.14,8.51.31,6.21-.96,12.49-1.64,19.4-53.84-16.91-101.28-42.22-139.51-83.34,11.33,18.31,26.91,32.21,43.3,45.31,26.88,21.47,58.31,33.84,90.26,45.25,2.58.92,6.13,4.7,5.95,6.88-2.09,25.11-4.81,50.16-7.41,75.22-.1.96-.64,1.88-1.66,4.71Zm108.06-155.63c-9.15,10.02-17.99,18.94-25.85,28.66-2.95,3.66-5.37,9.26-5.08,13.79,2.58,41.21,5.81,82.37,8.86,123.55.24,3.3.49,6.59.96,12.79-14.98-3.09-28.11-5.29-40.95-8.58-11.33-2.9-22.25-7.36-33.54-10.44-6.21-1.7-8.04-4.93-7.13-10.94,4.35-28.79,8.55-57.59,12.78-86.4.44-2.99,1.27-6.03,1.04-8.98-1.08-13.79,6.08-23.78,13.38-34.61,10.15-15.05,22.72-20.96,40.51-19.06,11.11,1.19,22.45.22,35.03.22Zm-72.04.46c1.49-35.36,2.97-70.71,4.51-107.12h34.63v97.95c-11.51,4.61-27.51-6.2-39.14,9.17Zm86.22-46.13c-11.2,4.31-21.84,10.1-32.73,15.24-2.92,1.38-5.89,2.64-7.91,3.55,0-27.79-2.25-55.26,1.01-82.06,1.49-12.25-2.59-19.73-7.23-28.53-6.57-12.45-13.56-24.68-20.68-36.83-1.35-2.3-4.12-5.28-6.3-5.34-16.67-.45-33.36-.24-50.87-.24,2.12,6.39,4.7,11.6,5.42,17.05.72,5.46-.41,11.17-.92,19.95-7.37-11.75-13.36-20.78-18.63-30.22-.84-1.5.86-5.7,2.62-7.16,32.07-26.7,67.66-33.38,107.07-18.59,32.32,12.13,51.75,35.96,61.78,68.03,1.34,4.27-.74,9.98-2.27,14.7-2.49,7.71-5.82,15.14-8.79,22.69.98.48,1.96.95,2.93,1.43,8.85-10.6,18.06-20.93,26.45-31.88,9.57-12.49,24.44-14.7,36.67-21.98,1.17,1.34,2.33,2.67,3.5,4.01-5.63,4.42-11.65,8.45-16.69,13.47-1.97,1.97-8.85,5.07-.43,9.78,4.24,2.38-1.9,15.59-8.03,17.37-10.66,3.09-21.15,5.16-31.63,10.43-15.22,7.65-20.07,19.89-23.86,33.67-1.75,6.36-4.46,9.16-10.48,11.48Zm83.28-24.15c-20.82,4.64-41.29,10.88-61.92,16.41-1.51.4-3.06.64-6.72,1.39,5.3-12.33,6.52-23.75,19.04-31.16,10.43-6.17,20.73-10.79,32.41-12.46,4.62-.66,9.56-.13,14.21.69,6.43,1.14,12.72,3.06,19.37,4.72,1.01,17.41.83,16.57-16.38,20.41Zm12.43-26.08c-7.16-2.34-13.02-4.26-21.36-6.99,2.83-3.03,5.07-4.79,6.46-7.07,1.93-3.17,3.45-6.64,4.71-10.14,1.47-4.07,1.95-8.57,3.84-12.39,1.47-2.97,3.93-8.52,7.43.34,1.4-3.45,2.19-5.39,2.98-7.33,1.03.19,2.06.38,3.09.57-2.3,13.85-4.61,27.71-7.15,43.02Zm56.41-53.36c-6.38,2.36-13.03,4.21-19.02,7.32-6.39,3.31-11.95,5.21-18.39.12-2.98-2.36-7.03-3.38-11.56-5.46,16.52-13.99,38.06-15.88,56.53-4.55-3.16,1.07-5.38,1.76-7.56,2.57Zm79.91-42.39c-10.08,5.75-21.12,9.79-26.51,21.76-1.65,3.66-6.8,6.56-10.97,8.09-9.39,3.45-15.64,9.47-19.04,18.68-1.2-6.65-.13-12.37,2.88-19.07,5.48-12.21,7.99-25.76,12.36-40.9,12.75-.37,25.86-1.07,38.95-.84,2.57.05,5.75,3.34,7.25,5.94.53.92-2.65,5.04-4.92,6.34Z"/>
  </g>
</svg>