<?xml version="1.0" encoding="UTF-8"?>
<svg id="Capa_2" data-name="Capa 2" xmlns="http://www.w3.org/2000/svg" viewBox="0 0 432.44 801.01">
  <defs>
    <style>
      .cls-1 {
        fill: #fff;
      }
    </style>
  </defs>
  <g id="Capa_1-2" data-name="Capa 1">
    <g>
      <g>
        <path class="cls-1" d="m58.93,571.54c-2.87,0-4.2-.51-4.2-.51v-1.27s.7.06,1.34.06c1.85,0,3.31-.45,4.52-1.34,2.04-1.53,3.12-4.46,3.12-8.47,0-9.17-5.35-9.42-8.6-9.42-1.08,0-2.67.19-2.67.19v28.02c0,4.97-.06,6.94.89,8.21.89,1.21,2.29,1.78,4.97,1.91v1.15c-2.48-.13-8.02-.25-10.25-.25s-5.79,0-8.53.25v-1.15c.83,0,2.16-.32,3.12-1.4,1.08-1.21,1.15-2.99,1.15-8.47v-21.9c0-4.01-.19-5.41-.83-6.37-.51-.7-1.53-1.46-3.25-1.59v-1.15c2.48.13,5.41.19,7.64.19,3.57,0,5.73-.13,9.61-.13,1.27,0,4.65.06,7.2.64,4.65,1.08,8.91,3.88,8.91,10.57,0,8.47-6.49,12.23-14.14,12.23Z"/>
        <path class="cls-1" d="m99.42,590.58c-13.18,0-20.95-8.02-20.95-20.82s8.41-22.03,21.65-22.03,20.95,8.02,20.95,20.82-8.4,22.03-21.65,22.03Zm.38-40.05c-8.66,0-11.78,8.28-11.78,18.4s3.63,18.85,11.72,18.85c8.66,0,11.78-8.28,11.78-18.4s-3.63-18.85-11.72-18.85Z"/>
        <path class="cls-1" d="m166.85,550.59c-1.08,1.21-1.15,2.99-1.15,8.47v31.2h-3.57l-24.26-32.22c-1.08-1.4-1.53-2.42-1.53-2.42v25.34c0,4.01.19,5.41.83,6.37.51.7,1.53,1.46,3.25,1.59v1.15c-2.48-.13-3.76-.25-5.99-.25s-3.63,0-6.37.25v-1.15c.83,0,2.16-.32,3.12-1.4,1.08-1.21,1.15-2.99,1.15-8.47v-21.9c0-4.01-.19-5.41-.83-6.37-.51-.7-1.53-1.46-3.25-1.59v-1.15c2.48.13,5.16.25,7.39.25.96,0,3.82-.13,5.54-.25l18.46,24.58c1.59,2.16,2.04,3.12,2.04,3.12v-18.59c0-4.01-.19-5.41-.83-6.37-.51-.7-1.53-1.46-3.25-1.59v-1.15c2.48.13,4.01.25,6.24.25s3.37,0,6.11-.25v1.15c-.83,0-2.16.32-3.12,1.4Z"/>
        <path class="cls-1" d="m205.56,556.45c-.06-2.16-.96-3.63-2.16-4.33-1.4-.83-2.67-.96-6.62-.96h-2.36v29.74c0,4.01.19,5.41.83,6.3,1.02,1.53,3.88,1.66,4.52,1.66v1.21c-2.48-.13-7.58-.25-9.81-.25s-7.39.13-9.87.25v-1.15c.51,0,3.18-.19,4.39-1.53,1.08-1.21,1.15-2.87,1.15-8.34v-27.89h-2.36c-3.95,0-5.22.13-6.62.96-1.21.7-2.1,2.16-2.16,4.33h-1.34c.25-2.93.19-8.21.19-8.21h33.36s-.06,5.28.19,8.21h-1.34Z"/>
        <path class="cls-1" d="m224.91,550.59c-1.08,1.21-1.15,2.99-1.15,8.47v21.9c0,4.01.19,5.41.83,6.37.51.7,1.53,1.46,3.25,1.59v1.15c-2.48-.13-6.37-.25-8.6-.25s-6.05.13-8.53.25v-1.15c.83,0,2.16-.32,3.12-1.4,1.08-1.21,1.15-2.99,1.15-8.47v-21.9c0-4.01-.19-5.41-.83-6.37-.51-.7-1.53-1.46-3.25-1.59v-1.15c2.48.13,6.37.25,8.6.25s6.05-.13,8.53-.25v1.15c-.83,0-2.16.32-3.12,1.4Z"/>
        <path class="cls-1" d="m262.09,556.45c-.06-2.16-.96-3.63-2.16-4.33-1.4-.83-2.67-.96-6.62-.96h-5.22v15.6h5.35c2.29,0,4.01-.13,5.16-1.08.89-.7,1.53-1.91,1.66-3.76h1.34c0,1.4-.13,2.29-.13,6.3s.06,4.71.13,6.18h-1.34c-.13-1.66-.64-2.74-1.4-3.44-1.34-1.15-3.31-1.27-5.54-1.27h-5.22v11.33c0,4.01.19,5.29.83,6.18,1.02,1.53,3.88,1.66,4.52,1.66v1.21c-2.48-.13-7.51-.32-9.74-.32-3.57,0-5.09.13-8.66.32v-1.15c.83,0,2.16-.32,3.12-1.4,1.08-1.21,1.15-2.99,1.15-8.47v-21.9c0-4.01-.19-5.41-.83-6.37-.51-.7-1.53-1.46-3.25-1.59v-1.15c3.5.19,6.24.19,9.81.19h18.21s-.06,5.28.19,8.21h-1.34Z"/>
        <path class="cls-1" d="m283.36,550.59c-1.08,1.21-1.15,2.99-1.15,8.47v21.9c0,4.01.19,5.41.83,6.37.51.7,1.53,1.46,3.25,1.59v1.15c-2.48-.13-6.37-.25-8.6-.25s-6.05.13-8.53.25v-1.15c.83,0,2.16-.32,3.12-1.4,1.08-1.21,1.15-2.99,1.15-8.47v-21.9c0-4.01-.19-5.41-.83-6.37-.51-.7-1.53-1.46-3.25-1.59v-1.15c2.48.13,6.37.25,8.6.25s6.05-.13,8.53-.25v1.15c-.83,0-2.16.32-3.12,1.4Z"/>
        <path class="cls-1" d="m326.21,556.45c0-1.66-.7-2.87-1.72-3.69-1.97-1.72-5.29-2.04-7.26-2.04-5.6,0-14.2,1.21-14.2,18.53,0,10.63,3.63,18.02,14.39,18.02,2.29,0,5.35-.32,7.07-2.36.83-.89,1.34-2.16,1.34-3.88h1.34c-.13,1.85-.25,3.82-.25,6.81v1.08c-2.87.96-7.45,1.4-10.76,1.4-8.02,0-14.71-2.29-18.66-7.2-2.55-3.18-4.01-7.58-4.01-13.12,0-11.02,6.24-17.96,14.39-20.89,3.25-1.15,7.26-1.4,9.68-1.4,4.9,0,9.42.7,10,.7-.13,1.21-.13,2.67-.13,3.95,0,1.66.06,3.25.13,4.08h-1.34Z"/>
        <path class="cls-1" d="m348.74,550.59c-1.08,1.21-1.15,2.99-1.15,8.47v21.9c0,4.01.19,5.41.83,6.37.51.7,1.53,1.46,3.25,1.59v1.15c-2.48-.13-6.37-.25-8.6-.25s-6.05.13-8.53.25v-1.15c.83,0,2.16-.32,3.12-1.4,1.08-1.21,1.15-2.99,1.15-8.47v-21.9c0-4.01-.19-5.41-.83-6.37-.51-.7-1.53-1.46-3.25-1.59v-1.15c2.48.13,6.37.25,8.6.25s6.05-.13,8.53-.25v1.15c-.83,0-2.16.32-3.12,1.4Z"/>
        <path class="cls-1" d="m388.03,589.82c-1.91,0-6.62.13-8.47.25v-1.15c1.53,0,2.48-.32,2.99-.76.38-.32.57-.83.57-1.4,0-.76-.32-1.85-.96-3.63l-3.06-8.79h-11.91l-3.25,8.85c-.64,1.78-1.02,2.8-1.02,3.63,0,.57.13,1.02.51,1.34.7.7,2.04.7,2.93.76v1.15c-2.23-.13-3.76-.25-6.05-.25-2.04,0-3.88.06-5.92.25v-1.15c1.78.06,2.74-1.27,3.12-1.85.51-.76,1.46-2.99,3.12-6.94l13.24-32.09,4.65-.83,11.46,32.35c1.59,4.39,2.74,7.13,2.99,7.58.38.57,1.21,1.85,2.99,1.78v1.15c-1.85-.13-6.11-.25-7.96-.25Zm-12.8-26.81c-1.4-4.01-1.72-5.73-1.72-5.73l-5.28,14.26h9.93l-2.93-8.53Z"/>
        <path class="cls-1" d="m39.73,620.63c-1.08,1.21-1.15,2.99-1.15,8.47v12.93c0,4.78-.13,7.83-1.08,10.32-2.87,7.58-11.14,8.21-16.3,8.21-10.76,0-14.39-3.82-16.05-8.02-1.21-3.18-1.08-7.39-1.08-10.7v-14.64c0-4.01-.19-5.41-.83-6.37-.51-.7-1.53-1.46-3.25-1.59v-1.15c2.48.13,6.37.25,8.6.25s6.05-.13,8.53-.25v1.15c-.83,0-2.16.32-3.12,1.4-1.08,1.21-1.15,2.99-1.15,8.47v16.94c0,5.73.45,11.65,9.74,11.65s9.81-6.69,9.81-11.72v-18.78c0-4.01-.19-5.41-.83-6.37-.51-.7-1.53-1.46-3.25-1.59v-1.15c2.48.13,4.65.25,6.88.25s5.09-.13,7.64-.25v1.15c-.83,0-2.16.32-3.12,1.4Z"/>
        <path class="cls-1" d="m87.42,620.63c-1.08,1.21-1.15,2.99-1.15,8.47v31.2h-3.57l-24.26-32.22c-1.08-1.4-1.53-2.42-1.53-2.42v25.34c0,4.01.19,5.41.83,6.37.51.7,1.53,1.46,3.25,1.59v1.15c-2.48-.13-3.76-.25-5.99-.25s-3.63,0-6.37.25v-1.15c.83,0,2.16-.32,3.12-1.4,1.08-1.21,1.15-2.99,1.15-8.47v-21.9c0-4.01-.19-5.41-.83-6.37-.51-.7-1.53-1.46-3.25-1.59v-1.15c2.48.13,5.16.25,7.39.25.96,0,3.82-.13,5.54-.25l18.46,24.58c1.59,2.16,2.04,3.12,2.04,3.12v-18.59c0-4.01-.19-5.41-.83-6.37-.51-.7-1.53-1.46-3.25-1.59v-1.15c2.48.13,4.01.25,6.24.25s3.37,0,6.11-.25v1.15c-.83,0-2.16.32-3.12,1.4Z"/>
        <path class="cls-1" d="m110.78,620.63c-1.08,1.21-1.15,2.99-1.15,8.47v21.9c0,4.01.19,5.41.83,6.37.51.7,1.53,1.46,3.25,1.59v1.15c-2.48-.13-6.37-.25-8.6-.25s-6.05.13-8.53.25v-1.15c.83,0,2.16-.32,3.12-1.4,1.08-1.21,1.15-2.99,1.15-8.47v-21.9c0-4.01-.19-5.41-.83-6.37-.51-.7-1.53-1.46-3.25-1.59v-1.15c2.48.13,6.37.25,8.6.25s6.05-.13,8.53-.25v1.15c-.83,0-2.16.32-3.12,1.4Z"/>
        <path class="cls-1" d="m156.31,621.08c-.51.76-1.46,2.99-3.12,6.94l-13.18,32.09-4.84.83-11.46-32.35c-1.59-4.39-2.74-7.13-2.99-7.58-.38-.57-1.21-1.85-2.99-1.78v-1.15c1.85.13,6.11.25,7.96.25s6.69-.13,8.53-.25v1.15c-1.53,0-2.48.32-2.99.76-.38.32-.57.83-.57,1.4,0,.76.32,1.85.96,3.63l6.94,19.99c1.34,3.88,1.78,5.73,1.78,5.73,0,0,.7-2.1,2.1-5.86l7.39-19.93c.64-1.78,1.02-2.8,1.02-3.63,0-.57-.13-1.02-.51-1.34-.7-.7-2.04-.7-2.93-.76v-1.15c2.23.13,3.82.25,6.11.25,2.04,0,3.88-.06,5.92-.25v1.15c-1.78-.06-2.74,1.27-3.12,1.85Z"/>
        <path class="cls-1" d="m190.05,659.98h-17.83c-3.57,0-7-.06-10.57.13v-1.15c.83,0,2.16-.32,3.12-1.4,1.08-1.21,1.15-2.99,1.15-8.47v-21.9c0-4.01-.19-5.41-.83-6.37-.51-.7-1.53-1.46-3.25-1.59v-1.15c3.5.19,6.24.19,9.81.19h18.21s-.06,5.28.19,8.21h-1.34c-.06-2.16-.96-3.63-2.16-4.33-1.4-.83-2.67-.96-6.62-.96h-5.22v15.6h5.35c2.29,0,4.01-.13,5.16-1.08.89-.7,1.53-1.91,1.66-3.76h1.34c0,1.4-.13,2.29-.13,6.3s.06,4.71.13,6.18h-1.34c-.13-1.66-.64-2.74-1.4-3.44-1.34-1.15-3.31-1.27-5.54-1.27h-5.22v14.07c0,2.87.51,3.25,3.95,3.25h1.08c3.5,0,6.05-.13,7.64-1.72.83-.83,1.46-2.36,1.53-4.27h1.34c-.25,2.93-.19,8.91-.19,8.91Z"/>
        <path class="cls-1" d="m233.35,660.3c-6.62,0-8.21-2.67-10.44-5.41-1.4-1.78-6.18-7.96-9.3-12.54h-2.67v8.66c0,4.01.19,5.41.83,6.37.51.7,1.53,1.46,3.25,1.59v1.15c-2.48-.13-6.11-.25-8.34-.25s-5.99.13-8.47.25v-1.15c.83,0,2.16-.32,3.12-1.4,1.08-1.21,1.15-2.99,1.15-8.47v-21.9c0-4.01-.19-5.41-.83-6.37-.51-.7-1.53-1.46-3.25-1.59v-1.15c2.48.13,4.65.19,6.88.19,4.58,0,5.67-.19,9.74-.19,1.46,0,4.71,0,7.26.64,7.58,1.91,8.47,7.58,8.47,10.12,0,3.31-1.15,9.3-9.3,11.59,0,0,7.07,8.15,10.82,12.48,3.12,3.5,5.28,5.92,7.96,6.05v1.08s-1.46.25-6.88.25Zm-19.68-39.73c-1.34,0-2.74.19-2.74.19v18.85s1.46.13,2.99.13c.89,0,1.78-.06,2.48-.25.89-.25,5.09-1.02,5.09-9.68s-5.35-9.23-7.83-9.23Z"/>
        <path class="cls-1" d="m253.72,660.36c-2.93,0-7.13-.38-10.06-1.34v-1.02c0-2.99-.13-5.09-.25-6.94h1.34c.25,1.91.89,3.57,2.23,4.58,1.72,1.4,4.2,1.72,6.43,1.72,8.21,0,8.34-5.41,8.34-6.69,0-4.14-2.67-5.67-6.18-7.83l-3.57-2.23c-4.58-2.87-7.58-5.67-7.58-11.72,0-3.18,1.53-11.14,14.77-11.14,5.73,0,9.81.7,9.81.7,0,0-.19,1.4-.19,3.44,0,3.57.13,4.58.13,4.58h-1.34c-.13-1.59-.76-2.8-1.72-3.76-1.66-1.66-4.46-2.04-6.49-2.04-6.56,0-7.32,3.76-7.32,5.92,0,3.31,1.91,4.9,5.35,6.94l4.08,2.42c5.16,3.06,8.28,5.79,8.28,12.23,0,8.53-6.75,12.16-16.05,12.16Z"/>
        <path class="cls-1" d="m291.6,620.63c-1.08,1.21-1.15,2.99-1.15,8.47v21.9c0,4.01.19,5.41.83,6.37.51.7,1.53,1.46,3.25,1.59v1.15c-2.48-.13-6.37-.25-8.6-.25s-6.05.13-8.53.25v-1.15c.83,0,2.16-.32,3.12-1.4,1.08-1.21,1.15-2.99,1.15-8.47v-21.9c0-4.01-.19-5.41-.83-6.37-.51-.7-1.53-1.46-3.25-1.59v-1.15c2.48.13,6.37.25,8.6.25s6.05-.13,8.53-.25v1.15c-.83,0-2.16.32-3.12,1.4Z"/>
        <path class="cls-1" d="m327.96,659.09c-1.97.57-5.48,1.02-10.38,1.02-3.25,0-5.6-.19-8.47-.19-2.23,0-4.9.06-7.39.19v-1.15c.83,0,2.16-.32,3.12-1.4,1.08-1.21,1.15-2.99,1.15-8.47v-21.9c0-4.01-.19-5.41-.83-6.37-.51-.7-1.53-1.46-3.25-1.59v-1.15s2.42.19,7.07.19c2.04,0,5.86-.13,10.44-.13,5.73,0,23.3.51,23.3,19.8,0,14.96-8.85,19.48-14.77,21.14Zm-8.66-38.01c-3.37,0-4.52.19-4.52.19v32.54c0,1.85.19,2.8,1.53,3.18.64.19,1.66.19,3.06.19,9.68,0,13.82-5.09,13.82-18.34,0-16.17-8.41-17.76-13.88-17.76Z"/>
        <path class="cls-1" d="m378.25,659.85c-1.91,0-6.62.13-8.47.25v-1.15c1.53,0,2.48-.32,2.99-.76.38-.32.57-.83.57-1.4,0-.76-.32-1.85-.96-3.63l-3.06-8.79h-11.91l-3.25,8.85c-.64,1.78-1.02,2.8-1.02,3.63,0,.57.13,1.02.51,1.34.7.7,2.04.7,2.93.76v1.15c-2.23-.13-3.76-.25-6.05-.25-2.04,0-3.88.06-5.92.25v-1.15c1.78.06,2.74-1.27,3.12-1.85.51-.76,1.46-2.99,3.12-6.94l13.24-32.09,4.65-.83,11.46,32.35c1.59,4.39,2.74,7.13,2.99,7.58.38.57,1.21,1.85,2.99,1.78v1.15c-1.85-.13-6.11-.25-7.96-.25Zm-12.8-26.81c-1.4-4.01-1.72-5.73-1.72-5.73l-5.29,14.26h9.93l-2.93-8.53Z"/>
        <path class="cls-1" d="m416.58,659.09c-1.97.57-5.48,1.02-10.38,1.02-3.25,0-5.6-.19-8.47-.19-2.23,0-4.9.06-7.39.19v-1.15c.83,0,2.16-.32,3.12-1.4,1.08-1.21,1.15-2.99,1.15-8.47v-21.9c0-4.01-.19-5.41-.83-6.37-.51-.7-1.53-1.46-3.25-1.59v-1.15s2.42.19,7.07.19c2.04,0,5.86-.13,10.44-.13,5.73,0,23.3.51,23.3,19.8,0,14.96-8.85,19.48-14.77,21.14Zm-8.66-38.01c-3.37,0-4.52.19-4.52.19v32.54c0,1.85.19,2.8,1.53,3.18.64.19,1.66.19,3.06.19,9.68,0,13.82-5.09,13.82-18.34,0-16.17-8.41-17.76-13.88-17.76Z"/>
        <path class="cls-1" d="m49.35,696.52c0-1.66-.7-2.87-1.72-3.69-1.97-1.72-5.29-2.04-7.26-2.04-5.6,0-14.2,1.21-14.2,18.53,0,10.63,3.63,18.02,14.39,18.02,2.29,0,5.35-.32,7.07-2.36.83-.89,1.34-2.16,1.34-3.88h1.34c-.13,1.85-.25,3.82-.25,6.81v1.08c-2.87.96-7.45,1.4-10.76,1.4-8.02,0-14.71-2.29-18.66-7.2-2.55-3.18-4.01-7.58-4.01-13.12,0-11.02,6.24-17.96,14.39-20.89,3.25-1.15,7.26-1.4,9.68-1.4,4.9,0,9.42.7,10,.7-.13,1.21-.13,2.67-.13,3.95,0,1.66.06,3.25.13,4.08h-1.34Z"/>
        <path class="cls-1" d="m86.84,729.89c-1.91,0-6.62.13-8.47.25v-1.15c1.53,0,2.48-.32,2.99-.76.38-.32.57-.83.57-1.4,0-.76-.32-1.85-.96-3.63l-3.06-8.79h-11.91l-3.25,8.85c-.64,1.78-1.02,2.8-1.02,3.63,0,.57.13,1.02.51,1.34.7.7,2.04.7,2.93.76v1.15c-2.23-.13-3.76-.25-6.05-.25-2.04,0-3.88.06-5.92.25v-1.15c1.78.06,2.74-1.27,3.12-1.85.51-.76,1.46-2.99,3.12-6.94l13.24-32.09,4.65-.83,11.46,32.35c1.59,4.39,2.74,7.13,2.99,7.58.38.57,1.21,1.85,2.99,1.78v1.15c-1.85-.13-6.11-.25-7.96-.25Zm-12.8-26.81c-1.4-4.01-1.72-5.73-1.72-5.73l-5.29,14.26h9.93l-2.93-8.53Z"/>
        <path class="cls-1" d="m127.21,696.52c-.06-2.16-.96-3.63-2.16-4.33-1.4-.83-2.67-.96-6.62-.96h-2.36v29.74c0,4.01.19,5.41.83,6.3,1.02,1.53,3.88,1.66,4.52,1.66v1.21c-2.48-.13-7.58-.25-9.81-.25s-7.39.13-9.87.25v-1.15c.51,0,3.18-.19,4.39-1.53,1.08-1.21,1.15-2.87,1.15-8.34v-27.89h-2.36c-3.95,0-5.22.13-6.62.96-1.21.7-2.1,2.16-2.16,4.33h-1.34c.25-2.93.19-8.21.19-8.21h33.36s-.06,5.28.19,8.21h-1.34Z"/>
        <path class="cls-1" d="m153.31,730.65c-13.18,0-20.95-8.02-20.95-20.82s8.41-22.03,21.65-22.03,20.95,8.02,20.95,20.82-8.4,22.03-21.65,22.03Zm.38-40.05c-8.66,0-11.78,8.28-11.78,18.4s3.63,18.85,11.72,18.85c8.66,0,11.78-8.28,11.78-18.4s-3.63-18.85-11.72-18.85Zm8.66-10.38l-13.75,4.84-.76-1.15,8.91-8.72.45-.13,5.48,4.2-.32.96Z"/>
        <path class="cls-1" d="m209.98,730.02h-17.45c-3.57,0-7-.06-10.57.13v-1.15c.83,0,2.16-.32,3.12-1.4,1.08-1.21,1.15-2.99,1.15-8.47v-21.9c0-4.01-.19-5.41-.83-6.37-.51-.7-1.53-1.46-3.25-1.59v-1.15c2.48.13,7.07.25,9.3.25s6.94-.13,9.42-.25v1.21c-2.67.13-4.08.7-4.97,1.91-.96,1.27-.89,3.25-.89,8.21v24.39c0,2.87.51,3.25,3.95,3.25h1.08c3.5,0,5.67-.13,7.26-1.72.83-.83,1.46-2.36,1.53-4.27h1.34c-.25,2.93-.19,8.91-.19,8.91Z"/>
        <path class="cls-1" d="m230.74,690.67c-1.08,1.21-1.15,2.99-1.15,8.47v21.9c0,4.01.19,5.41.83,6.37.51.7,1.53,1.46,3.25,1.59v1.15c-2.48-.13-6.37-.25-8.6-.25s-6.05.13-8.53.25v-1.15c.83,0,2.16-.32,3.12-1.4,1.08-1.21,1.15-2.99,1.15-8.47v-21.9c0-4.01-.19-5.41-.83-6.37-.51-.7-1.53-1.46-3.25-1.59v-1.15c2.48.13,6.37.25,8.6.25s6.05-.13,8.53-.25v1.15c-.83,0-2.16.32-3.12,1.4Z"/>
        <path class="cls-1" d="m273.58,696.52c0-1.66-.7-2.87-1.72-3.69-1.97-1.72-5.28-2.04-7.26-2.04-5.6,0-14.2,1.21-14.2,18.53,0,10.63,3.63,18.02,14.39,18.02,2.29,0,5.35-.32,7.07-2.36.83-.89,1.34-2.16,1.34-3.88h1.34c-.13,1.85-.25,3.82-.25,6.81v1.08c-2.87.96-7.45,1.4-10.76,1.4-8.02,0-14.71-2.29-18.66-7.2-2.55-3.18-4.01-7.58-4.01-13.12,0-11.02,6.24-17.96,14.39-20.89,3.25-1.15,7.26-1.4,9.68-1.4,4.9,0,9.42.7,10,.7-.13,1.21-.13,2.67-.13,3.95,0,1.66.06,3.25.13,4.08h-1.34Z"/>
        <path class="cls-1" d="m311.08,729.89c-1.91,0-6.62.13-8.47.25v-1.15c1.53,0,2.48-.32,2.99-.76.38-.32.57-.83.57-1.4,0-.76-.32-1.85-.96-3.63l-3.06-8.79h-11.91l-3.25,8.85c-.64,1.78-1.02,2.8-1.02,3.63,0,.57.13,1.02.51,1.34.7.7,2.04.7,2.93.76v1.15c-2.23-.13-3.76-.25-6.05-.25-2.04,0-3.88.06-5.92.25v-1.15c1.78.06,2.74-1.27,3.12-1.85.51-.76,1.46-2.99,3.12-6.94l13.24-32.09,4.65-.83,11.46,32.35c1.59,4.39,2.74,7.13,2.99,7.58.38.57,1.21,1.85,2.99,1.78v1.15c-1.85-.13-6.11-.25-7.96-.25Zm-12.8-26.81c-1.4-4.01-1.72-5.73-1.72-5.73l-5.28,14.26h9.93l-2.93-8.53Z"/>
        <path class="cls-1" d="m364.69,729.12c-1.97.57-5.48,1.02-10.38,1.02-3.25,0-5.6-.19-8.47-.19-2.23,0-4.9.06-7.39.19v-1.15c.83,0,2.16-.32,3.12-1.4,1.08-1.21,1.15-2.99,1.15-8.47v-21.9c0-4.01-.19-5.41-.83-6.37-.51-.7-1.53-1.46-3.25-1.59v-1.15s2.42.19,7.07.19c2.04,0,5.86-.13,10.44-.13,5.73,0,23.3.51,23.3,19.8,0,14.96-8.85,19.48-14.77,21.14Zm-8.66-38.01c-3.37,0-4.52.19-4.52.19v32.54c0,1.85.19,2.8,1.53,3.18.64.19,1.66.19,3.06.19,9.68,0,13.82-5.09,13.82-18.34,0-16.17-8.41-17.76-13.88-17.76Z"/>
        <path class="cls-1" d="m414.86,730.02h-17.83c-3.57,0-7-.06-10.57.13v-1.15c.83,0,2.16-.32,3.12-1.4,1.08-1.21,1.15-2.99,1.15-8.47v-21.9c0-4.01-.19-5.41-.83-6.37-.51-.7-1.53-1.46-3.25-1.59v-1.15c3.5.19,6.24.19,9.81.19h18.21s-.06,5.28.19,8.21h-1.34c-.06-2.16-.96-3.63-2.16-4.33-1.4-.83-2.67-.96-6.62-.96h-5.22v15.6h5.35c2.29,0,4.01-.13,5.16-1.08.89-.7,1.53-1.91,1.66-3.76h1.34c0,1.4-.13,2.29-.13,6.3s.06,4.71.13,6.18h-1.34c-.13-1.66-.64-2.74-1.4-3.44-1.34-1.15-3.31-1.27-5.54-1.27h-5.22v14.07c0,2.87.51,3.25,3.95,3.25h1.08c3.5,0,6.05-.13,7.64-1.72.83-.83,1.46-2.36,1.53-4.27h1.34c-.25,2.93-.19,8.91-.19,8.91Z"/>
        <path class="cls-1" d="m60.36,761.15c-.51.76-1.46,2.99-3.12,6.94l-13.18,32.09-4.84.83-11.46-32.35c-1.59-4.39-2.74-7.13-2.99-7.58-.38-.57-1.21-1.85-2.99-1.78v-1.15c1.85.13,6.11.25,7.96.25s6.69-.13,8.53-.25v1.15c-1.53,0-2.48.32-2.99.76-.38.32-.57.83-.57,1.4,0,.76.32,1.85.96,3.63l6.94,19.99c1.34,3.88,1.78,5.73,1.78,5.73,0,0,.7-2.1,2.1-5.86l7.39-19.93c.64-1.78,1.02-2.8,1.02-3.63,0-.57-.13-1.02-.51-1.34-.7-.7-2.04-.7-2.93-.76v-1.15c2.23.13,3.82.25,6.11.25,2.04,0,3.88-.06,5.92-.25v1.15c-1.78-.06-2.74,1.27-3.12,1.85Z"/>
        <path class="cls-1" d="m92.96,799.92c-1.91,0-6.62.13-8.47.25v-1.15c1.53,0,2.48-.32,2.99-.76.38-.32.57-.83.57-1.4,0-.76-.32-1.85-.96-3.63l-3.06-8.79h-11.91l-3.25,8.85c-.64,1.78-1.02,2.8-1.02,3.63,0,.57.13,1.02.51,1.34.7.7,2.04.7,2.93.76v1.15c-2.23-.13-3.76-.25-6.05-.25-2.04,0-3.88.06-5.92.25v-1.15c1.78.06,2.74-1.27,3.12-1.85.51-.76,1.46-2.99,3.12-6.94l13.24-32.09,4.65-.83,11.46,32.35c1.59,4.39,2.74,7.13,2.99,7.58.38.57,1.21,1.85,2.99,1.78v1.15c-1.85-.13-6.11-.25-7.96-.25Zm-12.8-26.81c-1.4-4.01-1.72-5.73-1.72-5.73l-5.29,14.26h9.93l-2.93-8.53Z"/>
        <path class="cls-1" d="m133.07,800.05h-17.45c-3.57,0-7-.06-10.57.13v-1.15c.83,0,2.16-.32,3.12-1.4,1.08-1.21,1.15-2.99,1.15-8.47v-21.9c0-4.01-.19-5.41-.83-6.37-.51-.7-1.53-1.46-3.25-1.59v-1.15c2.48.13,7.07.25,9.3.25s6.94-.13,9.42-.25v1.21c-2.67.13-4.08.7-4.97,1.91-.96,1.27-.89,3.25-.89,8.21v24.39c0,2.87.51,3.25,3.95,3.25h1.08c3.5,0,5.67-.13,7.26-1.72.83-.83,1.46-2.36,1.53-4.27h1.34c-.25,2.93-.19,8.91-.19,8.91Z"/>
        <path class="cls-1" d="m159.04,781.65c-2.87,0-4.2-.51-4.2-.51v-1.27s.7.06,1.34.06c1.85,0,3.31-.45,4.52-1.34,2.04-1.53,3.12-4.46,3.12-8.47,0-9.17-5.35-9.42-8.6-9.42-1.08,0-2.67.19-2.67.19v28.02c0,4.97-.06,6.94.89,8.21.89,1.21,2.29,1.78,4.97,1.91v1.15c-2.48-.13-8.02-.25-10.25-.25s-5.79,0-8.53.25v-1.15c.83,0,2.16-.32,3.12-1.4,1.08-1.21,1.15-2.99,1.15-8.47v-21.9c0-4.01-.19-5.41-.83-6.37-.51-.7-1.53-1.46-3.25-1.59v-1.15c2.48.13,5.41.19,7.64.19,3.57,0,5.73-.13,9.61-.13,1.27,0,4.65.06,7.2.64,4.65,1.08,8.91,3.88,8.91,10.57,0,8.47-6.49,12.23-14.14,12.23Z"/>
        <path class="cls-1" d="m205.21,799.92c-1.91,0-6.62.13-8.47.25v-1.15c1.53,0,2.48-.32,2.99-.76.38-.32.57-.83.57-1.4,0-.76-.32-1.85-.96-3.63l-3.06-8.79h-11.91l-3.25,8.85c-.64,1.78-1.02,2.8-1.02,3.63,0,.57.13,1.02.51,1.34.7.7,2.04.7,2.93.76v1.15c-2.23-.13-3.76-.25-6.05-.25-2.04,0-3.88.06-5.92.25v-1.15c1.78.06,2.74-1.27,3.12-1.85.51-.76,1.46-2.99,3.12-6.94l13.24-32.09,4.65-.83,11.46,32.35c1.59,4.39,2.74,7.13,2.99,7.58.38.57,1.21,1.85,2.99,1.78v1.15c-1.85-.13-6.11-.25-7.96-.25Zm-12.8-26.81c-1.4-4.01-1.72-5.73-1.72-5.73l-5.29,14.26h9.93l-2.93-8.53Z"/>
        <path class="cls-1" d="m252.45,800.37c-6.62,0-8.21-2.67-10.44-5.41-1.4-1.78-6.18-7.96-9.3-12.54h-2.67v8.66c0,4.01.19,5.41.83,6.37.51.7,1.53,1.46,3.25,1.59v1.15c-2.48-.13-6.11-.25-8.34-.25s-5.99.13-8.47.25v-1.15c.83,0,2.16-.32,3.12-1.4,1.08-1.21,1.15-2.99,1.15-8.47v-21.9c0-4.01-.19-5.41-.83-6.37-.51-.7-1.53-1.46-3.25-1.59v-1.15c2.48.13,4.65.19,6.88.19,4.58,0,5.67-.19,9.74-.19,1.46,0,4.71,0,7.26.64,7.58,1.91,8.47,7.58,8.47,10.12,0,3.31-1.15,9.3-9.3,11.59,0,0,7.07,8.15,10.82,12.48,3.12,3.5,5.29,5.92,7.96,6.05v1.08s-1.46.25-6.88.25Zm-19.67-39.73c-1.34,0-2.74.19-2.74.19v18.85s1.46.13,2.99.13c.89,0,1.78-.06,2.48-.25.89-.25,5.09-1.02,5.09-9.68s-5.35-9.23-7.83-9.23Z"/>
        <path class="cls-1" d="m294.66,799.92c-1.91,0-6.62.13-8.47.25v-1.15c1.53,0,2.48-.32,2.99-.76.38-.32.57-.83.57-1.4,0-.76-.32-1.85-.96-3.63l-3.06-8.79h-11.91l-3.25,8.85c-.64,1.78-1.02,2.8-1.02,3.63,0,.57.13,1.02.51,1.34.7.7,2.04.7,2.93.76v1.15c-2.23-.13-3.76-.25-6.05-.25-2.04,0-3.88.06-5.92.25v-1.15c1.78.06,2.74-1.27,3.12-1.85.51-.76,1.46-2.99,3.12-6.94l13.24-32.09,4.65-.83,11.46,32.35c1.59,4.39,2.74,7.13,2.99,7.58.38.57,1.21,1.85,2.99,1.78v1.15c-1.85-.13-6.11-.25-7.96-.25Zm-12.8-26.81c-1.4-4.01-1.72-5.73-1.72-5.73l-5.29,14.26h9.93l-2.93-8.53Z"/>
        <path class="cls-1" d="m320.95,760.7c-1.08,1.21-1.15,2.99-1.15,8.47v21.9c0,4.01.19,5.41.83,6.37.51.7,1.53,1.46,3.25,1.59v1.15c-2.48-.13-6.37-.25-8.6-.25s-6.05.13-8.53.25v-1.15c.83,0,2.16-.32,3.12-1.4,1.08-1.21,1.15-2.99,1.15-8.47v-21.9c0-4.01-.19-5.41-.83-6.37-.51-.7-1.53-1.46-3.25-1.59v-1.15c2.48.13,6.37.25,8.6.25s6.05-.13,8.53-.25v1.15c-.83,0-2.16.32-3.12,1.4Zm2.99-10.44l-13.75,4.84-.76-1.15,8.91-8.72.45-.13,5.48,4.2-.32.96Z"/>
        <path class="cls-1" d="m341.39,800.43c-2.93,0-7.13-.38-10.06-1.34v-1.02c0-2.99-.13-5.09-.25-6.94h1.34c.25,1.91.89,3.57,2.23,4.58,1.72,1.4,4.2,1.72,6.43,1.72,8.21,0,8.34-5.41,8.34-6.69,0-4.14-2.67-5.67-6.18-7.83l-3.57-2.23c-4.58-2.87-7.58-5.67-7.58-11.72,0-3.18,1.53-11.14,14.77-11.14,5.73,0,9.81.7,9.81.7,0,0-.19,1.4-.19,3.44,0,3.57.13,4.58.13,4.58h-1.34c-.13-1.59-.76-2.8-1.72-3.76-1.66-1.66-4.46-2.04-6.49-2.04-6.56,0-7.32,3.76-7.32,5.92,0,3.31,1.91,4.9,5.35,6.94l4.08,2.42c5.16,3.06,8.28,5.79,8.28,12.23,0,8.53-6.75,12.16-16.05,12.16Z"/>
        <path class="cls-1" d="m386.02,800.69c-13.18,0-20.95-8.02-20.95-20.82s8.41-22.03,21.65-22.03,20.95,8.02,20.95,20.82-8.4,22.03-21.65,22.03Zm.38-40.05c-8.66,0-11.78,8.28-11.78,18.4s3.63,18.85,11.72,18.85c8.66,0,11.78-8.28,11.78-18.4s-3.63-18.85-11.72-18.85Z"/>
      </g>
      <polygon class="cls-1" points="213.73 51.59 213.73 59.59 204.73 59.59 204.73 64.59 213.73 64.59 213.73 80.59 218.73 80.59 218.73 64.59 227.73 64.59 227.73 59.59 218.73 59.59 218.73 51.59 213.73 51.59"/>
      <path class="cls-1" d="m61.02,296.19c0,86.24,69.54,156.07,155.41,156.07s155.42-69.84,155.42-156.07-70.07-156.07-155.42-156.07S61.02,209.95,61.02,296.19m4.21,2.4h101.65c.69,40,20.84,66.62,46.84,73.29v76.15c-82-1.06-147.43-67.44-148.49-149.44m150.99-49.48c9.48,3.17,21.5,5.29,45.5,3.7v43.38c0,38.62-19.16,66.13-45.5,71.95-26.34-5.82-45.5-33.33-45.5-71.95v-43.38c24,1.59,36.02-.53,45.5-3.7m2.5,198.92v-76.15c26-6.66,46-33.29,46.69-73.29h102.22c-1.05,82-67.91,148.38-148.91,149.44m148.91-154.44h-101.91v-44.48c-22,1.97-37-.2-47-3.5v-101.25c81,1.06,147.86,68.24,148.91,149.24m-153.91-149.24v101.25c-10,3.31-25,5.48-47,3.5v44.48h-101.49c1.05-82,66.49-148.18,148.49-149.24"/>
      <path class="cls-1" d="m244.89,81.92l-1.05,4.23c103.79,13.76,183.86,103.7,183.86,210.04,0,116.39-94.83,211.62-211.26,211.62S5.18,412.58,5.18,296.19c0-106.87,80.02-196.28,183.81-210.04l-1.05-4.23C82.57,95.15.44,187.21.44,296.19c0,119.57,96.94,216.91,216,216.91s216-97.35,216-216.91c0-108.99-82.18-201.04-187.55-214.27"/>
      <path class="cls-1" d="m287.79,79.83l-40.62-4.43-.53,3.33,36.88,5.54c1.07-1.11,3.21-3.33,4.28-4.43m-40.62-8.32l43.29,3.33c1.07-1.66,3.74-4.44,3.74-4.44l-3.74-2.77-43.29.55v3.33Zm-.53-8.87l.53,2.77,39.02-3.88s-3.21-4.43-4.28-5.54l-35.28,6.65Zm-1.6-6.1l1.07,3.33,32.07-9.42-2.67-5.54-30.47,11.64Zm-3.21-5.54l1.6,2.77,29.4-16.08c-.53-1.11-1.07-6.65-1.07-6.65l-29.93,19.96Zm-4.28-4.99l2.67,2.77,29.93-24.95v-6.65h-5.88l-26.72,28.83Zm-5.34-3.88l2.67,1.66,20.31-27.72-7.48-.55-15.5,26.61Zm-4.81-3.33l2.67,1.66,11.22-26.06-5.88-2.22-8.02,26.61Zm-6.41-1.11l3.21.55,6.41-28.83-3.74-2.77-5.88,31.04Zm-75.36,42.13c1.07,1.11,3.21,3.33,4.28,4.43l36.88-5.54-.53-3.33-40.62,4.43Zm40.62-8.32v-3.33l-43.29-.55-3.74,2.77s2.67,2.77,3.74,4.44l43.29-3.33Zm.53-8.87l-35.28-6.65c-1.07,1.11-4.28,5.54-4.28,5.54l39.02,3.88.53-2.77Zm1.6-6.1l-30.47-11.64-2.67,5.54,32.07,9.42,1.07-3.33Zm3.21-5.54l-29.93-19.96s-.54,5.54-1.07,6.65l29.4,16.08,1.6-2.77Zm4.28-4.99l-26.72-28.83h-5.88v6.65l29.93,24.95,2.67-2.77Zm5.35-3.88l-15.5-26.61-7.48.55,20.31,27.72,2.67-1.66Zm4.81-3.33l-8.02-26.61-5.88,2.22,11.22,26.06,2.67-1.66Zm6.41-1.11l-5.88-31.04s-3.21,2.22-3.74,2.77l6.41,28.83,3.21-.55Zm5.88-.55l2.67-34.37c-2.14-.55-4.28-2.77-4.28-2.77,0,0-2.14,2.22-4.28,2.77l2.67,34.37h3.21Z"/>
      <path class="cls-1" d="m80.69,439.07c-1.11-.6-2.82-1.92-4.96-4.03-1.41-1.4-2.36-2.5-3.6-3.73-.97-.96-2.16-2.09-3.3-3.1l.49-.5c.36.36,1.08.79,1.96.74.99-.06,1.79-.81,4.15-3.19l9.44-9.53c1.73-1.74,2.25-2.44,2.39-3.13.08-.52-.03-1.3-.73-2.09l.49-.5s.97,1.13,2.99,3.13c.89.88,2.6,2.47,4.6,4.45,2.49,2.47,9.92,10.27,1.6,18.66-6.45,6.51-12.25,4.66-15.54,2.83m12.62-20.27c-1.47-1.46-2.05-1.87-2.05-1.87l-14.03,14.16c-.8.8-1.12,1.3-.71,2.04.2.36.64.8,1.25,1.4,4.21,4.17,8.21,3.74,13.92-2.02,6.97-7.04,4-11.35,1.62-13.72"/>
      <path class="cls-1" d="m106.95,461.05l-8.81-6.45c-1.76-1.29-3.44-2.57-5.27-3.76l.42-.57c.41.3,1.18.63,2.05.44.97-.21,1.65-1.06,3.63-3.77l7.93-10.82c1.45-1.98,1.86-2.74,1.9-3.45,0-.53-.22-1.28-1.03-1.96l.41-.57c1.66,1.36,3.01,2.35,4.78,3.65l9,6.59s-1.95,2.59-2.88,4.13l-.66-.49c.75-1.09.84-2.14.5-2.92-.39-.92-.98-1.44-2.93-2.87l-2.58-1.89-5.65,7.71,2.64,1.94c1.13.83,2.03,1.39,2.94,1.33.69-.02,1.45-.39,2.18-1.26l.66.48c-.51.69-.89,1.09-2.35,3.07-1.43,1.95-1.67,2.35-2.17,3.1l-.66-.48c.54-.86.68-1.58.55-2.21-.25-1.05-1.17-1.83-2.28-2.64l-2.58-1.89-5.1,6.95c-1.04,1.41-.93,1.79.77,3.03l.53.39c1.73,1.27,3.04,2.13,4.4,1.92.71-.11,1.58-.63,2.3-1.55l.66.48c-1.19,1.36-3.32,4.33-3.32,4.33"/>
      <path class="cls-1" d="m153.7,458.96c-.48.29-1.59,1.28-3.53,3.04l-15.64,14.38-2.9-.8,2.04-20.92c.26-2.85.33-4.67.31-4.98-.06-.42-.19-1.34-1.2-1.76l.3-.64c.99.55,3.33,1.73,4.35,2.21,1.06.5,3.74,1.66,4.8,2.07l-.3.64c-.85-.4-1.46-.47-1.86-.35-.29.08-.53.31-.68.63-.2.42-.3,1.11-.41,2.26l-1.34,12.89c-.27,2.5-.5,3.64-.5,3.64,0,0,.93-.98,2.69-2.7l9.27-9.14c.82-.82,1.29-1.29,1.51-1.75.15-.32.19-.6.06-.87-.21-.57-.95-.92-1.43-1.18l.3-.64c1.2.65,2.05,1.13,3.32,1.73,1.13.53,2.17.97,3.35,1.4l-.3.64c-.97-.5-1.85,0-2.21.21"/>
      <path class="cls-1" d="m165.93,487.66c-1.12-.34-3.9-1.11-5-1.37l.21-.67c.89.27,1.51.26,1.89.09.28-.12.48-.38.59-.72.14-.45.15-1.14.09-2.3l-.21-5.69-6.97-2.14-3.49,4.6c-.69.93-1.1,1.46-1.25,1.94-.1.34-.11.62.06.87.29.54,1.07.78,1.58.97l-.21.67c-1.28-.48-2.15-.82-3.5-1.23-1.19-.37-2.29-.66-3.51-.92l.21-.67c1.03.36,1.83-.25,2.16-.52.44-.36,1.39-1.49,3.07-3.5l13.52-16.41,2.87.35.9,20.99c.14,2.86.32,4.67.39,4.97.12.4.38,1.3,1.43,1.58l-.21.67c-1.06-.4-3.53-1.25-4.61-1.58m-2.68-17.99c-.1-2.6.02-3.66.02-3.66l-5.66,7.4,5.82,1.79-.18-5.52Z"/>
      <path class="cls-1" d="m193.34,493.04l-10.55-1.72c-2.15-.35-4.23-.73-6.4-.97l.11-.69c.5.08,1.34.02,2.02-.54.77-.62.99-1.7,1.53-5.01l2.17-13.24c.4-2.42.42-3.29.13-3.93-.24-.47-.78-1.04-1.81-1.28l.11-.69c1.49.32,4.25.85,5.59,1.07,1.35.22,4.21.61,5.72.78l-.12.73c-1.63-.19-2.53.02-3.19.66-.7.68-.86,1.88-1.35,4.88l-2.41,14.74c-.28,1.73-.01,2.01,2.07,2.35l.65.11c2.12.35,3.44.48,4.56-.32.58-.42,1.12-1.28,1.35-2.43l.81.13c-.44,1.74-1,5.37-1,5.37"/>
      <path class="cls-1" d="m212.88,482.91c-1.76-.05-2.56-.39-2.56-.39l.02-.78s.43.05.82.06c1.13.04,2.04-.21,2.79-.73,1.28-.9,1.99-2.67,2.07-5.13.17-5.62-3.1-5.87-5.09-5.93-.66-.02-1.64.07-1.64.07l-.53,17.15c-.09,3.04-.17,4.25.39,5.05.52.76,1.37,1.14,3.01,1.26l-.02.7c-1.52-.12-4.91-.31-6.27-.35-1.36-.04-3.55-.11-5.23,0l.02-.7c.51.02,1.33-.15,1.94-.8.68-.72.76-1.81.86-5.16l.41-13.41c.08-2.46-.01-3.32-.39-3.91-.3-.44-.91-.93-1.96-1.04l.02-.7c1.52.12,3.31.22,4.68.26,2.18.07,3.51.03,5.89.1.78.02,2.85.13,4.39.52,2.83.75,5.39,2.55,5.26,6.64-.16,5.18-4.21,7.36-8.89,7.22"/>
      <path class="cls-1" d="m243.94,492.39c-1.16.12-4.03.48-5.14.67l-.07-.7c.93-.09,1.49-.35,1.78-.65.21-.22.3-.54.26-.89-.05-.47-.31-1.11-.8-2.15l-2.4-5.17-7.26.73-1.44,5.59c-.28,1.12-.45,1.77-.4,2.27.04.35.14.61.39.78.47.38,1.29.3,1.83.29l.07.7c-1.37.06-2.3.08-3.7.21-1.24.12-2.36.28-3.59.52l-.07-.7c1.09-.07,1.59-.94,1.79-1.32.26-.5.71-1.91,1.48-4.42l6.11-20.37,2.78-.79,8.97,19.02c1.24,2.58,2.1,4.18,2.29,4.43.27.33.85,1.05,1.93.9l.07.7c-1.13.04-3.74.22-4.87.33m-9.44-15.56c-1.1-2.36-1.4-3.39-1.4-3.39l-2.35,9.02,6.05-.61-2.31-5.02Z"/>
      <path class="cls-1" d="m275.81,485.66c-3.93,1.01-5.28-.33-7.02-1.61-1.1-.84-4.88-3.77-7.43-6.02l-1.59.41,1.33,5.14c.61,2.38.94,3.18,1.46,3.65.41.34,1.13.64,2.17.45l.17.68c-1.49.3-3.66.78-4.99,1.12-1.32.34-3.53.99-4.98,1.45l-.18-.68c.49-.13,1.24-.52,1.64-1.31.46-.88.22-1.95-.62-5.2l-3.35-12.99c-.61-2.38-.94-3.18-1.46-3.65-.41-.34-1.13-.63-2.17-.45l-.17-.68c1.49-.3,2.79-.6,4.11-.94,2.72-.7,3.33-.98,5.75-1.6.87-.22,2.79-.72,4.4-.73,4.79-.03,6.18,3.2,6.57,4.71.51,1.96.74,5.69-3.74,8.3,0,0,5.44,3.75,8.33,5.74,2.39,1.6,4.04,2.7,5.64,2.37l.17.64s-.83.38-4.04,1.2m-17.75-20.55c-.79.2-1.6.53-1.6.53l2.88,11.18s.89-.15,1.79-.38c.53-.14,1.05-.31,1.43-.53.49-.29,2.87-1.38,1.54-6.52-1.37-5.32-4.58-4.66-6.06-4.28"/>
      <path class="cls-1" d="m303.29,474.34c-1.07.47-3.68,1.71-4.68,2.24l-.28-.64c.85-.38,1.31-.79,1.49-1.17.13-.27.11-.61-.03-.93-.19-.43-.64-.96-1.43-1.8l-3.89-4.16-6.67,2.95.38,5.76c.08,1.16.12,1.82.33,2.29.14.32.32.54.62.62.57.22,1.32-.11,1.83-.3l.28.64c-1.28.48-2.17.79-3.45,1.36-1.14.5-2.16,1-3.26,1.61l-.28-.64c1.01-.41,1.22-1.39,1.29-1.81.1-.55.08-2.04.03-4.66l-.53-21.26,2.4-1.62,14.44,15.28c1.98,2.07,3.3,3.32,3.55,3.5.36.23,1.13.74,2.12.26l.28.64c-1.07.39-3.49,1.37-4.52,1.83m-13.81-11.85c-1.78-1.9-2.38-2.78-2.38-2.78l.57,9.3,5.57-2.46-3.75-4.05Z"/>
      <path class="cls-1" d="m306.12,437.9l-5.74,6.84-.76-.36,1.98-7.38.2-.21,4.2.51.13.6Zm1.68,6.44c-.19.98.33,1.94,2.04,4.82l6.83,11.55c1.25,2.12,1.79,2.79,2.42,3.1.49.21,1.26.3,2.21-.17l.36.6c-1.35.71-3.43,1.85-4.61,2.55-1.17.69-3.15,1.95-4.42,2.79l-.36-.6c.44-.26,1.04-.84,1.21-1.71.19-.98-.33-1.94-2.04-4.82l-6.83-11.55c-1.25-2.12-1.79-2.79-2.42-3.1-.49-.21-1.26-.29-2.21.17l-.36-.61c1.35-.71,3.44-1.85,4.61-2.55,1.18-.7,3.15-1.95,4.42-2.8l.36.6c-.44.26-1.04.84-1.21,1.71"/>
      <path class="cls-1" d="m332.99,456.67c-1.44,1.07-3.64,2.42-5.43,3.02l-.37-.5c-1.09-1.47-1.92-2.46-2.66-3.32l.66-.49c.82.85,1.74,1.43,2.77,1.44,1.36.06,2.69-.69,3.79-1.51,4.04-3,2.12-5.71,1.65-6.34-1.51-2.03-3.39-1.81-5.9-1.59l-2.57.21c-3.3.27-5.79-.01-8.01-2.99-1.16-1.56-3.33-6.03,3.18-10.88,2.82-2.1,5.07-3.24,5.07-3.24,0,0,.42.76,1.16,1.76,1.3,1.75,1.74,2.21,1.74,2.21l-.66.49c-.64-.74-1.4-1.1-2.22-1.22-1.42-.21-2.93.63-3.94,1.37-3.22,2.4-2.22,4.52-1.43,5.59,1.21,1.63,2.73,1.71,5.17,1.45l2.89-.3c3.65-.38,6.19-.18,8.54,2.98,3.12,4.19,1.13,8.44-3.44,11.84"/>
      <path class="cls-1" d="m356.58,436.68c-5.7,5.72-12.54,5.62-18.09.08-5.75-5.73-5.92-13.17-.19-18.92,5.7-5.72,12.54-5.62,18.09-.08,5.74,5.73,5.92,13.17.19,18.92m-17.21-17.49c-3.75,3.76-1.5,8.69,2.89,13.07,4.59,4.57,9.74,6.58,13.24,3.07,3.74-3.76,1.5-8.69-2.89-13.07-4.58-4.57-9.74-6.58-13.24-3.07"/>
      <path class="cls-1" d="m45.53,362.91c.66,1.62.68,2.5.68,2.5l-.72.29s-.12-.41-.27-.77c-.43-1.05-1.02-1.78-1.8-2.26-1.34-.8-3.25-.74-5.52.18-5.2,2.11-4.12,5.2-3.37,7.05.25.61.72,1.48.72,1.48l15.9-6.45c2.82-1.14,3.95-1.56,4.46-2.4.48-.78.48-1.71-.06-3.26l.65-.26c.5,1.44,1.7,4.61,2.22,5.88.51,1.26,1.33,3.29,2.11,4.78l-.65.26c-.19-.47-.68-1.16-1.51-1.45-.93-.34-1.96.04-5.07,1.3l-12.43,5.04c-2.28.92-3.03,1.35-3.42,1.94-.28.45-.48,1.2-.15,2.21l-.65.26c-.5-1.44-1.14-3.12-1.65-4.38-.82-2.02-1.39-3.22-2.28-5.43-.29-.72-1.03-2.65-1.3-4.23-.46-2.89.15-5.95,3.95-7.49,4.81-1.95,8.43.87,10.19,5.21"/>
      <path class="cls-1" d="m48.94,334.75c1.83,7.86-1.87,13.61-9.5,15.39-7.9,1.84-14.31-1.95-16.15-9.85-1.83-7.86,1.87-13.61,9.51-15.39,7.9-1.84,14.31,1.95,16.15,9.85m-23.94,5.34c1.2,5.17,6.57,5.88,12.61,4.47,6.3-1.47,10.74-4.79,9.61-9.61-1.21-5.17-6.58-5.88-12.62-4.47-6.3,1.47-10.74,4.79-9.61,9.61"/>
      <path class="cls-1" d="m19.6,295.17c.78.62,1.87.6,5.22.42l19.08-1.05.12,2.18-18.89,15.92c-.82.71-1.43,1.02-1.43,1.02l15.5-.85c2.45-.14,3.3-.3,3.87-.72.41-.34.85-.98.87-2.04l.7-.04c0,1.52-.03,2.31.04,3.67.07,1.36.12,2.22.37,3.89l-.7.04c-.03-.51-.27-1.31-.96-1.86-.78-.62-1.87-.6-5.22-.42l-13.4.73c-2.45.13-3.3.3-3.87.72-.41.34-.85.98-.86,2.04l-.7.04c0-1.52-.02-3.16-.09-4.53-.03-.58-.21-2.33-.34-3.38l14.41-12.12c1.27-1.05,1.84-1.35,1.84-1.35l-11.37.62c-2.46.13-3.3.3-3.87.72-.41.34-.84.98-.86,2.04l-.7.04c0-1.52.02-2.46-.05-3.83-.07-1.36-.11-2.06-.36-3.73l.7-.04c.03.51.27,1.31.96,1.86"/>
      <path class="cls-1" d="m25.28,268.03c-1.32-.09-2.27.37-2.77,1.07-.59.81-.74,1.58-.96,3.98l-.14,1.44,18.13,1.72c2.45.23,3.31.2,3.89-.14.99-.53,1.24-2.27,1.27-2.66l.74.07c-.22,1.51-.59,4.61-.72,5.96-.13,1.36-.35,4.51-.41,6.03l-.7-.07c.03-.31.07-1.95-.68-2.77-.67-.73-1.68-.87-5.02-1.18l-17.01-1.61-.14,1.44c-.23,2.41-.23,3.19.2,4.09.36.78,1.2,1.41,2.51,1.57l-.08.82c-1.77-.32-5-.59-5-.59l1.93-20.34s3.22.34,5.02.36l-.08.81Z"/>
      <path class="cls-1" d="m24.62,253.01c.59.8,1.65,1.06,4.94,1.73l13.14,2.7c2.41.49,3.27.55,3.92.29.48-.22,1.07-.74,1.36-1.75l.69.14c-.38,1.47-.94,3.79-1.21,5.12-.27,1.34-.67,3.64-.9,5.15l-.69-.14c.1-.5.08-1.34-.46-2.04-.59-.8-1.65-1.06-4.94-1.73l-13.14-2.7c-2.41-.49-3.27-.55-3.92-.29-.48.22-1.07.74-1.35,1.75l-.69-.14c.38-1.47.94-3.79,1.21-5.12.27-1.34.67-3.65.9-5.15l.69.14c-.1.5-.08,1.34.46,2.04"/>
      <path class="cls-1" d="m35.18,229.29c-1.27-.37-2.3-.12-2.93.46-.74.66-1.05,1.38-1.79,3.69l-.97,3.05,9.1,2.91,1-3.12c.43-1.34.67-2.36.33-3.21-.24-.65-.83-1.25-1.88-1.67l.25-.78c.82.26,1.31.5,3.65,1.25,2.3.74,2.76.84,3.63,1.08l-.25.78c-.99-.23-1.72-.14-2.27.18-.92.57-1.36,1.69-1.78,2.99l-.97,3.05,6.61,2.11c2.34.75,3.12.88,3.76.67,1.08-.31,1.69-1.96,1.81-2.33l.71.23c-.54,1.42-1.59,4.32-2,5.62-.67,2.08-.88,3-1.43,5.11l-.67-.21c.15-.48.22-1.32-.24-2.08-.5-.86-1.53-1.23-4.73-2.25l-12.78-4.09c-2.34-.75-3.19-.9-3.87-.71-.5.17-1.14.62-1.53,1.6l-.67-.21c.77-2.01,1.28-3.6,1.94-5.69l3.4-10.62s3.07,1.02,4.83,1.42l-.25.78Z"/>
      <path class="cls-1" d="m38.05,213.39c.41.91,1.39,1.38,4.46,2.74l12.27,5.42c2.25.99,3.08,1.23,3.77,1.11.52-.11,1.2-.49,1.7-1.42l.64.28c-.69,1.36-1.72,3.5-2.27,4.75-.55,1.25-1.43,3.42-1.97,4.84l-.64-.28c.21-.46.36-1.29-.01-2.09-.41-.91-1.39-1.38-4.46-2.74l-12.27-5.42c-2.25-.99-3.08-1.23-3.77-1.11-.52.11-1.2.49-1.7,1.43l-.64-.28c.69-1.36,1.72-3.51,2.27-4.75.55-1.25,1.43-3.42,1.97-4.84l.64.28c-.2.46-.36,1.29.01,2.09"/>
      <path class="cls-1" d="m55.3,189.36c-.87-.52-1.73-.52-2.48-.24-1.52.51-2.72,2.15-3.34,3.19-1.75,2.95-3.79,7.86,5.34,13.26,5.61,3.32,10.63,3.7,13.98-1.97.71-1.21,1.5-2.92.96-4.46-.21-.71-.73-1.38-1.63-1.91l.42-.71c.93.64,1.93,1.33,3.51,2.26l.57.34c-.39,1.81-1.58,4.36-2.62,6.11-2.5,4.23-5.79,7.04-9.61,7.59-2.47.35-5.24-.25-8.16-1.97-5.81-3.43-7.52-8.88-6.52-14.09.41-2.07,1.52-4.26,2.28-5.54,1.53-2.58,3.31-4.75,3.48-5.05.6.44,1.37.9,2.04,1.3.87.52,1.73.98,2.19,1.2l-.42.7Z"/>
      <path class="cls-1" d="m62.39,173.79c.19.98,1.03,1.67,3.7,3.71l10.66,8.14c1.95,1.49,2.71,1.92,3.41,1.96.53.01,1.28-.2,1.98-.99l.56.43c-.99,1.16-2.49,3.01-3.32,4.09-.83,1.09-2.19,2.99-3.05,4.25l-.56-.43c.31-.4.65-1.17.48-2.04-.19-.98-1.03-1.67-3.7-3.71l-10.66-8.14c-1.95-1.49-2.71-1.92-3.41-1.96-.53-.01-1.28.2-1.98.99l-.56-.43c.99-1.16,2.49-3.01,3.32-4.09.83-1.08,2.19-2.99,3.05-4.25l.56.43c-.31.4-.65,1.17-.48,2.04"/>
      <path class="cls-1" d="m97.93,170.28c-.81.84-2.77,2.96-3.5,3.83l-.5-.49c.65-.67.92-1.23.94-1.64.02-.3-.12-.61-.37-.85-.34-.33-.95-.65-2-1.13l-5.16-2.41-5.08,5.23,2.5,5.2c.51,1.04.8,1.64,1.16,2,.25.24.5.38.8.35.61,0,1.18-.6,1.59-.96l.5.49c-1.01.92-1.71,1.54-2.69,2.55-.87.9-1.63,1.73-2.41,2.71l-.5-.49c.79-.76.61-1.74.52-2.16-.12-.55-.69-1.92-1.72-4.33l-8.44-19.51,1.62-2.4,19.1,8.77c2.61,1.18,4.3,1.84,4.61,1.92.41.08,1.33.26,2.06-.55l.5.49c-.84.76-2.72,2.58-3.51,3.39m-17.24-5.82c-2.36-1.1-3.25-1.69-3.25-1.69l4.01,8.41,4.24-4.36-5-2.35Z"/>
      <path class="cls-1" d="m117.81,125.52c-.15.98.42,1.92,2.26,4.72l4.35,6.62c1.6,2.45,2.57,4.05,2.91,5.65,1.08,4.84-2.95,7.95-5.59,9.68-5.51,3.61-8.65,2.88-10.91,1.28-1.69-1.22-3.04-3.42-4.15-5.11l-4.92-7.5c-1.35-2.05-1.92-2.71-2.56-2.98-.5-.19-1.28-.23-2.2.28l-.39-.59c1.31-.77,3.35-2.01,4.49-2.76,1.14-.75,3.06-2.1,4.28-3l.39.59c-.42.28-1,.89-1.13,1.77-.15.98.42,1.92,2.26,4.72l5.69,8.67c1.93,2.93,4.15,5.82,8.91,2.69,4.89-3.21,2.77-6.72,1.08-9.29l-6.31-9.62c-1.35-2.05-1.92-2.71-2.56-2.98-.5-.19-1.28-.24-2.2.28l-.38-.59c1.31-.77,2.46-1.43,3.61-2.18,1.14-.75,2.57-1.78,3.83-2.7l.38.59c-.42.28-1,.89-1.13,1.77"/>
      <path class="cls-1" d="m148.06,111.35c-.31.94.09,1.96,1.42,5.04l7.62,17.52-2,.87-21.49-12.17c-.95-.52-1.45-.99-1.45-.99l6.19,14.23c.98,2.25,1.43,2.99,2.02,3.37.46.27,1.22.45,2.21.1l.28.65c-1.43.53-2.17.77-3.42,1.32-1.25.54-2.04.89-3.51,1.7l-.28-.64c.46-.2,1.14-.71,1.41-1.55.31-.94-.09-1.96-1.42-5.04l-5.35-12.3c-.98-2.25-1.43-2.99-2.02-3.37-.46-.27-1.22-.45-2.21-.1l-.28-.64c1.43-.53,2.96-1.12,4.21-1.66.54-.23,2.11-1,3.05-1.5l16.37,9.29c1.42.83,1.91,1.26,1.91,1.26l-4.54-10.44c-.98-2.25-1.43-2.99-2.02-3.37-.46-.27-1.22-.45-2.21-.1l-.28-.64c1.43-.54,2.32-.84,3.57-1.38,1.25-.54,1.9-.82,3.37-1.64l.28.64c-.47.2-1.14.71-1.41,1.55"/>
      <path class="cls-1" d="m165.07,106.22c-.43.9-.17,1.96.77,5.18l3.73,12.89c.68,2.36,1.03,3.15,1.57,3.61.42.33,1.15.6,2.18.38l.2.67c-1.48.35-3.79.93-5.1,1.31-1.31.38-3.54,1.1-4.98,1.6l-.2-.67c.49-.14,1.22-.56,1.6-1.35.43-.9.17-1.96-.77-5.18l-3.73-12.89c-.68-2.36-1.03-3.15-1.57-3.61-.42-.33-1.15-.6-2.18-.38l-.2-.67c1.48-.35,3.79-.93,5.1-1.31,1.31-.38,3.54-1.1,4.98-1.6l.2.68c-.49.14-1.22.55-1.6,1.35"/>
      <path class="cls-1" d="m195.65,100.45c-.23.51-.59,1.96-1.19,4.51l-4.75,20.71-2.84.98-10.16-18.4c-1.4-2.49-2.37-4.04-2.57-4.28-.29-.31-.92-.99-1.99-.78l-.11-.69c1.13-.11,3.72-.46,4.84-.64,1.15-.19,4.03-.75,5.13-1.01l.11.69c-.92.15-1.47.44-1.73.76-.2.23-.26.56-.21.9.08.46.38,1.08.94,2.1l6.2,11.39c1.2,2.21,1.65,3.28,1.65,3.28,0,0,.21-1.34.68-3.75l2.47-12.78c.21-1.14.33-1.79.25-2.29-.06-.35-.18-.6-.44-.76-.49-.35-1.3-.22-1.85-.17l-.11-.69c1.36-.15,2.33-.23,3.72-.46,1.23-.2,2.34-.43,3.55-.75l.11.69c-1.08.14-1.53,1.04-1.7,1.43"/>
      <path class="cls-1" d="m220.52,123.36l-10.92.27c-2.18.05-4.29.07-6.47.23l-.02-.7c.51-.01,1.32-.23,1.89-.9.65-.76.66-1.85.58-5.2l-.32-13.41c-.06-2.46-.2-3.31-.6-3.89-.32-.42-.96-.88-2.01-.93l-.02-.7c2.15.07,3.83.02,6.01-.03l11.15-.27s.04,3.24.24,5.03l-.82.02c-.07-1.32-.64-2.21-1.39-2.62-.87-.49-1.65-.55-4.07-.49l-3.2.08.23,9.55,3.27-.08c1.4-.03,2.45-.14,3.14-.74.54-.44.91-1.19.96-2.32l.82-.02c.02.86-.04,1.4.02,3.86.06,2.42.11,2.89.17,3.78l-.82.02c-.1-1.01-.43-1.67-.91-2.09-.84-.68-2.05-.73-3.41-.7l-3.2.08.21,8.62c.04,1.76.36,1.98,2.47,1.93l.66-.02c2.14-.05,3.7-.17,4.65-1.17.49-.52.86-1.46.87-2.63l.82-.02c-.11,1.8.02,5.46.02,5.46"/>
      <path class="cls-1" d="m247.12,126.23c-4.02-.5-4.79-2.25-5.94-4.08-.72-1.19-3.15-5.3-4.7-8.33l-1.62-.2-.65,5.26c-.3,2.44-.29,3.3.02,3.93.26.46.82,1.01,1.85,1.21l-.09.7c-1.5-.26-3.7-.62-5.05-.78-1.35-.17-3.65-.38-5.17-.49l.09-.7c.5.06,1.34-.03,2-.62.75-.65.92-1.73,1.34-5.06l1.65-13.31c.3-2.44.29-3.3-.02-3.93-.26-.47-.82-1.01-1.85-1.21l.09-.7c1.5.26,2.81.47,4.17.64,2.79.34,3.46.31,5.94.62.89.11,2.86.36,4.36.93,4.46,1.73,4.57,5.24,4.38,6.79-.25,2.01-1.4,5.56-6.53,6.34,0,0,3.68,5.49,5.64,8.4,1.63,2.37,2.76,4,4.38,4.28l-.08.66s-.91.04-4.2-.36m-8.96-25.64c-.81-.1-1.68-.09-1.68-.09l-1.42,11.45s.88.19,1.81.3c.54.07,1.09.1,1.53.03.56-.09,3.17-.24,3.83-5.5.68-5.46-2.55-6.02-4.06-6.2"/>
      <path class="cls-1" d="m259.46,129.28c-1.73-.47-4.15-1.38-5.73-2.41l.16-.6c.48-1.77.74-3.03.97-4.14l.79.22c-.16,1.17-.05,2.25.58,3.07.79,1.1,2.21,1.69,3.52,2.05,4.85,1.32,5.8-1.85,6.01-2.61.67-2.45-.67-3.78-2.39-5.62l-1.75-1.89c-2.25-2.43-3.56-4.57-2.59-8.15.51-1.88,2.7-6.34,10.53-4.21,3.39.92,5.68,1.99,5.68,1.99,0,0-.34.8-.67,2-.57,2.11-.66,2.73-.66,2.73l-.79-.22c.18-.96,0-1.78-.41-2.5-.71-1.24-2.31-1.92-3.51-2.25-3.88-1.06-4.93,1.04-5.28,2.32-.53,1.96.34,3.2,2.04,4.96l2.02,2.09c2.55,2.64,3.96,4.76,2.92,8.56-1.38,5.04-5.95,6.1-11.44,4.6"/>
      <path class="cls-1" d="m290.75,114.11c-.89.45-1.32,1.45-2.54,4.58l-4.88,12.5c-.89,2.29-1.1,3.13-.95,3.82.13.51.55,1.18,1.5,1.63l-.26.65c-1.39-.63-3.58-1.57-4.85-2.06-1.27-.5-3.48-1.28-4.92-1.76l.25-.65c.47.18,1.31.3,2.09-.1.89-.45,1.32-1.45,2.54-4.58l4.88-12.5c.89-2.29,1.1-3.13.95-3.82-.13-.51-.55-1.18-1.5-1.63l.26-.65c1.39.63,3.58,1.56,4.85,2.06,1.27.5,3.48,1.28,4.93,1.76l-.26.65c-.47-.18-1.31-.3-2.09.1"/>
      <path class="cls-1" d="m302.52,146.06c-1.23-.27-3.24-1.07-5.87-2.51-1.74-.96-2.95-1.76-4.49-2.6-1.2-.66-2.65-1.41-4.02-2.08l.34-.61c.45.24,1.26.47,2.09.17.94-.33,1.5-1.27,3.11-4.21l6.46-11.76c1.18-2.15,1.49-2.96,1.43-3.66-.07-.53-.39-1.24-1.27-1.81l.34-.62s1.24.82,3.74,2.19c1.09.6,3.18,1.66,5.64,3.01,3.08,1.69,12.36,7.15,6.67,17.51-4.41,8.03-10.5,7.85-14.17,6.99m6.56-22.96c-1.81-1-2.48-1.23-2.48-1.23l-9.6,17.47c-.54.99-.72,1.56-.12,2.16.29.29.83.59,1.59,1.01,5.2,2.85,8.92,1.34,12.83-5.77,4.77-8.68.73-12.02-2.21-13.63"/>
      <path class="cls-1" d="m327.69,164.16c-.92-.72-3.25-2.42-4.2-3.05l.43-.56c.74.57,1.32.78,1.74.75.3-.01.59-.19.8-.46.29-.37.54-1.01.9-2.12l1.82-5.4-5.76-4.47-4.89,3.07c-.98.62-1.54.97-1.85,1.38-.21.28-.32.54-.26.84.08.6.72,1.1,1.13,1.47l-.43.55c-1.03-.9-1.72-1.53-2.83-2.39-.99-.76-1.9-1.43-2.96-2.1l.43-.55c.84.7,1.8.41,2.2.28.53-.18,1.83-.9,4.11-2.19l18.45-10.57,2.56,1.34-6.58,19.96c-.88,2.72-1.35,4.48-1.39,4.79-.03.42-.11,1.35.78,1.99l-.43.55c-.85-.75-2.86-2.42-3.76-3.11m3.86-17.78c.83-2.47,1.32-3.42,1.32-3.42l-7.91,4.92,4.81,3.73,1.78-5.23Z"/>
      <path class="cls-1" d="m344.92,180.4c-1.08-.64-2.75-2.02-4.8-4.22-1.36-1.45-2.26-2.59-3.46-3.87-.93-1-2.08-2.17-3.18-3.23l.51-.48c.35.37,1.05.83,1.93.81.99-.02,1.82-.74,4.27-3.03l9.8-9.16c1.79-1.68,2.34-2.35,2.5-3.03.1-.52.02-1.3-.65-2.12l.51-.48s.93,1.16,2.87,3.24c.85.91,2.51,2.57,4.43,4.62,2.4,2.56,9.52,10.64.89,18.71-6.7,6.26-12.42,4.19-15.64,2.23m13.39-19.78c-1.41-1.51-1.98-1.94-1.98-1.94l-14.56,13.61c-.83.77-1.17,1.26-.79,2.02.18.36.61.82,1.19,1.45,4.05,4.33,8.06,4.05,13.99-1.49,7.24-6.77,4.43-11.19,2.14-13.64"/>
      <path class="cls-1" d="m387.13,206.11c.87-.51,1.29-1.26,1.41-2.06.29-1.58-.57-3.42-1.18-4.47-1.74-2.96-5.05-7.12-14.19-1.73-5.61,3.31-8.38,7.52-5.04,13.2.71,1.21,1.83,2.73,3.44,3,.73.16,1.56.03,2.47-.5l.42.71c-1.01.5-2.1,1.05-3.68,1.98l-.57.34c-1.4-1.22-3.06-3.5-4.09-5.24-2.49-4.24-3.36-8.48-2-12.08.89-2.33,2.75-4.47,5.68-6.2,5.81-3.42,11.42-2.29,15.5,1.1,1.62,1.36,3,3.4,3.75,4.67,1.52,2.59,2.56,5.19,2.74,5.49-.68.31-1.45.76-2.12,1.16-.87.52-1.69,1.04-2.11,1.34l-.42-.71Z"/>
      <path class="cls-1" d="m378.65,237.84c-.44-1.09-1.59-3.73-2.09-4.75l.65-.26c.35.87.75,1.34,1.12,1.52.27.14.6.13.93,0,.43-.18.98-.61,1.84-1.38l4.29-3.75-2.73-6.76-5.77.19c-1.16.05-1.82.07-2.29.25-.33.13-.55.31-.64.6-.24.56.07,1.32.24,1.84l-.65.26c-.44-1.29-.72-2.19-1.24-3.49-.47-1.16-.93-2.19-1.5-3.3l.65-.26c.37,1.03,1.35,1.26,1.76,1.35.55.11,2.04.14,4.66.18l21.26.15,1.54,2.45-15.73,13.93c-2.13,1.91-3.42,3.19-3.61,3.44-.24.35-.77,1.11-.32,2.11l-.65.26c-.35-1.08-1.26-3.53-1.68-4.58m12.28-13.42c1.96-1.72,2.86-2.29,2.86-2.29l-9.31.27,2.28,5.64,4.17-3.62Z"/>
      <path class="cls-1" d="m405.23,256.84c1.27-.37,2-1.12,2.23-1.95.28-.96.16-1.73-.45-4.07l-.36-1.4-17.63,4.57c-2.38.62-3.18.95-3.61,1.46-.75.84-.38,2.56-.29,2.93l-.72.19c-.31-1.49-1.01-4.53-1.36-5.85-.34-1.32-1.21-4.36-1.67-5.81l.68-.18c.08.3.6,1.86,1.58,2.37.88.46,1.87.24,5.12-.6l16.53-4.29-.36-1.4c-.61-2.34-.88-3.08-1.59-3.78-.6-.61-1.61-.91-2.9-.62l-.21-.79c1.78-.3,4.9-1.15,4.9-1.15l5.13,19.78s-3.14.77-4.84,1.38l-.2-.79Z"/>
      <path class="cls-1" d="m387.16,278.1c-.83-8.03,3.57-13.27,11.38-14.07,8.07-.83,13.95,3.74,14.78,11.81.83,8.03-3.57,13.27-11.37,14.07-8.07.83-13.95-3.74-14.78-11.81m24.43-2.28c-.54-5.28-5.78-6.66-11.95-6.02-6.44.66-11.26,3.39-10.75,8.32.54,5.28,5.78,6.66,11.95,6.02,6.44-.66,11.26-3.39,10.75-8.32m6.87,4.62l-3.81-8.08.65-.54,5.88,4.89.1.26-2.22,3.6-.6-.14Z"/>
      <path class="cls-1" d="m387.83,312.92l.53-10.67c.11-2.18.25-4.28.24-6.47l.7.04c-.03.51.13,1.33.76,1.95.71.7,1.8.79,5.15.96l13.4.66c2.45.12,3.32.05,3.92-.32.44-.29.94-.89,1.07-1.94l.7.03c-.15,1.52-.37,4.32-.44,5.68-.07,1.36-.13,4.25-.13,5.77l-.74-.04c0-1.64-.3-2.52-1.02-3.1-.75-.62-1.96-.64-5-.79l-14.92-.74c-1.75-.09-2,.21-2.11,2.32l-.03.66c-.11,2.14-.09,3.47.83,4.49.48.53,1.4.97,2.56,1.06l-.04.82c-1.78-.24-5.45-.39-5.45-.39"/>
      <path class="cls-1" d="m409.63,329.77c-.63-.77-1.7-.98-5.01-1.51l-13.25-2.1c-2.43-.38-3.29-.4-3.93-.11-.47.24-1.03.79-1.27,1.81l-.69-.11c.32-1.49.77-3.83.98-5.18.21-1.35.5-3.67.67-5.19l.69.11c-.08.5-.02,1.34.55,2.02.63.77,1.7.98,5.01,1.51l13.25,2.1c2.43.39,3.29.4,3.93.11.47-.24,1.03-.78,1.27-1.81l.69.11c-.32,1.49-.77,3.83-.98,5.17-.21,1.35-.5,3.67-.67,5.19l-.69-.11c.08-.5.01-1.34-.55-2.02"/>
      <path class="cls-1" d="m399.07,357.41c.98.28,1.81.07,2.46-.4,1.34-.88,2.08-2.77,2.41-3.94.94-3.3,1.66-8.57-8.55-11.47-6.27-1.78-11.23-.87-13.02,5.47-.38,1.35-.71,3.2.21,4.56.39.64,1.05,1.15,2.07,1.44l-.22.79c-1.07-.38-2.21-.79-3.97-1.29l-.64-.18c-.08-1.85.42-4.62.97-6.58,1.34-4.73,3.81-8.29,7.36-9.79,2.3-.97,5.14-1.1,8.4-.17,6.49,1.84,9.54,6.68,9.9,11.97.13,2.11-.39,4.51-.79,5.94-.82,2.89-1.99,5.44-2.08,5.78-.69-.28-1.55-.52-2.3-.74-.97-.28-1.92-.51-2.42-.61l.22-.79Z"/>
      <path class="cls-1" d="m370.28,373.19c.48-1.07,1.6-3.73,1.99-4.79l.64.29c-.38.85-.45,1.47-.33,1.86.08.29.32.53.64.67.43.19,1.11.29,2.27.38l5.67.5,3-6.65-4.12-4.04c-.83-.8-1.31-1.27-1.77-1.48-.32-.14-.6-.18-.88-.05-.57.21-.9.96-1.16,1.44l-.64-.29c.63-1.21,1.09-2.03,1.66-3.31.51-1.14.94-2.19,1.35-3.37l.64.29c-.49.98.02,1.85.24,2.21.3.48,1.3,1.57,3.09,3.49l14.59,15.47-.71,2.8-20.94-1.74c-2.85-.22-4.67-.27-4.98-.24-.42.07-1.33.21-1.75,1.22l-.64-.29c.54-1,1.68-3.35,2.15-4.38m18.19-.4c2.59.23,3.63.48,3.63.48l-6.63-6.54-2.5,5.55,5.5.51Z"/>
      <path class="cls-1" d="m228.8,202.59h4.02c-1.01-1-2.34-2.57-2.34-4.25,0-3.35,4.02-5.64,4.02-9.99s-3.01-6.67-3.01-10.69c0-3.68,2.68-6.19,2.68-9.21,0-1.34-.67-3.86-1.67-4.86h-3.68c.67,1,1.67,3.53,1.67,4.87,0,3.01-2.68,4.95-2.68,9.3,0,4.02,3.35,7.33,3.35,10.68s-4.02,5.9-4.02,9.92c0,1.67.67,3.23,1.68,4.23"/>
      <path class="cls-1" d="m230.73,229.26v4.33h103v-4h-26.8c9.74-2,15.99-9.29,15.99-19.92,0-16.08-18.09-32.24-44.21-32.24-6.34,0-11.81.81-16.5,2.27-.16-.66-.24-1.34-.24-2,0-3.68,2.68-6.22,2.68-9.23,0-1.34-.67-3.88-1.67-4.88h-3.68c.67,1,1.67,3.53,1.67,4.87,0,3.01-2.68,4.95-2.68,9.3,0,1.08.28,2.12.65,3.11-2.11.85-4.05,1.81-5.81,2.9-.8-1.98-1.88-3.8-1.88-6.07,0-3.68,2.68-6.21,2.68-9.23,0-1.34-.67-3.87-1.68-4.87h-3.68c.67,1,1.67,3.53,1.67,4.87,0,3.01-2.68,4.95-2.68,9.3,0,2.96,1.83,5.36,2.72,7.96-4.92,3.72-8.28,8.26-10.41,12.8,0-.23,0-.48,0-.73,0-2.68,4.02-6.03,4.02-9.38,0-4.35-3.02-6.7-3.02-10.72,0-3.68,2.68-6.21,2.68-9.22,0-1.34-.67-3.87-1.67-4.87h-3.68c.67,1,1.67,3.53,1.67,4.87,0,3.01-2.68,4.95-2.68,9.3,0,4.02,3.35,7.33,3.35,10.68s-4.02,5.9-4.02,9.92c0,1.67.67,3.23,1.68,4.23h3.68c3.35-10,13.73-21.66,36.51-21.66,24.79,0,40.19,15.79,40.19,28.52,0,11.39-7.37,16.44-15.41,16.44-10.72,0-14.4-6.68-14.4-12.38,0-4.69,2.34-9.04,7.7-11.05-2.68-6.03-10.72-12.83-23.78-12.83-14.4,0-21.77,7.96-23.78,12.96h4.02c.6-1,2.14-3.43,4.77-5.22-.05.31-.08.58-.08.92,0,1.67.67,3.3,1.67,4.3h4.02c-1.01-1-2.35-2.57-2.35-4.25,0-1.23.54-2.22,1.23-3.22,2.81-1.05,6.28-1.72,10.5-1.72,10.72,0,16.08,4.7,18.42,7.72-3.35,1.67-7.03,7.2-7.03,12.56,0,7.62,4.61,13.91,14.29,15.91h-36.73c0-7-9.04-6.98-9.04-8.99s12.06-6.01,12.06-14.01h-37.18c0,8,12.18,11.84,12.18,13.85s-8.92,2.46-8.92,8.82m1.43-19.67h27.8c0,5-10.72,6.82-10.72,10.84s8.04,3.16,8.04,9.16h-22.44c0-6,8.04-5.14,8.04-9.16s-10.72-5.84-10.72-10.84"/>
      <path class="cls-1" d="m290.77,244.33c-.67-.67-2.34-1.34-4.69-1.34-6.36,0-11.39,5.02-11.39,11.72,0,7.7,7.37,10.05,7.37,14.74,0,2.68-2.01,4.69-3.68,5.69,1,1.01,3.01,1.67,5.36,1.67,6.7,0,11.39-5.02,11.39-11.72s-7.03-9.71-7.03-14.4c0-2.01,1.01-4.35,2.68-6.36m1.01,21.1c0,5.02-3.68,8.37-8.04,8.37,1-1,2.01-3.35,2.01-5.02,0-5.69-7.37-8.37-7.37-14.4,0-5.02,3.35-8.37,7.7-8.37-1.01,1.34-1.68,3.68-1.68,5.69,0,5.36,7.37,8.37,7.37,13.73"/>
      <path class="cls-1" d="m336.32,250.7c0-2.01,1.01-4.35,2.68-6.36-.67-.67-2.35-1.34-4.69-1.34-6.36,0-11.39,5.02-11.39,11.72,0,7.7,7.37,10.05,7.37,14.74,0,2.68-2.01,4.69-3.68,5.69,1.01,1.01,3.01,1.67,5.36,1.67,6.7,0,11.39-5.02,11.39-11.72s-7.03-9.71-7.03-14.4m-4.35,23.11c1-1,2.01-3.35,2.01-5.02,0-5.69-7.37-8.37-7.37-14.4,0-5.02,3.35-8.37,7.7-8.37-1,1.34-1.67,3.68-1.67,5.69,0,5.36,7.37,8.37,7.37,13.73,0,5.02-3.68,8.37-8.04,8.37"/>
      <path class="cls-1" d="m314.88,244.33c-.67-.67-2.34-1.34-4.69-1.34-6.36,0-11.39,5.02-11.39,11.72,0,7.7,7.37,10.05,7.37,14.74,0,2.68-2.01,4.69-3.68,5.69,1,1.01,3.01,1.67,5.36,1.67,6.7,0,11.39-5.02,11.39-11.72s-7.03-9.71-7.03-14.4c0-2.01,1.01-4.35,2.68-6.36m1.01,21.1c0,5.02-3.68,8.37-8.04,8.37,1-1,2.01-3.35,2.01-5.02,0-5.69-7.37-8.37-7.37-14.4,0-5.02,3.35-8.37,7.7-8.37-1.01,1.34-1.68,3.68-1.68,5.69,0,5.36,7.37,8.37,7.37,13.73"/>
      <path class="cls-1" d="m167.63,205.99c0,1.36.34,2.04.68,2.04s1.02-1.02,1.7-1.36c0,1.02,1.02,1.7,2.04,1.7,1.36,0,2.04-.68,2.04-2.04,1.02.34,1.36,1.36,2.04,1.36.34,0,1.02-.34,1.02-1.36,0-2.03-1.7-2.71-4.41-2.71s-4.75,1.7-5.09,2.38m-4.75,20.36c.34.68,1.02,1.36,2.38,1.36s2.04-.68,2.38-1.36c0-.34,0-1.02-.34-1.36-.34.34-.68.68-2.04.68s-1.7-.34-2.04-.68c-.34.34-.34,1.02-.34,1.36m-1.7-8.14c2.04,0,2.38.68,4.07.68s2.04-.68,4.07-.68c0-.68-.34-1.36-.68-2.04-2.71,0-2.71,1.02-3.39,1.02s-.68-1.02-3.39-1.02c-.34.68-.68,1.36-.68,2.04m-1.02,3.73l.34,1.7c.34-.34,1.02-.34,1.7-.34,1.02,0,1.36.34,3.05.34s2.04-.34,3.05-.34c.68,0,1.36,0,1.7.34l.34-1.7c-.34-.34-1.36-.68-2.38-.68s-1.7.34-2.71.34-1.7-.34-2.71-.34-2.04.34-2.38.68m-6.79-15.61c0,1.02.68,1.36,1.02,1.36.68,0,1.02-1.02,2.04-1.36,0,1.36.68,2.04,2.04,2.04,1.02,0,2.04-.68,2.04-1.7.68.34,1.36,1.36,1.7,1.36s.68-.68.68-2.04c-.34-.68-2.38-2.38-5.09-2.38s-4.41.68-4.41,2.71m-9.5-1.7c-1.7,2.04-.34,3.73,1.7,3.73s4.75-1.02,7.46-5.77c1.7-2.38,2.38-4.07,5.43-4.07,4.41,0,4.07-4.41,6.79-4.41s2.38,4.41,6.79,4.41c3.05,0,3.73,1.7,5.43,4.07,2.71,4.75,5.43,5.77,7.46,5.77s3.39-1.7,1.7-3.73c-.34.68-1.02,1.36-2.04,1.36-2.71,0-3.73-2.38-5.77-5.43,1.02.34,2.04,1.7,3.39,1.7,1.7,0,2.04-1.36,1.7-2.38-5.43,0-4.07-3.73-10.86-3.73-3.05,0-4.07-4.41-7.8-4.41s-4.75,4.41-7.8,4.41c-6.79,0-5.43,3.73-10.86,3.73-.34,1.02,0,2.38,1.7,2.38,1.36,0,2.38-1.36,3.39-1.7-2.04,3.05-3.05,5.43-5.77,5.43-1.02,0-1.7-.68-2.04-1.36m-6.45,5.43c0,2.04,1.7,3.73,3.05,4.41-.34.34-.68,1.02-.68,2.38,0,3.73,3.73,4.41,4.75,4.41-.68.68-1.02,1.7-1.02,2.71,0,1.7,1.7,3.73,4.41,3.73,2.04,0,3.39-1.36,3.05-3.05-.68.34-1.36.68-2.38.68-1.36,0-2.71-.68-2.71-2.04,0-1.02.34-1.7.68-2.04,1.36-.34,2.04-.68,2.04-2.38-1.02.34-2.04.34-3.05.34-1.7,0-3.39-1.02-3.39-2.71,0-.68.34-1.36.68-1.7,1.7.68,4.41.34,5.77-.68,1.36,7.8,7.46,20.02,16.63,19.68,9.16.34,15.27-11.88,16.63-19.68,1.36,1.02,4.07,1.36,5.77.68.34.34.68,1.02.68,1.7,0,1.7-1.7,2.71-3.39,2.71-1.02,0-2.04,0-3.05-.34,0,1.7.68,2.04,2.04,2.38.34.34.68,1.02.68,2.04,0,1.36-1.36,2.04-2.71,2.04-1.02,0-1.7-.34-2.38-.68-.34,1.7,1.02,3.05,3.05,3.05,2.71,0,4.41-2.04,4.41-3.73,0-1.02-.34-2.04-1.02-2.71,1.02,0,4.75-.68,4.75-4.41,0-1.36-.34-2.04-.68-2.38,1.36-.68,3.05-2.38,3.05-4.41,0-1.7-1.02-3.39-3.73-3.39.68.68,1.02,1.36,1.02,2.38,0,2.04-1.7,3.39-4.41,3.39-1.02,0-3.05-.34-3.73-1.02.34-1.7-1.02-2.71-2.38-3.39.34,2.04,0,3.39-.34,4.41-1.02,3.05-5.43,3.73-5.43,4.07,0,1.02,1.02,1.36,1.7,1.36,1.36,0,2.38-.68,3.39-2.04-1.36,5.77-6.11,15.27-13.91,15.27s-12.55-9.5-13.91-15.27c1.02,1.36,2.04,2.04,3.39,2.04.68,0,1.7-.34,1.7-1.36,0-.34-4.41-1.02-5.43-4.07-.34-1.02-.68-2.38-.34-4.41-1.36.68-2.71,1.7-2.38,3.39-.68.68-2.71,1.02-3.73,1.02-2.71,0-4.41-1.36-4.41-3.39,0-1.02.34-1.7,1.02-2.38-2.71,0-3.73,1.7-3.73,3.39m-4.75-31.9c0,.68.34,1.02.68,1.02h63.79c.34,0,.68-.34.68-1.02,0-1.02-.68-2.04-2.71-2.04h-59.72c-2.04,0-2.71,1.02-2.71,2.04m-9.5,15.61c0,8.48,7.46,11.88,12.55,11.88,5.43,0,10.52-4.07,10.52-9.84,0-1.7-.68-3.39-1.36-4.41,3.73,1.36,8.48,1.7,11.2,1.7,3.05,0,5.09-1.36,5.77-2.38-12.89-.34-17.98-3.39-23.75-3.39-4.41,0-7.13,3.05-7.13,6.45s2.38,5.77,5.43,5.77c2.71,0,4.07-1.7,4.07-3.39,0-1.02-.68-1.7-1.7-1.7,0,1.02-.68,1.7-2.04,1.7s-2.38-1.02-2.38-2.38c0-1.7,1.36-3.05,3.73-3.05,3.39,0,5.09,2.04,5.09,5.09,0,4.07-2.71,6.79-7.8,6.79s-8.48-3.73-8.48-8.82c0-7.46,5.77-9.84,10.52-9.84,7.8,0,12.89,2.04,27.82,2.04s20.02-2.04,27.82-2.04c4.75,0,10.52,2.38,10.52,9.84,0,5.09-3.39,8.82-8.48,8.82s-7.8-2.71-7.8-6.79c0-3.05,1.7-5.09,5.09-5.09,2.38,0,3.73,1.36,3.73,3.05,0,1.36-1.02,2.38-2.38,2.38s-2.04-.68-2.04-1.7c-1.02,0-1.7.68-1.7,1.7,0,1.7,1.36,3.39,4.07,3.39,3.05,0,5.43-2.38,5.43-5.77s-2.71-6.45-7.12-6.45c-5.77,0-10.86,3.05-23.75,3.39.68,1.02,2.71,2.38,5.77,2.38,2.71,0,7.46-.34,11.2-1.7-.68,1.02-1.36,2.71-1.36,4.41,0,5.77,5.09,9.84,10.52,9.84,5.09,0,12.55-3.39,12.55-11.88,0-7.46-4.75-12.89-14.25-12.89-8.14,0-13.57,2.38-27.82,2.38s-19.68-2.38-27.82-2.38c-9.5,0-14.25,5.43-14.25,12.89"/>
      <path class="cls-1" d="m150.01,278.85c-13.7,0-22.23,2.41-27.85,6.35h-4.72c-5.84-3.94-14.15-6.35-28.07-6.35v-37.46c.67,0,3.14.44,4.49,1.09v33.08c10.33,0,17.52,1.31,23.8,5.04h4.04c6.51-3.73,13.92-5.04,24.03-5.04v-33.08c1.35-.66,3.59-1.09,4.27-1.09v37.46Zm-7.64-41.41v35.27c-7.41,0-14.6,1.31-20.88,4.16v-34.4c4.27-3.94,13.47-5.04,20.88-5.04m-45.14,0c7.41,0,16.4,1.1,20.89,5.04v34.4c-6.51-2.85-13.47-4.16-20.89-4.16v-35.27Zm48.51,1.75v-4.38c-10.11,0-18.86.66-26.05,5.04-7.63-4.38-15.5-5.04-25.83-5.04v4.38c-2.02-.66-4.72-1.09-7.86-1.09v44.69c16.84,0,24.93,2.41,30.77,5.7h6.06c5.62-3.29,13.7-5.7,30.54-5.7v-44.69c-2.92,0-5.61.44-7.64,1.09"/>
      <path class="cls-1" d="m175.99,387.6c-12.98,0-13.23,11.76-25.48,11.76s-13.23-12-25.48-12c-6.64,0-10.34,3.18-13.77,6.25.85.94,1.99,2.17,2.81,3.01,2.72-2.54,5.68-5.1,10.71-5.1,10.53,0,12.49,11.76,25.72,11.76,14.21,0,14.21-11.76,25.48-11.76s12.25,12.25,25.48,11.76v-3.92c-12.25,0-12.25-11.76-25.48-11.76"/>
      <path class="cls-1" d="m175.99,403.44c-12.98,0-13.23,11.76-25.48,11.76s-13.23-12-25.48-12c-1.34,0-2.64.19-3.75.41,1.23,1.08,4.23,3.77,4.35,3.78,9.88.29,11.65,11.73,24.88,11.73,14.21,0,14.21-11.76,25.48-11.76s12.25,12.25,25.48,11.76v-3.92c-12.25,0-12.25-11.76-25.48-11.76"/>
      <path class="cls-1" d="m176.2,419.27c-8.88,0-11.8,5.5-16.68,8.97,1.15.77,2.56,1.19,3.86,1.89,3.72-3.25,6.5-6.94,12.82-6.94,11.27,0,12.25,12.25,25.48,11.76v-3.92c-12.25,0-12.25-11.76-25.48-11.76"/>
      <path class="cls-1" d="m102.85,383.83l2.43,2.86c7.71-2.12,10.45-10.38,19.51-10.38,10.53,0,12.49,11.76,25.72,11.76,14.21,0,14.21-11.76,25.48-11.76s12.25,12.25,25.48,11.76v-3.92c-12.25,0-12.25-11.76-25.48-11.76s-13.23,11.76-25.48,11.76-13.23-12-25.48-12c-11.27,0-14.35,8.98-22.18,11.68"/>
      <path class="cls-1" d="m120.68,373.69h4.13v-8.77c.34.67,1.72,1,3.1,1,5.5,0,11.69-5.68,11.69-12.03l10.7-11.07-2.06-1.65-10.36,10.05c-.69-.67-1.72-1-3.44-1,3.44-2.34,4.81-5.01,4.81-8.69l11.04-10.74-2.06-1.65-10.36,10.05c-.69-.67-1.72-1-3.1-1,2.06-1,4.47-4.68,4.81-8.36l10.7-11.07-2.06-1.99-10.01,10.38c-.69-1-1.72-1.67-3.44-1.67-2.41,0-4.47,1-6.19,2.34.69-1,1.03-2.34,1.03-4.35,0-4.01-2.41-8.36-5.16-9.69l-.34-12.03h-2.75l-.34,12.03c-2.75,1.34-5.16,5.68-5.16,9.69,0,2.01.34,3.01.69,4.01-1.72-1-3.78-2.01-6.19-2.01-1.72,0-2.41.67-3.1,1.34l-10.01-10.05-2.06,1.99,10.36,10.74c0,3.34,1.38,6.02,3.78,8.36-1.03,0-2.06.34-2.75,1l-9.67-9.71-2.06,1.65,10.36,10.74c0,2.67,1.38,5.68,4.47,8.36-1.38,0-2.41.67-2.75,1l-10.01-9.71-2.06,1.65,10.7,10.74c0,6.35,6.19,12.37,11.69,12.37,1.38,0,2.75-.33,3.44-1v8.77Zm2.06-26.82c-.69-2.67-2.06-4.34-4.13-5.68,2.06,0,3.78-.33,4.13-3.34.34,3.01,2.06,3.34,4.13,3.34-2.06,1.34-3.44,3.01-4.13,5.68m4.81,16.38c-1.72,0-2.41-1-2.41-2.34,0-3.01,3.44-8.02,8.25-8.02,1.72,0,3.1.33,3.1,1.67,0,4.01-3.78,8.69-8.94,8.69m-9.97,0c-4.82,0-8.94-4.68-8.94-8.69,0-1.34,1.03-1.67,2.06-1.67,5.16,0,9.63,4.35,9.63,8.02,0,1.34-1.03,2.34-2.75,2.34m5.16-4.01c-.69-3.01-2.06-4.35-3.78-5.68,2.06,0,3.44-.67,3.78-3.01.34,2.34,1.72,3.01,3.78,3.01-1.72,1.34-3.1,2.67-3.78,5.68m4.47-8.36c-1.72,0-2.06-1-2.06-2.01,0-3.01,3.44-7.69,8.25-7.69,1.72,0,2.41.33,2.41,1.67,0,4.01-3.44,8.02-8.6,8.02m-17.19-10.03c5.85,0,10.32,5.01,10.32,8.02,0,1.34-1.03,2.01-2.41,2.01-5.16,0-9.63-4.35-9.63-8.36,0-1.34.69-1.67,1.72-1.67m24.07-12.37c1.38,0,2.06.67,2.06,2.01,0,3.34-3.78,8.36-8.94,8.36-1.38,0-2.06-.67-2.06-2.01,0-3.01,4.47-8.36,8.94-8.36m-23.04,0c4.47,0,9.28,5.35,9.28,8.36,0,1.34-1.03,2.01-2.75,2.01-4.82,0-8.94-5.01-8.94-8.36,0-1.34.69-2.01,2.41-2.01m11.69-12.37c1.38,0,4.13,4.01,4.13,8.02,0,4.68-2.41,8.02-4.13,8.02s-4.13-3.34-4.13-8.02c0-4.01,2.75-8.02,4.13-8.02"/>
      <path class="cls-1" d="m251.82,407.62c-1.72-.87-3.67-1.02-5.5-.43-1.83.6-3.32,1.87-4.19,3.59-.87,1.72-1.02,3.67-.43,5.5.6,1.83,1.87,3.32,3.59,4.19,1.4.71,2.96.94,4.48.68.34-.06.69-.14,1.02-.25,1.83-.6,3.32-1.87,4.19-3.59.87-1.72,1.02-3.67.43-5.5-.6-1.83-1.87-3.32-3.59-4.19m.88,8.53c-.56,1.11-1.52,1.93-2.7,2.31-1.18.38-2.44.29-3.54-.27-1.11-.56-1.93-1.52-2.31-2.7-.38-1.18-.29-2.44.27-3.54.56-1.11,1.52-1.93,2.7-2.31,1.18-.39,2.44-.29,3.54.27,1.11.56,1.93,1.52,2.31,2.7.39,1.18.29,2.44-.27,3.54"/>
      <path class="cls-1" d="m288.18,395.95c-1.5-.76-3.21-.89-4.81-.37-3.3,1.08-5.11,4.64-4.04,7.95.52,1.6,1.64,2.9,3.14,3.66,1.22.62,2.58.82,3.91.6.3-.05.6-.13.9-.22,1.6-.52,2.9-1.64,3.66-3.14.76-1.5.89-3.21.37-4.81-.52-1.6-1.64-2.9-3.14-3.66m.48,7.31c-.45.89-1.22,1.55-2.17,1.86-.95.31-1.96.23-2.85-.22-.89-.45-1.55-1.22-1.86-2.17-.64-1.96.43-4.07,2.39-4.71.17-.06.35-.1.53-.13.79-.14,1.59-.02,2.32.35.89.45,1.55,1.22,1.86,2.17.31.95.23,1.96-.22,2.85"/>
      <path class="cls-1" d="m305.56,402.21c-1.92-2.87-5.81-3.06-7.89-2.92l-.97-2.74c1.6-1.11,4.32-3.43,4.76-6.54l.12-.85-5.44-4.88-.92.37c-3.59,1.42-5.18,3.86-5.87,5.5l-2.71-.61c-.01-2.12-.51-5.95-3.77-7.76l-.61-.34-6.21,2.03-.29.64c-1.55,3.38.3,6.77,1.54,8.49l-1.83,2.1c-1.52-.91-4.24-1.95-7.98-.97l-.96.25-1.51,7.15.6.61c.47.48.99.86,1.55,1.17-1.95.05-3.83.94-5.02,1.65l-1.91-2.17c1.37-1.58,3.35-4.5,2.38-7.46l-.21-.64-5.79-2.88-.62.2c-2.99.98-4.18,4.24-4.64,6.26l-2.87-.28c-.08-2.06-.64-5.45-3.43-6.87l-.59-.3-6.41,2.09-.3.59c-1.42,2.79.13,5.87,1.28,7.57l-2.15,1.92c-1.56-1.36-4.45-3.29-7.44-2.32l-.62.2-2.98,5.74.21.64c.97,2.96,4.29,4.16,6.33,4.62l-.26,2.82c-2.08.11-5.55.72-6.96,3.51l-.3.59,2.04,6.24.59.3c2.55,1.29,5.82-.24,7.59-1.31l1.98,2.22c-1.39,1.57-3.42,4.48-2.48,7.36l.21.64,5.79,2.88.62-.2c3.16-1.03,4.36-4.25,4.8-6.24l2.76.27c.14,1.92.77,5.09,3.39,6.9l.65.45,6.54-2.13.26-.75c1.04-3-.32-5.94-1.34-7.57l2.07-1.84c1.54,1.35,4.4,3.24,7.56,2.2l.62-.2,2.98-5.74-.21-.64c-.94-2.88-4.29-4.04-6.34-4.48l.3-3.01c1.22-.16,2.97-.52,4.46-1.34-.13.51-.2,1.05-.17,1.61l.03.65,4.9,4.61.9-.3c3.79-1.23,5.48-3.87,6.2-5.58l2.74.58c-.05,2.13.37,5.89,3.61,7.83l.63.37,6.53-2.13.29-.67c1.48-3.48-.41-6.76-1.7-8.45l1.88-2.08c1.59.96,4.51,2.09,8.3.85l.9-.3,1.23-6.61-.36-.54Zm-33.53,6.4l-1.51-4.61c1.05.17,2.03.2,2.78.18l.83,2.79c-.61.39-1.38.94-2.11,1.64m-8.34,2.01l-1.41.04-.87,8.84,1.6.15c1.3.12,3.96.77,4.91,2.03l-1.65,3.17c-2.31.22-4.67-2.48-4.69-2.5l-1.06-1.27-6.68,5.96,1.03,1.2s2.13,2.55,1.83,4.98l-3.33,1.08c-1.69-1.79-1.47-5.07-1.46-5.1l.13-1.58-8.91-.87-.11,1.65s-.29,3.6-2.31,4.79l-3.2-1.59c.03-1.57,1.8-3.67,2.77-4.54l1.2-1.07-5.96-6.67-1.18.89c-1.28.96-3.53,2.12-4.9,1.98l-1.12-3.44c1.2-1.23,4.08-1.35,5.11-1.28l1.57.11.82-8.89-1.58-.16c-1.04-.11-3.9-.73-4.91-2.16l1.64-3.16c1.78-.07,3.95,1.86,4.63,2.62l1.07,1.21,6.76-6.04-1.05-1.2c-.66-.75-2.26-3.04-1.98-4.71l3.64-1.19c1.21,1.18,1.27,3.98,1.18,4.97l-.15,1.59,9.03.89.15-1.6c.1-1.02.7-3.85,2.19-4.85l3.2,1.59c.04,1.75-1.92,3.95-2.69,4.64l-1.18,1.06,5.87,6.64,1.19-.91c.81-.62,3.29-2.12,5.02-1.78l.97,2.96c-1.03.96-3.52,1.48-5.12,1.53m38.2-3.78c-3.34.67-5.43-1.25-5.52-1.33l-1.2-1.17-5.93,6.6,1.11,1.08s2.77,2.74,2.21,5.42l-3.59,1.17c-2.04-1.84-1.42-5.64-1.42-5.68l.27-1.53-7.06-1.48-1.61-.32-.3,1.61c-.02.13-.58,2.92-3.67,4.34l-2.44-2.29c.38-1.94,2.94-3.59,3.98-4.09l1.24-.59-2.35-7.87-1.36.19s-3.62.45-5.74-.93l.71-3.36c3.39-.51,5.24,1.27,5.32,1.34l1.21,1.25,5.79-6.64-1-1.06s-2.69-2.88-2.09-5.47l3.38-1.1c2.02,1.73,1.55,5.61,1.54,5.65l-.2,1.46,6.9,1.56,1.67.36.27-1.68c.02-.12.46-2.65,3.5-4.24l2.56,2.29c-.76,1.97-3.13,3.62-4.08,4.14l-1.21.65,2.74,7.74,1.35-.25c1.05-.2,4.16-.39,5.63.95l-.61,3.29Z"/>
      <path class="cls-1" d="m332.7,337.02l-24.82,18.74v-16.71l-26.34,16.71v-12.16l-25.83,15.7v4.81l22.54-13.68v11.9l26.34-16.71v16.71l33.43-24.57-3.04-3.8h10.38v11.9l-4.05-4.31-41.53,32.42v-17.22l-25.33,16.21v-10.64l-23.3,14.69v4.81l20.01-12.92v10.64l25.33-16.21v17.98l44.83-35.46,7.6,8.1v-23.3h-21.27l5.07,6.33Zm-37.73-24.57v13.42l24.31-14.18v14.18l22.29-15.45-2.79-3.8h10.38v11.14l-4.3-4.31-29.89,22.03v-14.94l-26.85,16.71v-11.65l-24.82,14.44v4.81l21.53-12.66v11.9l26.59-16.71v14.94l33.43-24.57,7.6,8.1v-22.54h-20.77l4.81,6.08-13.93,9.88v-14.18l-24.31,14.18v-13.42l-28.11,15.2v4.81l24.82-13.42Z"/>
      <path class="cls-1" d="m212.38,332.62c1.14.98,1.95,1.46,4.06,1.79,2.11-.33,2.92-.81,4.06-1.79v-42.29h21.89v-8.58h-21.89v-19.58h-8.12v19.58h-21.89v8.58h21.89v42.29Zm11.53,2.6c-1.62,1.14-5.04,2.92-7.47,3.25-2.44-.33-5.85-2.11-7.47-3.25v-41.48h-22.22v-15.24h22.22v-20.07h14.94v20.07h22.22v15.24h-22.22v41.48Z"/>
      <polygon class="cls-1" points="215.63 354.37 215.63 356.26 208.47 356.26 208.47 347.26 215.38 347.26 215.38 349.12 210.52 349.12 210.52 351.04 214.72 351.04 214.72 352.67 210.52 352.67 210.52 354.37 215.63 354.37"/>
      <polygon class="cls-1" points="224.97 349.26 221.99 349.26 221.99 356.26 219.96 356.26 219.96 349.26 216.97 349.26 216.97 347.26 224.97 347.26 224.97 349.26"/>
      <polygon class="cls-1" points="238.84 345.88 240.2 347.3 235.39 351.91 229.16 345.42 230.64 344.01 235.51 349.08 238.84 345.88"/>
      <path class="cls-1" d="m246.37,339.1c-.9-.2-1.72-.39-2.46-.57l-2.45,3.47c.4.65.86,1.36,1.36,2.12l-1.23,1.74c-3.35-5.32-5.06-8.44-5.06-8.44l1.4-1.99s3.52.56,9.65,1.93l-1.22,1.73Zm-4.28-.96c-2.2-.47-3.38-.67-3.38-.67,0,0,.59,1.05,1.77,2.96l1.61-2.29Z"/>
      <path class="cls-1" d="m249.59,326.78c1.63.73,1.88,2.12,1.03,4.02l-2.07,4.61-8.21-3.68,1.86-4.15c.83-1.86,2.06-2.27,3.4-1.67.94.42,1.16,1.16,1.14,1.61.48-.74,1.48-1.35,2.85-.73m-6.82,3.85l1.75.79.94-2.1c.34-.76.2-1.19-.37-1.45-.59-.27-1.05-.05-1.41.74l-.91,2.02Zm6.14-.44c.38-.84.3-1.33-.31-1.6-.56-.25-1.07-.02-1.46.85l-1.18,2.63,1.75.78,1.19-2.66Z"/>
      <path class="cls-1" d="m245.02,318.68c.68-2.89,2.68-4.34,5.57-3.66,2.87.67,4.04,2.86,3.36,5.76-.67,2.87-2.7,4.34-5.57,3.66-2.89-.68-4.03-2.88-3.36-5.76m7.08,1.66c.38-1.62-.18-2.95-1.97-3.37-1.79-.42-2.88.52-3.26,2.15-.38,1.62.18,2.95,1.97,3.37,1.79.42,2.88-.52,3.26-2.15"/>
      <path class="cls-1" d="m255.66,307.5c-.94.37-1.96.87-2.76,1.27l-.02.27-.15,2.24,2.66.18-.14,1.99-8.98-.61.29-4.24c.16-2.33,1.36-3.58,3.41-3.44,1.28.09,2.16.68,2.61,1.68.8-.43,2.03-1.05,3.23-1.62l-.15,2.28Zm-4.79,3.65l.15-2.16c.08-1.22-.27-1.74-1.18-1.8-.91-.06-1.35.41-1.43,1.62l-.15,2.16,2.61.18Z"/>
      <polygon class="cls-1" points="185.66 310.6 183.65 310.78 184.03 315.05 182.36 315.2 181.97 310.93 178.55 311.24 178.37 309.2 187.34 308.4 187.97 315.45 186.11 315.62 185.66 310.6"/>
      <rect class="cls-1" x="179.72" y="318.1" width="9" height="2.03" transform="translate(-62.42 45.36) rotate(-12.02)"/>
      <path class="cls-1" d="m190.68,325.34c1.23,3.24.32,5.32-2.41,6.35-2.73,1.03-4.78.08-6.01-3.16l-1.3-3.43,8.42-3.18,1.3,3.43Zm-6.49,2.63c.67,1.76,1.75,2.37,3.34,1.77,1.61-.61,2-1.77,1.34-3.54l-.65-1.71-4.68,1.77.65,1.71Z"/>
      <polygon class="cls-1" points="191.49 342.07 189.9 343.07 186.07 337.02 193.68 332.21 197.37 338.06 195.79 339.06 193.19 334.94 191.57 335.97 193.82 339.52 192.44 340.39 190.19 336.84 188.76 337.74 191.49 342.07"/>
      <path class="cls-1" d="m199.5,345.49s.3-.04.61-.32c.41-.37.57-.96-.38-2.01-.92-1.02-1.55-1.12-2.1-.62-1.43,1.28,3.6,4.54,1.06,6.83-1.28,1.15-2.76.87-4.55-1.11-1.93-2.14-1.85-3.67-.61-4.79,0,0,.61.3,1.53,1.2-.77.69-.65,1.44.32,2.52.97,1.08,1.5,1.16,1.99.72,1.36-1.23-3.66-4.49-.96-6.92,1.2-1.08,2.73-.88,4.51,1.1,2.04,2.27,1.71,3.51.81,4.31-.49.45-.95.52-.95.52l-1.28-1.43Z"/>
    </g>
  </g>
</svg>