<?xml version="1.0" encoding="UTF-8"?>
<svg id="Capa_2" data-name="Capa 2" xmlns="http://www.w3.org/2000/svg" viewBox="0 0 481.89 77.17">
  <defs>
    <style>
      .cls-1 {
        fill: #fff;
      }
    </style>
  </defs>
  <g id="Layer_1" data-name="Layer 1">
    <g>
      <g>
        <path class="cls-1" d="m0,44.96V2.24h18.22c8.13,0,12.19,3.42,12.19,10.25,0,7.71-5.66,12.48-17,14.31l-1.14-4.66c8.17-1.29,12.25-4.43,12.25-9.41,0-3.94-2.27-5.91-6.81-5.91H5.53v38.14H0Z"/>
        <path class="cls-1" d="m61.72,13.59v31.36h-3.79l-.96-4c-3.8,2.67-7.63,4-11.47,4-7.21,0-10.81-3.89-10.81-11.68V13.59h5.53v19.78c0,4.66,2.31,6.99,6.93,6.99,3.17,0,6.18-1.32,9.05-3.97V13.59h5.53Z"/>
        <path class="cls-1" d="m92.88,30.86h-21.12c0,6.41,4.04,9.62,12.13,9.62,2.77,0,5.54-.3,8.3-.9v4.48c-2.77.6-6.13.9-10.1.9-10.57,0-15.86-5.35-15.86-16.04s5.01-15.32,15.03-15.32,13.47,5.75,11.62,17.26Zm-21.12-4.6h16.07c.28-5.5-2.21-8.24-7.47-8.24s-8.24,2.75-8.6,8.24Z"/>
        <path class="cls-1" d="m99.16,44.96V13.59h3.73l.99,4c2.75-2.67,6.05-4,9.92-4v4.6c-3.74,0-6.78,1.33-9.11,3.97v22.79h-5.53Z"/>
        <path class="cls-1" d="m118.62,8.51h3.47l1.2,5.08h7.29v4.48h-6.42v18.01c0,2.93,1.27,4.39,3.79,4.39h2.63v4.48h-4.06c-5.26,0-7.89-2.82-7.89-8.45V8.51Z"/>
        <path class="cls-1" d="m134.31,29.27c0-10.45,4.98-15.68,14.94-15.68s14.94,5.23,14.94,15.68-4.98,15.65-14.94,15.65-14.9-5.22-14.94-15.65Zm14.94,11.2c6.27,0,9.41-3.77,9.41-11.32s-3.14-11.08-9.41-11.08-9.41,3.69-9.41,11.08,3.14,11.32,9.41,11.32Z"/>
        <path class="cls-1" d="m202.81,35.19c0-6.43,4.24-9.65,12.72-9.65,3.13,0,5.86.2,8.18.6v-2.96c0-3.41-2.82-5.11-8.45-5.11-3.23,0-6.53.5-9.92,1.49v-4.48c3.39-1,6.69-1.49,9.92-1.49,9.32,0,13.98,3.34,13.98,10.04v21.33h-2.81l-2.21-2.21c-2.73,1.47-5.93,2.21-9.62,2.21-7.87,0-11.8-3.26-11.8-9.77Zm12.72-5.17c-4.8,0-7.2,1.69-7.2,5.08,0,3.58,2.09,5.38,6.27,5.38,3.82,0,6.86-.82,9.11-2.45v-7.41c-2.19-.4-4.92-.6-8.18-.6Z"/>
        <path class="cls-1" d="m241.28,2.24v42.71h-5.53V2.24h5.53Z"/>
        <path class="cls-1" d="m247.02,14.88c4.16-.86,8.46-1.28,12.9-1.28,10.06,0,15.08,4.97,15.08,14.9,0,10.97-5.06,16.46-15.17,16.46-2.51,0-4.94-.5-7.29-1.49v12.84h-5.52V14.88Zm5.52,23.69c2.17,1.08,4.59,1.61,7.26,1.61,6.51,0,9.77-3.91,9.77-11.74,0-6.83-3.24-10.25-9.71-10.25-2.79,0-5.23.24-7.32.72v19.66Z"/>
        <path class="cls-1" d="m278.41,35.19c0-6.43,4.24-9.65,12.72-9.65,3.13,0,5.86.2,8.18.6v-2.96c0-3.41-2.82-5.11-8.45-5.11-3.22,0-6.53.5-9.92,1.49v-4.48c3.38-1,6.69-1.49,9.92-1.49,9.32,0,13.98,3.34,13.98,10.04v21.33h-2.81l-2.21-2.21c-2.73,1.47-5.94,2.21-9.62,2.21-7.87,0-11.8-3.26-11.8-9.77Zm12.72-5.17c-4.8,0-7.2,1.69-7.2,5.08,0,3.58,2.09,5.38,6.27,5.38,3.82,0,6.86-.82,9.11-2.45v-7.41c-2.19-.4-4.92-.6-8.18-.6Z"/>
        <path class="cls-1" d="m310.86,44.96V13.59h3.73l.99,4c2.75-2.67,6.05-4,9.92-4v4.6c-3.74,0-6.78,1.33-9.11,3.97v22.79h-5.53Z"/>
        <path class="cls-1" d="m327.53,35.19c0-6.43,4.24-9.65,12.73-9.65,3.13,0,5.85.2,8.18.6v-2.96c0-3.4-2.82-5.11-8.45-5.11-3.23,0-6.53.5-9.92,1.49v-4.48c3.39-1,6.69-1.49,9.92-1.49,9.32,0,13.98,3.34,13.98,10.04v21.33h-2.81l-2.21-2.21c-2.73,1.47-5.93,2.21-9.62,2.21-7.87,0-11.8-3.26-11.8-9.77Zm12.73-5.17c-4.8,0-7.2,1.69-7.2,5.08,0,3.58,2.09,5.38,6.27,5.38,3.82,0,6.86-.82,9.11-2.45v-7.41c-2.19-.4-4.92-.6-8.18-.6Z"/>
        <path class="cls-1" d="m369.44,0v4.48l-11.95,4.48v-4.48l11.95-4.48Zm-3.28,13.59v31.36h-5.53V13.59h5.53Z"/>
        <path class="cls-1" d="m373.05,43.46v-4.78c3.49,1.2,7.11,1.79,10.87,1.79,5,0,7.5-1.49,7.5-4.48,0-2.79-1.64-4.18-4.93-4.18h-5.08c-6.57,0-9.86-3.09-9.86-9.26s4.35-8.96,13.05-8.96c3.74,0,7.36.5,10.84,1.49v4.78c-3.49-1.2-7.1-1.79-10.84-1.79-5.22,0-7.83,1.49-7.83,4.48,0,2.79,1.54,4.18,4.63,4.18h5.08c6.97,0,10.45,3.09,10.45,9.26s-4.34,8.96-13.02,8.96c-3.77,0-7.39-.5-10.87-1.49Z"/>
        <path class="cls-1" d="m400.85,29.27c0-10.45,4.98-15.68,14.94-15.68s14.94,5.23,14.94,15.68-4.98,15.65-14.94,15.65-14.9-5.22-14.94-15.65Zm14.94,11.2c6.27,0,9.41-3.77,9.41-11.32s-3.14-11.08-9.41-11.08-9.41,3.69-9.41,11.08,3.14,11.32,9.41,11.32Z"/>
        <path class="cls-1" d="m203.59,57.29c-3.74-3.31-9.62-4.62-14.51-3.9-5.97.88-11.22,4.48-17.46,3.75,1.68,1.88,5.07,1.76,7.33,1.58,3.34-.27,6.36-1.26,9.44-2.49,3.29-1.3,6.84-1.5,10.29-.7,1.76.4,3.26,1.1,4.9,1.76"/>
        <path class="cls-1" d="m210.22,54.85c-12.44-10.27-29.89-9.13-44.41-4.51-4.67,1.49-9.33,3.52-14.16,4.42-7.42,1.39-15.23.29-22.55-1.14,4.31,4.06,11.76,4.91,17.36,5.3,8.85.62,16.72-1.11,25.07-3.81,6.33-2.05,12.91-4.19,19.63-4.29,6.56-.1,12.91,1.99,19.07,4.02"/>
        <path class="cls-1" d="m205.53,1.1h-6.99l-14.89,36.06L168.4,1.1h-7.08l18.69,43.82c1.06-.09,3.11-.18,7.01-.21L205.53,1.1Z"/>
      </g>
      <g>
        <path class="cls-1" d="m455.76,57.46c-.92-.53-1.91-.8-2.94-.8s-1.98.27-2.89.79c-.91.53-1.62,1.25-2.13,2.14-.51.9-.77,1.91-.77,3.01,0,1.63.57,3.02,1.7,4.14,1.12,1.12,2.5,1.69,4.09,1.69,1.07,0,2.07-.26,2.98-.78.9-.51,1.61-1.22,2.12-2.12.51-.9.76-1.91.76-3.01s-.26-2.09-.76-2.96c-.5-.88-1.23-1.59-2.15-2.12Z"/>
        <path class="cls-1" d="m383.68,57.46c-.92-.53-1.91-.8-2.94-.8s-1.98.27-2.89.79c-.91.53-1.62,1.25-2.13,2.14-.51.9-.77,1.91-.77,3.01,0,1.63.57,3.02,1.7,4.14,1.12,1.12,2.5,1.69,4.09,1.69,1.07,0,2.07-.26,2.98-.78.9-.51,1.61-1.22,2.12-2.12.51-.9.76-1.91.76-3.01s-.26-2.09-.76-2.96c-.51-.88-1.23-1.59-2.15-2.12Z"/>
        <path class="cls-1" d="m364.95,57.46c-.88-.27-2.39-.41-4.49-.41h-.53v11.06h1.2c2.01,0,3.41-.12,4.15-.36,1.01-.33,1.81-.92,2.39-1.77.58-.86.88-1.94.88-3.21,0-1.33-.32-2.48-.96-3.41-.63-.92-1.51-1.56-2.64-1.9Z"/>
        <path class="cls-1" d="m292.74,60.16c.22-.34.32-.7.32-1.12s-.11-.76-.32-1.08c-.21-.32-.49-.55-.83-.68-.26-.1-.81-.23-2.01-.23h-2.12v4.04l2.06.02c1.15,0,1.74-.14,2.02-.25.37-.14.67-.38.87-.7Z"/>
        <path class="cls-1" d="m474.18,46.94l-209.35,2.57c-4.22,0-8.22,3.3-7.65,7.42l2.39,11.24c.87,4.07,3.42,7.42,7.65,7.42l204.33,1.6c4.22,0,6.7-3,7.65-7.42l2.64-15.4c.61-4.19-3.42-7.42-7.65-7.42Zm-191.1,20.85c-.8,1.01-1.8,1.81-2.99,2.36-1.19.55-2.53.83-3.98.83-2.78,0-5-.94-6.62-2.81-1.35-1.57-2.04-3.49-2.04-5.7,0-2.34.83-4.34,2.47-5.93,1.63-1.59,3.71-2.4,6.16-2.4,1.48,0,2.84.3,4.03.88,1.2.59,2.21,1.43,2.98,2.5l.3.42-2.01,1.55-.33-.42c-.6-.78-1.33-1.38-2.16-1.78-1.77-.84-4.05-.82-5.85.19-.93.53-1.66,1.24-2.18,2.12-.51.88-.77,1.9-.77,3.01,0,1.67.58,3.08,1.72,4.2,1.15,1.12,2.62,1.69,4.38,1.69,1.93,0,3.57-.77,4.87-2.29l.32-.38,2.02,1.53-.34.43Zm10.16,2.81l-.16-.21-5.3-6.76v6.97h-2.57v-16.08h3.52c1.72,0,2.87.07,3.51.22,1,.23,1.83.73,2.46,1.49.64.77.96,1.72.96,2.82,0,.92-.22,1.74-.66,2.44-.43.71-1.07,1.25-1.89,1.61-.56.25-1.27.41-2.12.49l5.43,7.01h-3.21Zm14.27-13.54h-7.1v3.64h7.04v2.53h-7.04v4.84h7.04v2.53h-9.61v-16.08h9.67v2.54Zm16.46,10.73c-.8,1.01-1.8,1.81-2.99,2.36-1.19.55-2.53.83-3.98.83-2.78,0-5-.94-6.62-2.81-1.35-1.57-2.04-3.49-2.04-5.7,0-2.34.83-4.34,2.47-5.93,1.63-1.59,3.71-2.4,6.16-2.4,1.48,0,2.84.3,4.03.88,1.2.59,2.21,1.43,2.98,2.5l.3.42-2.01,1.55-.33-.42c-.6-.78-1.33-1.38-2.16-1.78-1.77-.84-4.05-.82-5.85.19-.93.53-1.66,1.24-2.18,2.12-.51.88-.77,1.9-.77,3.01,0,1.67.58,3.08,1.72,4.2,1.15,1.12,2.62,1.69,4.38,1.69,1.93,0,3.57-.77,4.87-2.29l.32-.38,2.02,1.53-.34.43Zm4.41,2.81h-2.57v-16.08h2.57v16.08Zm12.06-13.54h-7.1v3.64h7.04v2.53h-7.04v4.84h7.04v2.53h-9.61v-16.08h9.67v2.54Zm14.4,13.54h-1.11l-.1-.12-9.03-10.36v10.48h-2.62v-16.08h1.11l.11.12,9.11,10.49v-10.61h2.54v16.08Zm15.26-3.62c-.7,1.23-1.63,2.15-2.75,2.74-1.1.58-2.66.87-4.61.87h-5.31v-16.08h3.65c2.33,0,3.99.19,5.07.57,1.56.55,2.8,1.51,3.68,2.86.87,1.34,1.32,2.96,1.32,4.79,0,1.59-.35,3.01-1.04,4.23Zm16.66,1.54c-1.63,1.63-3.64,2.45-5.97,2.45s-4.38-.82-6.02-2.44c-1.63-1.62-2.45-3.61-2.45-5.91,0-1.53.37-2.97,1.12-4.27.74-1.31,1.77-2.35,3.05-3.09,1.28-.74,2.68-1.12,4.18-1.12,2.41,0,4.45.82,6.08,2.43,1.63,1.62,2.46,3.63,2.46,5.98s-.82,4.34-2.45,5.97Zm17.66-3.34c0,1.61-.13,2.77-.4,3.45-.28.71-.76,1.29-1.41,1.71-.65.42-1.44.63-2.34.63-.67,0-1.34-.13-1.99-.39-.64-.25-1.34-.7-2.1-1.33l-.37-.31,1.36-2.05.45.31c.75.53,1.38.9,1.86,1.11.61.27,1.18.23,1.65-.1.26-.2.44-.44.54-.77.08-.26.19-.87.19-2.32v-10.62h2.57v10.67Zm13.64-1.07c0,1.39-.14,2.54-.42,3.41-.29.92-.88,1.74-1.75,2.42-.88.69-1.95,1.03-3.19,1.03-1.32,0-2.46-.32-3.41-.96-.96-.65-1.62-1.52-1.95-2.58-.2-.65-.3-1.73-.3-3.32v-9.6h2.57v9.6c0,1.36.04,1.79.06,1.93.07.52.21.94.43,1.26.22.32.57.6,1.05.82.91.44,1.86.47,2.68.09.38-.18.7-.42.96-.73.26-.32.44-.7.57-1.16.05-.19.13-.73.13-2.21v-9.6h2.56v9.6Zm15.51,6.48h-1.11l-.1-.12-9.03-10.36v10.48h-2.62v-16.08h1.1l.11.12,9.11,10.49v-10.61h2.55v16.08Zm10.39-13.54h-3.35v13.54h-2.6v-13.54h-3.35v-2.54h9.29v2.54Zm14.88,11.47c-1.63,1.63-3.64,2.45-5.97,2.45s-4.38-.82-6.02-2.44c-1.63-1.62-2.45-3.61-2.45-5.91,0-1.53.37-2.97,1.12-4.27.74-1.31,1.77-2.35,3.05-3.09,1.28-.74,2.68-1.12,4.18-1.12,2.41,0,4.45.82,6.08,2.43,1.63,1.62,2.46,3.63,2.46,5.98s-.82,4.34-2.45,5.97Zm11.29,1.1c-.92.9-2.06,1.36-3.39,1.36-1.02,0-1.95-.28-2.77-.82-.82-.53-1.57-1.42-2.23-2.63l-.25-.45,2.2-1.32.26.5c.79,1.46,1.68,2.2,2.64,2.2.42,0,.81-.1,1.17-.29.36-.19.62-.43.81-.74.18-.32.27-.64.27-.99,0-.39-.14-.78-.41-1.17-.43-.62-1.26-1.39-2.46-2.29-1.3-.99-2.1-1.69-2.45-2.16-.6-.8-.9-1.68-.9-2.61,0-.75.18-1.44.55-2.06.35-.62.87-1.11,1.53-1.47,1.33-.73,3-.71,4.36.07.69.39,1.38,1.07,2.12,2.08l.31.42-2.07,1.57-.32-.43c-.51-.69-.95-1.14-1.29-1.34-.32-.19-.65-.28-1.02-.28-.47,0-.83.13-1.12.41-.28.27-.41.58-.41.97,0,.25.05.49.16.73.11.25.33.54.63.84.17.16.8.65,1.88,1.45,1.34.99,2.29,1.9,2.81,2.7h0c.53.84.81,1.7.81,2.55,0,1.23-.47,2.32-1.4,3.22Z"/>
      </g>
    </g>
  </g>
</svg>