<?xml version="1.0" encoding="utf-8"?>
<!-- Generator: Adobe Illustrator 27.2.0, SVG Export Plug-In . SVG Version: 6.00 Build 0)  -->
<svg version="1.1" id="Capa_1" xmlns="http://www.w3.org/2000/svg" xmlns:xlink="http://www.w3.org/1999/xlink" x="0px" y="0px"
	 viewBox="0 0 1104 312" style="enable-background:new 0 0 1104 312;" xml:space="preserve">
<style type="text/css">
	.st0{opacity:0.26;}
	.st1{fill:#FFFFFF;}
	.st2{opacity:0.94;}
	.st3{fill:#F4F4EF;}
	.st4{opacity:0.66;}
	.st5{fill:#EFEED8;}
	.st6{opacity:0.44;}
	.st7{fill-rule:evenodd;clip-rule:evenodd;fill:#EFEED8;}
</style>
<g id="Capa_2_00000074422070063811824610000010443705095524560257_">
	<g class="st0">
		<path class="st1" d="M767.9,201.2V222h4.3v-7.7h2.8c2.6,0,4.4-0.7,5.6-1.8c1.7-1.6,1.8-3.8,1.8-4.7c0-1.5-0.5-3.5-2.3-5
			c-1.6-1.3-3.4-1.6-5.9-1.6H767.9z M772.3,204.7h1.5c1,0,2.2,0.1,3.1,0.7c0.6,0.4,1.2,1.2,1.2,2.4c0,0.9-0.4,1.8-1.2,2.4
			c-0.9,0.7-2,0.7-2.8,0.7h-1.8V204.7z"/>
		<path class="st1" d="M825.3,201.2v12.7c0,2,0.3,4,1.7,5.6c1.6,2,4.4,3,7.3,3s5.7-1,7.3-3c1.3-1.6,1.7-3.6,1.7-5.6v-12.7H839v13.1
			c0,1.6-0.6,2.6-1.1,3.1c-0.6,0.7-1.8,1.4-3.5,1.4c-1.7,0-2.9-0.7-3.5-1.4c-0.5-0.5-1.1-1.5-1.1-3.1v-13.1H825.3z"/>
		<path class="st1" d="M904,216.5c-1.3,1.4-3.1,2.3-5.2,2.3c-3.7,0-7.5-2.5-7.5-7.1c0-3.8,2.9-7.3,7.4-7.3c0.8,0,3.3,0.2,5.4,2.3
			v-4.8c-2-1-3.9-1.3-5.5-1.3c-3.2,0-5.9,0.8-8.2,2.7c-1.9,1.7-3.6,4.4-3.6,8.2c0,3.1,1,5.7,3.6,8c1.9,1.7,4.2,2.9,8.1,2.9
			c2.4,0,4.2-0.6,5.5-1.2V216.5z"/>
		<path class="st1" d="M945.1,201.2l9.3,20.8h2.6l9.4-20.8h-4.7l-5.9,14l-5.9-14H945.1z"/>
	</g>
</g>
<g id="CENTRO_DE_ARTES_DIGITALES_00000013875820712459761770000015360810743531299768_" class="st2">
	<path class="st3" d="M409.7,156c-1.8,1.7-3.4,2.1-4.6,2.1c-2.5,0-3.9-1.3-4.3-1.7c-0.9-0.9-1.7-2.3-1.7-4.4c0-1.9,0.8-3.5,1.9-4.6
		c1-1,2.4-1.6,4.1-1.6c2.1,0,3.7,1.1,4.7,2.1v-5.3c-1.9-0.8-3.5-1.1-4.8-1.1c-3.1,0-5.7,1.2-7.5,2.9s-3.1,4.4-3.1,7.5
		c0,3.2,1.3,5.9,3.1,7.6c1.7,1.7,4.2,2.9,7.9,2.9c1.2,0,2.6-0.2,4.4-1.1V156H409.7z M432.3,141.9H421v20h11.3V158h-6.7v-4.4h6.4
		v-3.9h-6.4v-3.9h6.7V141.9z M448.1,161.9v-13l10.9,13h4v-20h-4.6v12.9l-10.9-12.9h-4v20H448.1z M486.2,145.8v-3.9h-13.3v3.9h4.4
		v16.1h4.6v-16.1H486.2z M496.2,141.9v20h4.6V154l5.4,7.9h5.6l-6.1-8.2c1.1-0.3,2.1-0.9,2.8-1.5c1.3-1.3,1.6-2.8,1.6-4.1
		c0-2.2-0.9-3.7-1.7-4.5c-1-0.9-2.6-1.7-5.1-1.7H496.2z M500.8,145.5h1.1c0.6,0,1.8,0.1,2.6,0.6c0.4,0.3,0.9,0.9,0.9,2
		c0,1-0.4,1.6-0.8,2c-0.8,0.8-1.9,0.9-2.8,0.9h-1V145.5z M531.9,141.4c-4,0-6.5,1.6-7.8,2.9c-1.8,1.8-3.1,4.7-3.1,7.6
		c0,2.9,1.2,5.6,3.1,7.4c1.5,1.4,4,2.9,7.8,2.9c3.4,0,5.9-1.1,7.7-2.9c2.2-2.1,3.1-4.8,3.1-7.5c0-3.1-1.2-5.7-3.1-7.6
		C537.6,142.4,535,141.4,531.9,141.4z M531.9,145.7c1.8,0,3.4,0.8,4.4,1.7c0.9,0.9,1.7,2.4,1.7,4.5c0,2.3-1,3.7-1.7,4.5
		c-1,1-2.4,1.7-4.4,1.7c-1.6,0-3-0.4-4.3-1.7c-1.2-1.2-1.8-2.7-1.8-4.5c0-2.2,0.9-3.7,1.8-4.5C528.6,146.3,530.1,145.7,531.9,145.7z
		"/>
	<path class="st3" d="M768.5,141.9v20h6.5c1.7,0,5.1-0.2,7.9-3c1.7-1.6,2.7-3.9,2.7-7.1c0-3.1-1.1-5.5-2.9-7.2
		c-2.5-2.4-5.2-2.8-7.9-2.8h-6.3V141.9z M773.1,145.8h1.2c1.4,0,3.4,0.2,4.9,1.7c0.8,0.8,1.7,2.2,1.7,4.3c0,2.2-0.9,3.9-2,4.8
		c-1.5,1.3-3.6,1.4-4.6,1.4h-1.2L773.1,145.8L773.1,145.8z M796.6,141.9v20h4.6v-20H796.6z M822.9,154.7h4.8
		c-0.4,1.5-1.3,2.2-1.4,2.4c-0.4,0.4-1.5,1.1-3.5,1.1c-1.5,0-2.9-0.4-4-1.6c-0.8-0.8-1.7-2.3-1.7-4.6c0-1.9,0.6-3.6,1.7-4.7
		c1-1,2.3-1.6,4.1-1.6c1.1,0,2.2,0.3,3.1,1c0.8,0.6,1.4,1.4,1.8,2.2l4.2-2.2c-0.7-1.3-1.9-2.7-3.2-3.6c-1.9-1.2-4-1.5-5.6-1.5
		c-2.4,0-5.4,0.4-7.9,2.9c-1.7,1.7-2.9,4.3-2.9,7.6c0,4,1.8,6.4,2.9,7.6c2.3,2.4,4.9,2.8,7.3,2.8c2.4,0,4.9-0.4,7.1-2.7
		c2.2-2.3,3.1-6,3.1-8.4V151h-9.9L822.9,154.7L822.9,154.7z M843.8,141.9v20h4.6v-20H843.8z M871.8,145.8v-3.9h-13.3v3.9h4.3v16.1
		h4.6v-16.1H871.8z M893.7,161.9h4.8l-7.9-20h-4.2l-8.1,20h4.8l1.5-3.8h7.6L893.7,161.9z M886,154.6l2.5-6.7l2.5,6.7H886z
		 M908.2,141.9v20H919V158h-6.2v-16.1H908.2z M940.5,141.9h-11.3v20h11.3V158h-6.7v-4.4h6.4v-3.9h-6.4v-3.9h6.7V141.9z M964.1,143.4
		c-2.3-1.7-4.6-2-5.9-2c-1.9,0-3.5,0.4-4.9,1.8c-1.2,1.2-1.7,2.7-1.7,4.5c0,1,0.2,2.4,1.2,3.5c0.8,0.8,1.9,1.3,2.8,1.6l1.6,0.6
		c0.6,0.2,1.8,0.7,2.3,1.1c0.4,0.4,0.7,0.8,0.7,1.4c0,0.8-0.3,1.3-0.7,1.6c-0.7,0.6-1.5,0.7-2.1,0.7c-0.9,0-1.7-0.2-2.5-0.7
		c-0.5-0.3-1.3-1-1.9-1.5l-2.4,3.3c0.8,0.8,1.9,1.7,2.9,2.2c1.3,0.6,2.5,0.8,4,0.8c1.3,0,3.9-0.2,5.7-2c1.1-1.1,1.8-2.9,1.8-4.9
		c0-1.2-0.3-2.6-1.5-3.7c-0.8-0.8-1.9-1.2-2.7-1.5l-1.5-0.6c-1.3-0.5-2-0.7-2.5-1.1c-0.3-0.3-0.4-0.6-0.4-1.1s0.2-1,0.5-1.3
		c0.5-0.6,1.3-0.7,2-0.7c0.6,0,1.9,0.1,3.4,1.4L964.1,143.4z"/>
	<path class="st3" d="M568.2,141.9v20h6.5c1.7,0,5.1-0.2,7.9-3c1.7-1.6,2.7-3.9,2.7-7.1c0-3.1-1.1-5.5-2.9-7.2
		c-2.5-2.4-5.2-2.8-7.9-2.8h-6.3V141.9z M572.8,145.8h1.2c1.4,0,3.4,0.2,4.9,1.7c0.8,0.8,1.7,2.2,1.7,4.3c0,2.2-0.9,3.9-1.9,4.8
		c-1.5,1.3-3.6,1.4-4.6,1.4h-1.2v-12.2H572.8z M607.5,141.9h-11.3v20h11.3V158h-6.7v-4.4h6.4v-3.9h-6.4v-3.9h6.7V141.9z
		 M646.5,161.9h4.8l-7.9-20h-4.2l-8.1,20h4.8l1.5-3.8h7.6L646.5,161.9z M638.8,154.6l2.5-6.7l2.5,6.7H638.8z M661.1,141.9v20h4.6
		V154l5.4,7.9h5.6l-6.2-8.2c1.1-0.3,2.1-0.9,2.8-1.5c1.3-1.3,1.6-2.8,1.6-4.1c0-2.2-0.9-3.7-1.7-4.5c-1-0.9-2.6-1.7-5.1-1.7H661.1z
		 M665.7,145.5h1.1c0.6,0,1.8,0.1,2.6,0.6c0.4,0.3,0.9,0.9,0.9,2c0,1-0.4,1.6-0.8,2c-0.8,0.8-1.9,0.9-2.8,0.9h-1.1L665.7,145.5
		L665.7,145.5z M697.5,145.8v-3.9h-13.3v3.9h4.3v16.1h4.6v-16.1H697.5z M718.8,141.9h-11.3v20h11.3V158h-6.7v-4.4h6.4v-3.9h-6.4
		v-3.9h6.7V141.9z M742.4,143.4c-2.3-1.7-4.6-2-5.9-2c-1.9,0-3.5,0.4-5,1.8c-1.2,1.2-1.7,2.7-1.7,4.5c0,1,0.2,2.4,1.2,3.5
		c0.8,0.8,1.9,1.3,2.8,1.6l1.7,0.6c0.6,0.2,1.8,0.7,2.3,1.1c0.4,0.4,0.7,0.8,0.7,1.4c0,0.8-0.3,1.3-0.7,1.6
		c-0.7,0.6-1.5,0.7-2.1,0.7c-0.9,0-1.7-0.2-2.5-0.7c-0.5-0.3-1.3-1-1.9-1.5l-2.4,3.3c0.8,0.8,1.9,1.7,2.9,2.2c1.3,0.6,2.5,0.8,4,0.8
		c1.3,0,3.9-0.2,5.7-2c1.1-1.1,1.8-2.9,1.8-4.9c0-1.2-0.3-2.6-1.5-3.7c-0.8-0.8-1.9-1.2-2.7-1.5l-1.5-0.6c-1.3-0.5-2-0.7-2.5-1.1
		c-0.3-0.3-0.5-0.6-0.5-1.1s0.2-1,0.5-1.3c0.5-0.6,1.3-0.7,2-0.7c0.6,0,1.9,0.1,3.4,1.4L742.4,143.4z"/>
</g>
<g id="Union" class="st4">
	<path class="st5" d="M264,94.5L317,64l17.1,9.8l-52.6,30.8L264,94.5z"/>
	<path class="st5" d="M194,96.6l0.1-0.1l52.3,30.1l17.5-9.8l-59.5-34.2l-9.7-5.6l0,0l-0.1-0.1v0.2L177.7,87l-53.5,29.9l17.4,10
		L194,96.6z"/>
	<path class="st5" d="M229.1,197l-17.4,10.4l17.4,10.3l17.4-10.3L229.1,197z"/>
	<path class="st5" d="M159,197.3l35.2-19.9l17.1,9.8L159,217.5V197.3z"/>
	<path class="st5" d="M282,205.4l35.1-20.9l-17.8-10l-34.7,20.6L282,205.4z"/>
	<path class="st5" d="M211.6,146.5l-17.5,10.4l34.4,20l17.4-10L211.6,146.5z"/>
</g>
<g id="Union_2" class="st6">
	<path class="st5" d="M334.1,73.8l-52.6,30.8v20.2l35.3-20.6v80.6L282,205.4v20.2l52.1-31V73.8z"/>
	<path class="st5" d="M229,177.3l-17.5,10v20.2l17.5-10.1V177.3z"/>
	<path class="st5" d="M246.5,126.8l17.3-10.3v120.8l-17.3,10.3L246.5,126.8L246.5,126.8z"/>
	<path class="st5" d="M141.6,126.9L194,96.6v20.2L159,137v80.5l17.5-10l17.5-10.1v20.2l-17.5,10.1l-17.5,10l-17.4,10.1V126.9z"/>
</g>
<g id="Union_3">
	<path class="st5" d="M281.5,104.6l-17.5-10v20.2l17.5,10V104.6z"/>
	<path class="st5" d="M316.8,104l-17.5,10.5v60.2l17.5,10.1V104z"/>
	<path class="st5" d="M141.6,126.9l-17.4-10l-0.1,121l17.5,10.1V126.9z"/>
	<path class="st5" d="M264.5,195.3l17.5,10v20.2l-17.5-10V195.3z"/>
	<path class="st7" d="M246.1,126l-52-29.5v20.2l34.9,19.7V177l-26.9-15.3l-8.1-5.1v60.9l17.4,10.1v-0.2l17.5,10.1v0.1l17.5,10v-0.1
		l0.1,0.1l-0.1-0.2v-39.9l0.1,0.1V187l-0.1-0.1v-60.4l-0.4-0.2V126H246.1z M211.5,207.3l17.5,10v-20l-17.5-10.1V207.3z"/>
</g>
</svg>
