<svg width="539" height="145" viewBox="0 0 539 145" fill="none" xmlns="http://www.w3.org/2000/svg">
<g clip-path="url(#clip0_1317_416)">
<rect width="539" height="145"/>
<path d="M345.52 98.31C365.31 107.2 388 107.97 408.58 101.46C422.11 97.13 434.64 90.24 446.09 81.85C438.53 81.09 430.95 80.54 423.36 80.24L422.4 80.21C410.11 79.75 397.8 79.93 385.54 80.86L390.86 95.25H370.94L375.93 81.75C372.41 82.13 368.89 82.58 365.38 83.09C355.29 84.5 345.3 86.67 335.34 89.13L333.77 92.58C337.62 94.64 341.52 96.58 345.52 98.32V98.31Z" fill="white"/>
<path d="M185.89 74.24C214.78 79.68 251.54 87.71 280.71 90.79C282.75 86.7 281.35 67.31 278.01 64.31C265.37 59.61 252.08 56.71 238.61 55.82C223.74 54.57 208.96 56.53 194.35 59.36C192.52 61.65 190.85 64.09 189.37 66.72C187.75 69.59 186.94 71.16 185.89 74.24V74.24ZM223.26 70.72C226.38 68.44 230.1 67.3 234.39 67.3C238.68 67.3 242.82 68.44 246.4 70.72C249.98 73 251.77 76.48 251.77 81.17L217.45 79.45C218.88 74.76 220.13 73 223.25 70.72H223.26Z" fill="white"/>
<path d="M380.91 68.29L384.27 77.38C396.54 76.63 408.86 76.66 421.14 77.41L390.1 9.31H371.74L337.57 84.26C350.65 81.13 363.97 79.04 377.37 77.89L380.92 68.29H380.91Z" fill="white"/>
<path d="M117.42 66.35C108.22 65.75 99.01 65.52 89.8 65.58V80C85.73 75.3 79.82 71.46 72.07 68.49L66.35 66.34C62.56 66.56 58.77 66.8 54.98 67.1C38.66 68.36 22.09 70.78 5.70001 73.52C7.08001 75.73 8.76001 77.83 10.74 79.81C14.77 83.85 20.44 87.04 27.73 89.38L46.28 95.24C47.11 95.49 47.9 95.75 48.65 96.01C70.87 87.36 99.21 78.94 123.49 72.75L123.47 66.83C121.45 66.65 119.43 66.48 117.41 66.34L117.42 66.35Z" fill="white"/>
<path d="M503.25 94.07C511.84 91.73 518.91 87.36 524.44 80.98C529.97 74.6 532.74 66.53 532.74 56.76C532.74 49.08 531.21 42.37 528.15 36.64C525.09 30.91 521.02 26.16 515.94 22.38C510.86 18.6 505.16 15.81 498.85 13.98C492.53 12.16 486.06 11.25 479.42 11.25H423.37V77.54C431.71 78.11 440.02 79.01 448.27 80.23C453.5 76.26 458.51 71.99 463.27 67.52C465.94 65.15 468.52 62.45 471.03 59.91C471.07 59.87 471.11 59.83 471.15 59.79C469.1 57.82 467.82 55.06 467.82 51.99C467.82 46.01 472.67 41.16 478.65 41.16C484.63 41.16 489.48 46.01 489.48 51.99C489.48 57.97 484.63 62.82 478.65 62.82C476.4 62.82 474.31 62.13 472.58 60.96C472.51 61.04 472.44 61.12 472.37 61.19C469.94 63.85 467.24 66.51 464.67 68.99C460.46 73.08 456.05 77.01 451.44 80.71C453.4 81.02 455.36 81.35 457.32 81.69C458.05 80.54 459.32 79.78 460.78 79.78C463.05 79.78 464.88 81.62 464.88 83.88C464.88 86.14 463.04 87.98 460.78 87.98C458.52 87.98 456.68 86.14 456.68 83.88C456.68 83.6 456.71 83.32 456.76 83.05C454.36 82.75 451.96 82.47 449.56 82.21C437.47 91.66 424.07 99.43 409.38 104.03C388.19 110.77 364.79 109.9 344.62 100.33C340.64 98.49 336.77 96.45 332.97 94.3L313.55 136.89V93.81C310.25 94.3 306.93 94.62 303.59 94.69C271.98 95.35 240.8 88.71 210.01 82.41C190.5 78.37 171.04 75.71 151.4 72.4L151.31 93.28C151.31 100.05 150.24 105 148.09 108.12C145.94 111.24 142.39 112.81 137.45 112.81C132.51 112.81 128.95 111.25 126.81 108.12C124.67 104.99 123.59 100.05 123.59 93.28L123.52 75.99C114.54 78.33 105.59 80.77 96.69 83.38C81.8 87.73 67.03 92.48 52.39 97.6C53.23 98.03 54 98.48 54.69 98.95C56.77 100.38 57.81 102.07 57.81 104.03C57.81 106.76 56.41 108.69 53.61 109.79C50.81 110.9 47.13 111.45 42.57 111.45C35.28 111.45 28.02 109.95 20.79 106.96C13.56 103.97 6.83002 100.12 0.580017 95.44V130.79C6.31002 134.83 13.01 138.21 20.7 140.95C28.38 143.68 36.13 145.05 43.94 145.05C54.1 145.05 63.28 143.19 71.48 139.48C79.68 135.77 86.19 130.69 91.01 124.25C91.9 123.07 92.67 121.84 93.39 120.59C94.13 122.24 94.97 123.82 95.94 125.33C100.04 131.71 105.67 136.59 112.83 139.98C119.99 143.36 128.19 145.06 137.44 145.06C146.69 145.06 154.89 143.37 162.05 139.98C169.21 136.6 174.84 131.71 178.94 125.33C181.93 120.68 183.81 115.34 184.62 109.31C185.25 111.37 186 113.36 186.91 115.27C189.9 121.59 194.01 126.96 199.21 131.38C204.42 135.81 210.31 139.19 216.89 141.54C223.46 143.88 230.27 145.06 237.3 145.06C244.72 145.06 251.39 144.02 257.32 141.94C263.24 139.86 267.9 137.77 271.28 135.69V106.98C268.55 108.54 264.41 110.4 258.88 112.55C253.34 114.7 246.8 115.77 239.25 115.77C233.65 115.77 228.7 114.6 224.41 112.25C221.02 110.4 218.52 107.78 216.91 104.38C216.28 103.05 217.26 101.5 218.74 101.5H279.95V142.12H353.75L360.2 124.54H401.61L408.06 142.12H459.89L458.16 97.71C458.16 97.71 457.9 95.71 459.71 95.16C461.52 94.31 462.68 96.36 462.68 96.36L494.84 142.12H539.37L503.24 94.07H503.25ZM482.53 77.56C480.16 77.56 478.24 75.64 478.24 73.27C478.24 70.9 480.16 68.98 482.53 68.98C484.9 68.98 486.82 70.9 486.82 73.27C486.82 75.64 484.9 77.56 482.53 77.56Z" fill="white"/>
<path d="M277.33 62.1C273.24 54.72 267.59 48.96 260.37 44.83C253.08 40.66 244.75 38.58 235.37 38.58C225.34 38.58 216.33 41.05 208.32 46C203.92 48.72 200.06 51.94 196.68 55.64C205.76 54.14 214.9 53.06 224.11 52.91C242.26 52.64 260.31 55.94 277.34 62.1H277.33Z" fill="white"/>
<path d="M313.56 79.46V0H279.97V62.59C287.2 65.35 294.24 68.6 301.01 72.34C305.24 74.61 309.41 77.02 313.57 79.46H313.56Z" fill="white"/>
<path d="M185.11 58.75V42.5H151.52L151.43 66.09C161.16 63.83 170.92 61.66 180.72 59.62C182.18 59.32 183.65 59.03 185.12 58.74L185.11 58.75Z" fill="white"/>
<path d="M58.29 63.31L58.01 63.21C52.54 61.13 47.92 59.27 44.14 57.64C40.36 56.01 38.48 53.57 38.48 50.32C38.48 47.33 40.04 45.18 43.17 43.87C46.29 42.57 50.01 41.92 54.3 41.92C61.72 41.92 68.17 43.13 73.64 45.53C78.97 47.88 84.35 50.63 89.8 53.78V62.37C101.05 62.57 112.3 63.37 123.48 64.85L123.39 42.51H90.23V18.68C85.67 15.56 79.65 13.05 72.16 11.16C64.67 9.26996 57.09 8.32996 49.41 8.32996C40.94 8.32996 32.94 9.95996 25.39 13.21C17.84 16.47 11.72 21.25 7.03 27.57C2.34 33.88 0 41.66 0 50.9C0 56.11 0.78 61.22 2.34 66.23C2.87 67.92 3.54 69.55 4.35 71.12C5.56 70.89 6.76 70.65 7.97 70.42C24.55 67.04 41.38 64.58 58.28 63.3L58.29 63.31Z" fill="white"/>
</g>
<defs>
<clipPath id="clip0_1317_416">
<rect width="539" height="145" fill="white"/>
</clipPath>
</defs>
</svg>
