<?xml version="1.0" encoding="utf-8"?>
<!-- Generator: Adobe Illustrator 27.1.1, SVG Export Plug-In . SVG Version: 6.00 Build 0)  -->
<svg version="1.1" id="Capa_1" xmlns="http://www.w3.org/2000/svg" xmlns:xlink="http://www.w3.org/1999/xlink" x="0px" y="0px"
	 viewBox="0 0 688 112.5" style="enable-background:new 0 0 688 112.5;" xml:space="preserve">
<style type="text/css">
	.st0{fill:#FFFFFF;}
	.st1{opacity:0.15;fill:#FFFFFF;enable-background:new    ;}
	.st2{fill:url(#SVGID_1_);}
	.st3{fill:url(#SVGID_00000145019231769629482090000013174187154145268914_);}
	.st4{opacity:0.63;fill:#FFFFFF;enable-background:new    ;}
	.st5{opacity:0.14;fill:#FFFFFF;enable-background:new    ;}
	.st6{opacity:0.6;fill:#FFFFFF;enable-background:new    ;}
	.st7{fill:url(#SVGID_00000160174209562546943750000016600330208235909564_);}
	.st8{fill:url(#SVGID_00000011744076617200228870000007498618361786430349_);}
</style>
<g>
	<path class="st0" d="M131.1,78.5V40.7l8.2-4.8c3.7-2.1,10.1-5.3,15.4-3.6c4.4,1.5,6,6,6,10.2s-1.6,10.5-6,17.1
		c-5.2,7.8-11.7,12-15.4,14.1L131.1,78.5L131.1,78.5z M133.8,74.6l5.4-3.1c11-6.3,18.5-17.5,18.5-27.3s-7.6-12.3-18.5-6l-5.4,3.1
		C133.8,41.4,133.8,74.6,133.8,74.6z"/>
	<polygon class="st1" points="122.1,35.7 131.1,40.7 131.1,78.5 122.1,73.5 	"/>
	
		<linearGradient id="SVGID_1_" gradientUnits="userSpaceOnUse" x1="121.12" y1="45.2399" x2="181.3699" y2="80.9999" gradientTransform="matrix(1 0 0 -1 0 111.8898)">
		<stop  offset="0" style="stop-color:#FFFFFF"/>
		<stop  offset="0.56" style="stop-color:#FFFFFF;stop-opacity:0"/>
	</linearGradient>
	<path class="st2" d="M133.9,64.1v10.5c0,0,7.5-3.9,10.8-6.8s9.1-8,11.7-15.8c2.1-6.2,2.2-10,0-13.7c-2.6-4.4-8.3-3.3-8.3-3.3
		s0.9,2.1,0.6,5.8c-0.4,5-2.4,9.5-6.1,15C140.9,58.1,138.3,60.4,133.9,64.1z"/>
	
		<linearGradient id="SVGID_00000082364089210557192910000001046024173896478869_" gradientUnits="userSpaceOnUse" x1="161.3051" y1="95.2733" x2="99.4951" y2="47.0633" gradientTransform="matrix(1 0 0 -1 0 111.8898)">
		<stop  offset="0" style="stop-color:#FFFFFF"/>
		<stop  offset="6.000000e-02" style="stop-color:#FFFFFF;stop-opacity:0.96"/>
		<stop  offset="0.16" style="stop-color:#FFFFFF;stop-opacity:0.84"/>
		<stop  offset="0.3" style="stop-color:#FFFFFF;stop-opacity:0.66"/>
		<stop  offset="0.46" style="stop-color:#FFFFFF;stop-opacity:0.4"/>
		<stop  offset="0.65" style="stop-color:#FFFFFF;stop-opacity:8.000000e-02"/>
		<stop  offset="0.69" style="stop-color:#FFFFFF;stop-opacity:0"/>
	</linearGradient>
	<path style="fill:url(#SVGID_00000082364089210557192910000001046024173896478869_);" d="M155.5,32.7c0,0-6.4-3.8-8.7-4.8
		c-2.3-1-3.7-1.1-6-0.9c-2,0.1-5,1.2-7.8,2.5c-2.7,1.3-10.9,6.2-10.9,6.2l9.1,5c0,0,7.8-4.8,13.2-7.3
		C150.9,30.4,155.5,32.7,155.5,32.7L155.5,32.7z"/>
</g>
<g>
	<path class="st0" d="M97.3,69.9L79.6,59.7l-5.6,9.2l-3-1.7l17.5-28.8l17.3,48.9l-3-1.7C102.9,85.6,97.3,69.9,97.3,69.9z M96.3,67.1
		l-7.8-22.4L80.7,58L96.3,67.1z"/>
	<polygon class="st4" points="98.1,33 88.6,38.4 105.9,87.3 115.4,81.9 	"/>
	<polygon class="st5" points="74.1,68.9 83.6,63.6 84.3,62.4 79.6,59.7 	"/>
	<polygon class="st5" points="80.6,58 90.2,52.7 90.9,51.4 88.6,44.7 	"/>
	<polygon class="st6" points="96.3,67.1 80.6,58 90.2,52.7 91.6,53.5 	"/>
</g>
<g>
	<path class="st0" d="M66.1,34.1c-3.6-1.7-8.7-0.9-14,2.2c-10.7,6.2-18.7,18.5-18.7,28.1c0,11.2,10.3,11.1,18.7,6.3
		c4.2-2.4,9.8-7.2,14-13.8v3.3c-4.2,5.8-9.4,10.1-13.9,12.7c-12.5,7.2-21.7,3.6-21.7-6.9s9.6-25,21.6-31.9c7.9-4.6,12.7-3.5,14-3.1
		L66.1,34.1L66.1,34.1z"/>
	
		<linearGradient id="SVGID_00000124122284993404815850000004489001762914808232_" gradientUnits="userSpaceOnUse" x1="33.3381" y1="37.903" x2="72.2181" y2="61.613" gradientTransform="matrix(1 0 0 -1 0 111.8898)">
		<stop  offset="0" style="stop-color:#FFFFFF"/>
		<stop  offset="6.000000e-02" style="stop-color:#FFFFFF;stop-opacity:0.88"/>
		<stop  offset="0.21" style="stop-color:#FFFFFF;stop-opacity:0.62"/>
		<stop  offset="0.34" style="stop-color:#FFFFFF;stop-opacity:0.4"/>
		<stop  offset="0.47" style="stop-color:#FFFFFF;stop-opacity:0.23"/>
		<stop  offset="0.58" style="stop-color:#FFFFFF;stop-opacity:0.1"/>
		<stop  offset="0.68" style="stop-color:#FFFFFF;stop-opacity:3.000000e-02"/>
		<stop  offset="0.74" style="stop-color:#FFFFFF;stop-opacity:0"/>
	</linearGradient>
	<path style="fill:url(#SVGID_00000124122284993404815850000004489001762914808232_);" d="M66.1,56.8c-4.2,6.7-9.8,11.4-14,13.8
		C44.6,75,36,75.1,34,68.4c4.7-0.7,6.9-1.8,9.7-3.5c4.3-2.8,8.9-6.8,13.2-13.3L66.1,56.8z"/>
	
		<linearGradient id="SVGID_00000000928384858672401850000017352201829089449883_" gradientUnits="userSpaceOnUse" x1="79.3802" y1="83.7494" x2="16.0102" y2="47.2094" gradientTransform="matrix(1 0 0 -1 0 111.8898)">
		<stop  offset="0.26" style="stop-color:#FFFFFF"/>
		<stop  offset="0.31" style="stop-color:#FFFFFF;stop-opacity:0.98"/>
		<stop  offset="0.37" style="stop-color:#FFFFFF;stop-opacity:0.91"/>
		<stop  offset="0.45" style="stop-color:#FFFFFF;stop-opacity:0.81"/>
		<stop  offset="0.53" style="stop-color:#FFFFFF;stop-opacity:0.67"/>
		<stop  offset="0.61" style="stop-color:#FFFFFF;stop-opacity:0.48"/>
		<stop  offset="0.7" style="stop-color:#FFFFFF;stop-opacity:0.25"/>
		<stop  offset="0.79" style="stop-color:#FFFFFF;stop-opacity:0"/>
	</linearGradient>
	<path style="fill:url(#SVGID_00000000928384858672401850000017352201829089449883_);" d="M34.2,74.6l-8.5-4.8c0,0-1.6-0.8-2.5-2.3
		c-1.4-2.3-2.6-5.5-1.4-11.2c1.5-6.5,4.2-11.7,9.1-17.5s8.6-8.3,12-10.2c2.7-1.6,4.7-2.6,7.9-3.2c3.8-0.7,6.1,0,6.1,0l9.2,5.3
		c0,0-1.6-0.6-5-0.2c-2.3,0.3-6.2,1.4-10.3,4.1c-5.8,3.8-8.9,7.4-11.5,10.5c-1.3,1.5-2.8,3.7-4.3,6.3c-1.4,2.5-2.7,5.4-3.5,8.3
		c-0.9,3.2-1.2,7-0.3,10C32.1,73.2,34.2,74.6,34.2,74.6z"/>
</g>
<g>
	<path class="st0" d="M199.6,49.9c-2-2.2-5-3.4-8-3.4c-6.1,0-10.7,4.4-10.7,9.9c0,6.4,5.9,9.8,10.7,9.8c2.4,0,5.6-0.9,8-3.3v1.9
		c-2.4,1.9-5.3,2.7-7.9,2.7c-7.1,0-12.4-5.1-12.4-11.1s5.5-11.1,12.3-11.1c4.5,0,7.3,2.2,8,2.8L199.6,49.9L199.6,49.9z"/>
	<path class="st0" d="M218.8,46.8H209v7.8h9.6v1.3H209v9.9h9.8v1.3h-11.4V45.5h11.4C218.8,45.5,218.8,46.8,218.8,46.8z"/>
	<path class="st0" d="M226.7,67.1V45.3l20,19V45.5h1.6v22.2l-20-19v18.4L226.7,67.1L226.7,67.1z"/>
	<path class="st0" d="M262.4,46.8v20.3h-1.6V46.8h-6.2v-1.3h13.9v1.3H262.4L262.4,46.8z"/>
	<path class="st0" d="M284.9,67.1l-7.7-10.2h-0.7v10.2h-1.6V45.5h3.4c1.8,0,3.5,0.1,5,1.1c1.9,1.2,2.5,2.9,2.5,4.6
		c0,2.1-1,4.3-4,5.2c-1.2,0.4-2.4,0.4-2.9,0.4l7.8,10.2L284.9,67.1L284.9,67.1z M276.5,55.6h2.3c3.4,0,5.4-1.6,5.4-4.4
		c0-2.2-1.2-3.3-2.1-3.8c-1-0.5-2.7-0.7-3.6-0.7h-2L276.5,55.6L276.5,55.6z"/>
	<path class="st0" d="M317.7,56.3c0,6.2-5.4,11.1-12.3,11.1c-6.9,0-12.3-4.9-12.3-11.1s5.4-11.1,12.3-11.1
		C312.3,45.2,317.7,50.1,317.7,56.3z M316.1,56.3c0-5.5-4.6-9.9-10.7-9.9c-6.1,0-10.7,4.3-10.7,9.9s4.6,9.8,10.7,9.8
		C311.5,66.2,316.1,61.9,316.1,56.3z"/>
	<path class="st0" d="M336.6,67.1V45.5h4.7c2.1,0,5.8,0.3,8.8,3c2.5,2.3,3.4,5.4,3.4,7.8s-0.9,5.5-3.4,7.8c-3,2.7-6.7,3-8.8,3
		L336.6,67.1L336.6,67.1z M338.2,65.8h3.1c6.3,0,10.6-3.9,10.6-9.5s-4.4-9.5-10.6-9.5h-3.1V65.8L338.2,65.8z"/>
	<path class="st0" d="M372.8,46.8h-9.8v7.8h9.6v1.3h-9.6v9.9h9.8v1.3h-11.4V45.5h11.4C372.8,45.5,372.8,46.8,372.8,46.8z"/>
	<path class="st0" d="M403.9,60h-10.1l-3.2,7.1h-1.7l10-22.2l9.9,22.2h-1.7L403.9,60L403.9,60z M403.3,58.7l-4.5-10.2l-4.5,10.2
		H403.3z"/>
	<path class="st0" d="M425.2,67.1l-7.7-10.2h-0.7v10.2h-1.6V45.5h3.4c1.8,0,3.5,0.1,5,1.1c1.9,1.2,2.5,2.9,2.5,4.6
		c0,2.1-1,4.3-4,5.2c-1.2,0.4-2.4,0.4-2.9,0.4l7.8,10.2L425.2,67.1L425.2,67.1z M416.8,55.6h2.3c3.4,0,5.4-1.6,5.4-4.4
		c0-2.2-1.2-3.3-2.1-3.8c-1-0.5-2.7-0.7-3.6-0.7h-2L416.8,55.6L416.8,55.6z"/>
	<path class="st0" d="M439.6,46.8v20.3h-1.6V46.8h-6.2v-1.3h13.9v1.3H439.6L439.6,46.8z"/>
	<path class="st0" d="M463.6,46.8h-9.8v7.8h9.6v1.3h-9.6v9.9h9.8v1.3h-11.4V45.5h11.4C463.6,45.5,463.6,46.8,463.6,46.8z"/>
	<path class="st0" d="M482.3,49.2c-1.5-2.6-4-2.7-4.7-2.7c-2.8,0-4.4,1.8-4.4,4c0,2.3,1.8,3.1,4.2,4.2c2.4,1,3.5,1.5,4.8,2.3
		c1,0.7,2.5,1.8,2.5,4.2c0,3.6-3.3,6.3-7.4,6.3c-3.1,0-4.6-1.3-5.5-2.3c-0.9-1-1.3-1.8-1.5-2.4l1.4-0.6c0.3,0.8,0.9,1.7,1.3,2.1
		c1.1,1.2,2.8,1.9,4.5,1.9c3.2,0,5.7-2.1,5.7-5c0-1.2-0.5-2.4-2.3-3.4c-0.7-0.4-2.1-1-4-1.9c-2.4-1-3.5-1.6-4.4-2.8
		c-0.5-0.8-0.8-1.6-0.8-2.5c0-2.5,1.9-5.4,6.1-5.4c2.4,0,4.6,1,5.8,3.1L482.3,49.2L482.3,49.2z"/>
	<path class="st0" d="M503.5,67.1V45.5h4.7c2.1,0,5.8,0.3,8.8,3c2.5,2.3,3.4,5.4,3.4,7.8s-0.9,5.5-3.4,7.8c-3,2.7-6.7,3-8.8,3
		L503.5,67.1L503.5,67.1z M505.1,65.8h3.1c6.3,0,10.6-3.9,10.6-9.5s-4.4-9.5-10.6-9.5h-3.1V65.8L505.1,65.8z"/>
	<path class="st0" d="M529.8,45.5v21.6h-1.6V45.5H529.8z"/>
	<path class="st0" d="M551.4,56.7h10c0,2-0.5,4.8-2.4,7.1c-2.1,2.4-5.3,3.6-9,3.6c-7,0-12.3-4.7-12.3-11.1s5.5-11.1,12.4-11.1
		c3.4,0,5.6,1,7.5,2.3c1,0.7,1.9,1.5,2.8,2.7l-1.2,0.9c-0.7-1-1.6-1.9-2.3-2.4c-1.5-1.1-3.9-2.3-6.8-2.3c-6.1,0-10.7,4.4-10.7,9.9
		s4.5,9.8,10.6,9.8c4.1,0,7-1.9,8.3-3.7c0.9-1.3,1.5-3.1,1.6-4.5h-8.4L551.4,56.7L551.4,56.7z"/>
	<path class="st0" d="M570.8,45.5v21.6h-1.6V45.5H570.8z"/>
	<path class="st0" d="M584.9,46.8v20.3h-1.6V46.8h-6.2v-1.3h13.9v1.3H584.9L584.9,46.8z"/>
	<path class="st0" d="M609.8,60h-10.1l-3.2,7.1h-1.7l10-22.2l9.9,22.2H613L609.8,60L609.8,60z M609.2,58.7l-4.5-10.2l-4.5,10.2
		H609.2z"/>
	<path class="st0" d="M622.7,45.5v20.3h6.6v1.3h-8.2V45.5H622.7z"/>
	<path class="st0" d="M647.1,46.8h-9.8v7.8h9.6v1.3h-9.6v9.9h9.8v1.3h-11.4V45.5h11.4C647.1,45.5,647.1,46.8,647.1,46.8z"/>
	<path class="st0" d="M665.8,49.2c-1.5-2.6-4-2.7-4.7-2.7c-2.8,0-4.4,1.8-4.4,4c0,2.3,1.8,3.1,4.2,4.2c2.4,1,3.5,1.5,4.8,2.3
		c1,0.7,2.5,1.8,2.5,4.2c0,3.6-3.3,6.3-7.4,6.3c-3.1,0-4.6-1.3-5.5-2.3c-0.9-1-1.3-1.8-1.5-2.4l1.4-0.6c0.3,0.8,0.9,1.7,1.3,2.1
		c1.1,1.2,2.8,1.9,4.5,1.9c3.2,0,5.7-2.1,5.7-5c0-1.2-0.5-2.4-2.3-3.4c-0.7-0.4-2.1-1-4-1.9c-2.4-1-3.5-1.6-4.4-2.8
		c-0.5-0.8-0.8-1.6-0.8-2.5c0-2.5,1.9-5.4,6.1-5.4c2.4,0,4.6,1,5.8,3.1L665.8,49.2L665.8,49.2z"/>
</g>
</svg>
