<svg xmlns="http://www.w3.org/2000/svg" width="539" height="145" fill="none">
  <g clip-path="url(#a)">
    <path d="M0 0h539v145H0z"/>
    <path fill="#fff" d="M345.52 98.31c19.79 8.89 42.48 9.66 63.06 3.15 13.53-4.33 26.06-11.22 37.51-19.61a375.56 375.56 0 0 0-22.73-1.61l-.96-.03a326.1 326.1 0 0 0-36.86.65l5.32 14.39h-19.92l4.99-13.5c-3.52.38-7.04.83-10.55 1.34a296.84 296.84 0 0 0-30.04 6.04l-1.57 3.45c3.85 2.06 7.75 4 11.75 5.74v-.01zM185.89 74.24c28.89 5.44 65.65 13.47 94.82 16.55 2.04-4.09.64-23.48-2.7-26.48a139.6 139.6 0 0 0-39.4-8.49c-14.87-1.25-29.65.71-44.26 3.54a54.88 54.88 0 0 0-4.98 7.36 37.91 37.91 0 0 0-3.48 7.52zm37.37-3.52a18.37 18.37 0 0 1 11.13-3.42c4.29 0 8.43 1.14 12.01 3.42 3.58 2.28 5.37 5.76 5.37 10.45l-34.32-1.72c1.43-4.69 2.68-6.45 5.8-8.73h.01zm157.65-2.43 3.36 9.09c12.27-.75 24.59-.72 36.87.03L390.1 9.31h-18.36l-34.17 74.95a270.38 270.38 0 0 1 39.8-6.37l3.55-9.6h-.01zm-263.49-1.94c-9.2-.6-18.41-.83-27.62-.77V80c-4.07-4.7-9.98-8.54-17.73-11.51l-5.72-2.15c-3.79.22-7.58.46-11.37.76-16.32 1.26-32.89 3.68-49.28 6.42a35.48 35.48 0 0 0 5.04 6.29c4.03 4.04 9.7 7.23 16.99 9.57l18.55 5.86c.83.25 1.62.51 2.37.77 22.22-8.65 50.56-17.07 74.84-23.26l-.02-5.92c-2.02-.18-4.04-.35-6.06-.49l.01.01z"/>
    <path fill="#fff" d="M503.25 94.07c8.59-2.34 15.66-6.71 21.19-13.09 5.53-6.38 8.3-14.45 8.3-24.22 0-7.68-1.53-14.39-4.59-20.12a42.44 42.44 0 0 0-12.21-14.26 53.15 53.15 0 0 0-17.09-8.4 69.83 69.83 0 0 0-19.43-2.73h-56.05v66.29a318.9 318.9 0 0 1 24.9 2.69 188.14 188.14 0 0 0 15-12.71c2.67-2.37 5.25-5.07 7.76-7.61l.12-.12a10.78 10.78 0 0 1-3.33-7.8 10.83 10.83 0 1 1 4.76 8.97l-.21.23a177.16 177.16 0 0 1-7.7 7.8 187 187 0 0 1-13.23 11.72c1.96.31 3.92.64 5.88.98.73-1.15 2-1.91 3.46-1.91a4.1 4.1 0 1 1-4.1 4.1c0-.28.03-.56.08-.83-2.4-.3-4.8-.58-7.2-.84-12.09 9.45-25.49 17.22-40.18 21.82-21.19 6.74-44.59 5.87-64.76-3.7a160.27 160.27 0 0 1-11.65-6.03l-19.42 42.59V93.81c-3.3.49-6.62.81-9.96.88-31.61.66-62.79-5.98-93.58-12.28-19.51-4.04-38.97-6.7-58.61-10.01l-.09 20.88c0 6.77-1.07 11.72-3.22 14.84-2.15 3.12-5.7 4.69-10.64 4.69s-8.5-1.56-10.64-4.69c-2.14-3.13-3.22-8.07-3.22-14.84l-.07-17.29A891.45 891.45 0 0 0 52.39 97.6c.84.43 1.61.88 2.3 1.35 2.08 1.43 3.12 3.12 3.12 5.08 0 2.73-1.4 4.66-4.2 5.76-2.8 1.11-6.48 1.66-11.04 1.66a56.6 56.6 0 0 1-21.78-4.49A92.7 92.7 0 0 1 .58 95.44v35.35a83.11 83.11 0 0 0 20.12 10.16 68.97 68.97 0 0 0 23.24 4.1c10.16 0 19.34-1.86 27.54-5.57s14.71-8.79 19.53-15.23a35.2 35.2 0 0 0 2.38-3.66 35.97 35.97 0 0 0 2.55 4.74 39.88 39.88 0 0 0 16.89 14.65c7.16 3.38 15.36 5.08 24.61 5.08s17.45-1.69 24.61-5.08a39.8 39.8 0 0 0 16.89-14.65 38.73 38.73 0 0 0 5.68-16.02 47.61 47.61 0 0 0 14.59 22.07 56.22 56.22 0 0 0 17.68 10.16 60.42 60.42 0 0 0 20.41 3.52c7.42 0 14.09-1.04 20.02-3.12 5.92-2.08 10.58-4.17 13.96-6.25v-28.71c-2.73 1.56-6.87 3.42-12.4 5.57-5.54 2.15-12.08 3.22-19.63 3.22-5.6 0-10.55-1.17-14.84-3.52a17.15 17.15 0 0 1-7.5-7.87 2.02 2.02 0 0 1 1.83-2.88h61.21v40.62h73.8l6.45-17.58h41.41l6.45 17.58h51.83l-1.73-44.41s-.26-2 1.55-2.55c1.81-.85 2.97 1.2 2.97 1.2l32.16 45.76h44.53l-36.13-48.05h.01zm-20.72-16.51a4.29 4.29 0 0 1-4.29-4.29 4.29 4.29 0 0 1 4.29-4.29 4.29 4.29 0 0 1 4.29 4.29 4.29 4.29 0 0 1-4.29 4.29z"/>
    <path fill="#fff" d="M277.33 62.1a44.14 44.14 0 0 0-16.96-17.27c-7.29-4.17-15.62-6.25-25-6.25-10.03 0-19.04 2.47-27.05 7.42a54.44 54.44 0 0 0-11.64 9.64c9.08-1.5 18.22-2.58 27.43-2.73 18.15-.27 36.2 3.03 53.23 9.19h-.01zm36.23 17.36V0h-33.59v62.59a165.78 165.78 0 0 1 21.04 9.75c4.23 2.27 8.4 4.68 12.56 7.12h-.01zM185.11 58.75V42.5h-33.59l-.09 23.59a1304.5 1304.5 0 0 1 29.29-6.47l4.4-.88-.01.01zM58.29 63.31l-.28-.1a348.3 348.3 0 0 1-13.87-5.57c-3.78-1.63-5.66-4.07-5.66-7.32 0-2.99 1.56-5.14 4.69-6.45 3.12-1.3 6.84-1.95 11.13-1.95 7.42 0 13.87 1.21 19.34 3.61 5.33 2.35 10.71 5.1 16.16 8.25v8.59c11.25.2 22.5 1 33.68 2.48l-.09-22.34H90.23V18.68c-4.56-3.12-10.58-5.63-18.07-7.52a92.6 92.6 0 0 0-22.75-2.83 60.09 60.09 0 0 0-24.02 4.88A44.18 44.18 0 0 0 7.03 27.57C2.34 33.88 0 41.66 0 50.9c0 5.21.78 10.32 2.34 15.33.53 1.69 1.2 3.32 2.01 4.89l3.62-.7a405.55 405.55 0 0 1 50.31-7.12l.01.01z"/>
  </g>
  <defs>
    <clipPath id="a">
      <path fill="#fff" d="M0 0h539v145H0z"/>
    </clipPath>
  </defs>
</svg>