<?xml version="1.0" encoding="utf-8"?>
<!-- Generator: Adobe Illustrator 27.2.0, SVG Export Plug-In . SVG Version: 6.00 Build 0)  -->
<svg version="1.1" xmlns="http://www.w3.org/2000/svg" xmlns:xlink="http://www.w3.org/1999/xlink" x="0px" y="0px"
	 viewBox="0 0 1104 312" style="enable-background:new 0 0 1104 312;" xml:space="preserve">
<style type="text/css">
	.st0{opacity:0.26;}
	.st1{fill:#E0E0E0;}
	.st2{fill:#FFFFFF;}
	.st3{fill:#FAFF06;}
	.st4{fill:#FF049B;}
	.st5{fill:#42C6FF;}
	.st6{fill-rule:evenodd;clip-rule:evenodd;fill:#FF049B;}
</style>
<g id="Capa_2">
	<g class="st0">
		<path class="st1" d="M785.3,200.9v20.8h4.3V214h2.8c2.6,0,4.4-0.7,5.6-1.8c1.7-1.6,1.8-3.8,1.8-4.7c0-1.5-0.5-3.5-2.3-5
			c-1.6-1.3-3.4-1.6-5.9-1.6H785.3z M789.7,204.4h1.5c1,0,2.2,0.1,3.1,0.7c0.6,0.4,1.2,1.2,1.2,2.4c0,0.9-0.4,1.8-1.2,2.4
			c-0.9,0.7-2,0.7-2.8,0.7h-1.8V204.4z"/>
		<path class="st1" d="M842.7,200.9v12.7c0,2,0.3,4,1.7,5.6c1.6,2,4.4,3,7.3,3c2.9,0,5.7-1,7.3-3c1.3-1.6,1.7-3.6,1.7-5.6v-12.7
			h-4.3V214c0,1.6-0.6,2.6-1.1,3.1c-0.6,0.7-1.8,1.4-3.5,1.4c-1.7,0-2.9-0.7-3.5-1.4c-0.5-0.5-1.1-1.5-1.1-3.1v-13.1H842.7z"/>
		<path class="st1" d="M921.4,216.2c-1.3,1.4-3.1,2.3-5.2,2.3c-3.7,0-7.5-2.5-7.5-7.1c0-3.8,2.9-7.3,7.4-7.3c0.8,0,3.3,0.2,5.4,2.3
			v-4.8c-2-1-3.9-1.3-5.5-1.3c-3.2,0-5.9,0.8-8.2,2.7c-1.9,1.7-3.6,4.4-3.6,8.2c0,3.1,1,5.7,3.6,8c1.9,1.7,4.2,2.9,8.1,2.9
			c2.4,0,4.2-0.6,5.5-1.2V216.2z"/>
		<path class="st1" d="M962.5,200.9l9.3,20.8h2.6l9.4-20.8h-4.7l-5.9,14l-5.9-14H962.5z"/>
	</g>
</g>
<g id="Capa_1">
	<g id="CENTRO_DE_ARTES_DIGITALES_00000013875820712459761770000015360810743531299768_">
		<path d="M427.7,158c-1.8,1.7-3.4,2.1-4.6,2.1c-2.5,0-3.9-1.3-4.3-1.7c-0.9-0.9-1.7-2.3-1.7-4.4c0-1.9,0.8-3.5,1.9-4.6
			c1-1,2.4-1.6,4.1-1.6c2.1,0,3.7,1.1,4.7,2.1v-5.3c-1.9-0.8-3.5-1.1-4.8-1.1c-3.1,0-5.7,1.2-7.5,2.9c-1.8,1.7-3.1,4.4-3.1,7.5
			c0,3.2,1.3,5.9,3.1,7.6c1.7,1.7,4.2,2.9,7.9,2.9c1.2,0,2.6-0.2,4.4-1.1V158z M450.3,143.9h-11.3v20h11.3V160h-6.7v-4.4h6.4v-3.9
			h-6.4v-3.9h6.7V143.9z M466.1,163.9v-13l10.9,13h4v-20h-4.6v12.9l-10.9-12.9h-4v20H466.1z M504.2,147.8v-3.9h-13.3v3.9h4.4v16.1
			h4.6v-16.1H504.2z M514.2,143.9v20h4.6V156l5.4,7.9h5.6l-6.1-8.2c1.1-0.3,2.1-0.9,2.8-1.5c1.3-1.3,1.6-2.8,1.6-4.1
			c0-2.2-0.9-3.7-1.7-4.5c-1-0.9-2.6-1.7-5.1-1.7H514.2z M518.8,147.5h1.1c0.6,0,1.8,0.1,2.6,0.6c0.4,0.3,0.9,0.9,0.9,2
			c0,1-0.4,1.6-0.8,2c-0.8,0.8-1.9,0.9-2.8,0.9h-1V147.5z M549.9,143.4c-4,0-6.5,1.6-7.8,2.9c-1.8,1.8-3.1,4.7-3.1,7.6
			c0,2.9,1.2,5.6,3.1,7.4c1.5,1.4,4,2.9,7.8,2.9c3.4,0,5.9-1.1,7.7-2.9c2.2-2.1,3.1-4.8,3.1-7.5c0-3.1-1.2-5.7-3.1-7.6
			C555.6,144.4,553,143.4,549.9,143.4z M549.9,147.7c1.8,0,3.4,0.8,4.4,1.7c0.9,0.9,1.7,2.4,1.7,4.5c0,2.3-1,3.7-1.7,4.5
			c-1,1-2.4,1.7-4.4,1.7c-1.6,0-3-0.4-4.3-1.7c-1.2-1.2-1.8-2.7-1.8-4.5c0-2.2,0.9-3.7,1.8-4.5C546.6,148.3,548.1,147.7,549.9,147.7
			z"/>
		<path d="M786.5,143.9v20h6.5c1.7,0,5.1-0.2,7.9-3c1.7-1.6,2.7-3.9,2.7-7.1c0-3.1-1.1-5.5-2.9-7.2c-2.5-2.4-5.2-2.8-7.9-2.8H786.5z
			 M791.1,147.8h1.2c1.4,0,3.4,0.2,4.9,1.7c0.8,0.8,1.7,2.2,1.7,4.3c0,2.2-0.9,3.9-2,4.8c-1.5,1.3-3.6,1.4-4.6,1.4h-1.2V147.8z
			 M814.6,143.9v20h4.6v-20H814.6z M840.9,156.7h4.8c-0.4,1.5-1.3,2.2-1.4,2.4c-0.4,0.4-1.5,1.1-3.5,1.1c-1.5,0-2.9-0.4-4-1.6
			c-0.8-0.8-1.7-2.3-1.7-4.6c0-1.9,0.6-3.6,1.7-4.7c1-1,2.3-1.6,4.1-1.6c1.1,0,2.2,0.3,3.1,1c0.8,0.6,1.4,1.4,1.8,2.2l4.2-2.2
			c-0.7-1.3-1.9-2.7-3.2-3.6c-1.9-1.2-4-1.5-5.6-1.5c-2.4,0-5.4,0.4-7.9,2.9c-1.7,1.7-2.9,4.3-2.9,7.6c0,4,1.8,6.4,2.9,7.6
			c2.3,2.4,4.9,2.8,7.3,2.8c2.4,0,4.9-0.4,7.1-2.7c2.2-2.3,3.1-6,3.1-8.4V153h-9.9V156.7z M861.8,143.9v20h4.6v-20H861.8z
			 M889.8,147.8v-3.9h-13.3v3.9h4.3v16.1h4.6v-16.1H889.8z M911.7,163.9h4.8l-7.9-20h-4.2l-8.1,20h4.8l1.5-3.8h7.6L911.7,163.9z
			 M904,156.6l2.5-6.7l2.5,6.7H904z M926.2,143.9v20h10.8V160h-6.2v-16.1H926.2z M958.5,143.9h-11.3v20h11.3V160h-6.7v-4.4h6.4v-3.9
			h-6.4v-3.9h6.7V143.9z M982.1,145.4c-2.3-1.7-4.6-2-5.9-2c-1.9,0-3.5,0.4-4.9,1.8c-1.2,1.2-1.7,2.7-1.7,4.5c0,1,0.2,2.4,1.2,3.5
			c0.8,0.8,1.9,1.3,2.8,1.6l1.6,0.6c0.6,0.2,1.8,0.7,2.3,1.1c0.4,0.4,0.7,0.8,0.7,1.4c0,0.8-0.3,1.3-0.7,1.6
			c-0.7,0.6-1.5,0.7-2.1,0.7c-0.9,0-1.7-0.2-2.5-0.7c-0.5-0.3-1.3-1-1.9-1.5l-2.4,3.3c0.8,0.8,1.9,1.7,2.9,2.2
			c1.3,0.6,2.5,0.8,4,0.8c1.3,0,3.9-0.2,5.7-2c1.1-1.1,1.8-2.9,1.8-4.9c0-1.2-0.3-2.6-1.5-3.7c-0.8-0.8-1.9-1.2-2.7-1.5l-1.5-0.6
			c-1.3-0.5-2-0.7-2.5-1.1c-0.3-0.3-0.4-0.6-0.4-1.1c0-0.5,0.2-1,0.5-1.3c0.5-0.6,1.3-0.7,2-0.7c0.6,0,1.9,0.1,3.4,1.4L982.1,145.4z
			"/>
		<path d="M586.2,143.9v20h6.5c1.7,0,5.1-0.2,7.9-3c1.7-1.6,2.7-3.9,2.7-7.1c0-3.1-1.1-5.5-2.9-7.2c-2.5-2.4-5.2-2.8-7.9-2.8H586.2z
			 M590.8,147.8h1.2c1.4,0,3.4,0.2,4.9,1.7c0.8,0.8,1.7,2.2,1.7,4.3c0,2.2-0.9,3.9-1.9,4.8c-1.5,1.3-3.6,1.4-4.6,1.4h-1.2V147.8z
			 M625.5,143.9h-11.3v20h11.3V160h-6.7v-4.4h6.4v-3.9h-6.4v-3.9h6.7V143.9z M664.5,163.9h4.8l-7.9-20h-4.2l-8.1,20h4.8l1.5-3.8h7.6
			L664.5,163.9z M656.8,156.6l2.5-6.7l2.5,6.7H656.8z M679.1,143.9v20h4.6V156l5.4,7.9h5.6l-6.2-8.2c1.1-0.3,2.1-0.9,2.8-1.5
			c1.3-1.3,1.6-2.8,1.6-4.1c0-2.2-0.9-3.7-1.7-4.5c-1-0.9-2.6-1.7-5.1-1.7H679.1z M683.7,147.5h1.1c0.6,0,1.8,0.1,2.6,0.6
			c0.4,0.3,0.9,0.9,0.9,2c0,1-0.4,1.6-0.8,2c-0.8,0.8-1.9,0.9-2.8,0.9h-1.1V147.5z M715.5,147.8v-3.9h-13.3v3.9h4.3v16.1h4.6v-16.1
			H715.5z M736.8,143.9h-11.3v20h11.3V160h-6.7v-4.4h6.4v-3.9h-6.4v-3.9h6.7V143.9z M760.4,145.4c-2.3-1.7-4.6-2-5.9-2
			c-1.9,0-3.5,0.4-5,1.8c-1.2,1.2-1.7,2.7-1.7,4.5c0,1,0.2,2.4,1.2,3.5c0.8,0.8,1.9,1.3,2.8,1.6l1.7,0.6c0.6,0.2,1.8,0.7,2.3,1.1
			c0.4,0.4,0.7,0.8,0.7,1.4c0,0.8-0.3,1.3-0.7,1.6c-0.7,0.6-1.5,0.7-2.1,0.7c-0.9,0-1.7-0.2-2.5-0.7c-0.5-0.3-1.3-1-1.9-1.5
			l-2.4,3.3c0.8,0.8,1.9,1.7,2.9,2.2c1.3,0.6,2.5,0.8,4,0.8c1.3,0,3.9-0.2,5.7-2c1.1-1.1,1.8-2.9,1.8-4.9c0-1.2-0.3-2.6-1.5-3.7
			c-0.8-0.8-1.9-1.2-2.7-1.5l-1.5-0.6c-1.3-0.5-2-0.7-2.5-1.1c-0.3-0.3-0.5-0.6-0.5-1.1c0-0.5,0.2-1,0.5-1.3c0.5-0.6,1.3-0.7,2-0.7
			c0.6,0,1.9,0.1,3.4,1.4L760.4,145.4z"/>
	</g>
	<g id="CENTRO_DE_ARTES_DIGITALES">
		<path class="st2" d="M424.7,155.1c-1.8,1.7-3.4,2.1-4.6,2.1c-2.5,0-3.9-1.3-4.3-1.7c-0.9-0.9-1.7-2.3-1.7-4.4
			c0-1.9,0.8-3.5,1.9-4.6c1-1,2.4-1.6,4.1-1.6c2.1,0,3.7,1.1,4.7,2.1v-5.3c-1.9-0.8-3.5-1.1-4.8-1.1c-3.1,0-5.7,1.2-7.5,2.9
			c-1.8,1.7-3.1,4.4-3.1,7.5c0,3.2,1.3,5.9,3.1,7.6c1.7,1.7,4.2,2.9,7.9,2.9c1.2,0,2.6-0.2,4.4-1.1V155.1z M447.3,141h-11.3v20h11.3
			v-3.9h-6.7v-4.4h6.4v-3.9h-6.4v-3.9h6.7V141z M463.1,161v-13l10.9,13h4v-20h-4.6v12.9L462.5,141h-4v20H463.1z M501.2,144.9V141
			h-13.3v3.9h4.4V161h4.6v-16.1H501.2z M511.2,141v20h4.6v-7.9l5.4,7.9h5.6l-6.1-8.2c1.1-0.3,2.1-0.9,2.8-1.5
			c1.3-1.3,1.6-2.8,1.6-4.1c0-2.2-0.9-3.7-1.7-4.5c-1-0.9-2.6-1.7-5.1-1.7H511.2z M515.8,144.6h1.1c0.6,0,1.8,0.1,2.6,0.6
			c0.4,0.3,0.9,0.9,0.9,2c0,1-0.4,1.6-0.8,2c-0.8,0.8-1.9,0.9-2.8,0.9h-1V144.6z M546.9,140.5c-4,0-6.5,1.6-7.8,2.9
			c-1.8,1.8-3.1,4.7-3.1,7.6c0,2.9,1.2,5.6,3.1,7.4c1.5,1.4,4,2.9,7.8,2.9c3.4,0,5.9-1.1,7.7-2.9c2.2-2.1,3.1-4.8,3.1-7.5
			c0-3.1-1.2-5.7-3.1-7.6C552.6,141.5,550,140.5,546.9,140.5z M546.9,144.8c1.8,0,3.4,0.8,4.4,1.7c0.9,0.9,1.7,2.4,1.7,4.5
			c0,2.3-1,3.7-1.7,4.5c-1,1-2.4,1.7-4.4,1.7c-1.6,0-3-0.4-4.3-1.7c-1.2-1.2-1.8-2.7-1.8-4.5c0-2.2,0.9-3.7,1.8-4.5
			C543.6,145.4,545.1,144.8,546.9,144.8z"/>
		<path class="st3" d="M783.5,141v20h6.5c1.7,0,5.1-0.2,7.9-3c1.7-1.6,2.7-3.9,2.7-7.1c0-3.1-1.1-5.5-2.9-7.2
			c-2.5-2.4-5.2-2.8-7.9-2.8H783.5z M788.1,144.9h1.2c1.4,0,3.4,0.2,4.9,1.7c0.8,0.8,1.7,2.2,1.7,4.3c0,2.2-0.9,3.9-2,4.8
			c-1.5,1.3-3.6,1.4-4.6,1.4h-1.2V144.9z M811.6,141v20h4.6v-20H811.6z M837.9,153.8h4.8c-0.4,1.5-1.3,2.2-1.4,2.4
			c-0.4,0.4-1.5,1.1-3.5,1.1c-1.5,0-2.9-0.4-4-1.6c-0.8-0.8-1.7-2.3-1.7-4.6c0-1.9,0.6-3.6,1.7-4.7c1-1,2.3-1.6,4.1-1.6
			c1.1,0,2.2,0.3,3.1,1c0.8,0.6,1.4,1.4,1.8,2.2l4.2-2.2c-0.7-1.3-1.9-2.7-3.2-3.6c-1.9-1.2-4-1.5-5.6-1.5c-2.4,0-5.4,0.4-7.9,2.9
			c-1.7,1.7-2.9,4.3-2.9,7.6c0,4,1.8,6.4,2.9,7.6c2.3,2.4,4.9,2.8,7.3,2.8c2.4,0,4.9-0.4,7.1-2.7c2.2-2.3,3.1-6,3.1-8.4v-0.2h-9.9
			V153.8z M858.8,141v20h4.6v-20H858.8z M886.8,144.9V141h-13.3v3.9h4.3V161h4.6v-16.1H886.8z M908.7,161h4.8l-7.9-20h-4.2l-8.1,20
			h4.8l1.5-3.8h7.6L908.7,161z M901,153.7l2.5-6.7l2.5,6.7H901z M923.2,141v20h10.8v-3.9h-6.2V141H923.2z M955.5,141h-11.3v20h11.3
			v-3.9h-6.7v-4.4h6.4v-3.9h-6.4v-3.9h6.7V141z M979.1,142.5c-2.3-1.7-4.6-2-5.9-2c-1.9,0-3.5,0.4-4.9,1.8c-1.2,1.2-1.7,2.7-1.7,4.5
			c0,1,0.2,2.4,1.2,3.5c0.8,0.8,1.9,1.3,2.8,1.6l1.6,0.6c0.6,0.2,1.8,0.7,2.3,1.1c0.4,0.4,0.7,0.8,0.7,1.4c0,0.8-0.3,1.3-0.7,1.6
			c-0.7,0.6-1.5,0.7-2.1,0.7c-0.9,0-1.7-0.2-2.5-0.7c-0.5-0.3-1.3-1-1.9-1.5l-2.4,3.3c0.8,0.8,1.9,1.7,2.9,2.2
			c1.3,0.6,2.5,0.8,4,0.8c1.3,0,3.9-0.2,5.7-2c1.1-1.1,1.8-2.9,1.8-4.9c0-1.2-0.3-2.6-1.5-3.7c-0.8-0.8-1.9-1.2-2.7-1.5l-1.5-0.6
			c-1.3-0.5-2-0.7-2.5-1.1c-0.3-0.3-0.4-0.6-0.4-1.1c0-0.5,0.2-1,0.5-1.3c0.5-0.6,1.3-0.7,2-0.7c0.6,0,1.9,0.1,3.4,1.4L979.1,142.5z
			"/>
		<path class="st4" d="M583.2,141v20h6.5c1.7,0,5.1-0.2,7.9-3c1.7-1.6,2.7-3.9,2.7-7.1c0-3.1-1.1-5.5-2.9-7.2
			c-2.5-2.4-5.2-2.8-7.9-2.8H583.2z M587.8,144.9h1.2c1.4,0,3.4,0.2,4.9,1.7c0.8,0.8,1.7,2.2,1.7,4.3c0,2.2-0.9,3.9-1.9,4.8
			c-1.5,1.3-3.6,1.4-4.6,1.4h-1.2V144.9z M622.5,141h-11.3v20h11.3v-3.9h-6.7v-4.4h6.4v-3.9h-6.4v-3.9h6.7V141z M661.5,161h4.8
			l-7.9-20h-4.2l-8.1,20h4.8l1.5-3.8h7.6L661.5,161z M653.8,153.7l2.5-6.7l2.5,6.7H653.8z M676.1,141v20h4.6v-7.9l5.4,7.9h5.6
			l-6.2-8.2c1.1-0.3,2.1-0.9,2.8-1.5c1.3-1.3,1.6-2.8,1.6-4.1c0-2.2-0.9-3.7-1.7-4.5c-1-0.9-2.6-1.7-5.1-1.7H676.1z M680.7,144.6
			h1.1c0.6,0,1.8,0.1,2.6,0.6c0.4,0.3,0.9,0.9,0.9,2c0,1-0.4,1.6-0.8,2c-0.8,0.8-1.9,0.9-2.8,0.9h-1.1V144.6z M712.5,144.9V141
			h-13.3v3.9h4.3V161h4.6v-16.1H712.5z M733.8,141h-11.3v20h11.3v-3.9h-6.7v-4.4h6.4v-3.9h-6.4v-3.9h6.7V141z M757.4,142.5
			c-2.3-1.7-4.6-2-5.9-2c-1.9,0-3.5,0.4-5,1.8c-1.2,1.2-1.7,2.7-1.7,4.5c0,1,0.2,2.4,1.2,3.5c0.8,0.8,1.9,1.3,2.8,1.6l1.7,0.6
			c0.6,0.2,1.8,0.7,2.3,1.1c0.4,0.4,0.7,0.8,0.7,1.4c0,0.8-0.3,1.3-0.7,1.6c-0.7,0.6-1.5,0.7-2.1,0.7c-0.9,0-1.7-0.2-2.5-0.7
			c-0.5-0.3-1.3-1-1.9-1.5l-2.4,3.3c0.8,0.8,1.9,1.7,2.9,2.2c1.3,0.6,2.5,0.8,4,0.8c1.3,0,3.9-0.2,5.7-2c1.1-1.1,1.8-2.9,1.8-4.9
			c0-1.2-0.3-2.6-1.5-3.7c-0.8-0.8-1.9-1.2-2.7-1.5l-1.5-0.6c-1.3-0.5-2-0.7-2.5-1.1c-0.3-0.3-0.5-0.6-0.5-1.1c0-0.5,0.2-1,0.5-1.3
			c0.5-0.6,1.3-0.7,2-0.7c0.6,0,1.9,0.1,3.4,1.4L757.4,142.5z"/>
	</g>
	<g id="Union">
		<path class="st3" d="M264,94.5L317,64l17.1,9.8l-52.6,30.8L264,94.5z"/>
		<path class="st3" d="M194,96.6l0.1-0.1l52.3,30.1l17.5-9.8l-59.5-34.2l-9.7-5.6l0,0l-0.1-0.1l0,0.2L177.7,87l-53.5,29.9l17.4,10
			L194,96.6z"/>
		<path class="st3" d="M229.1,197l-17.4,10.4l17.4,10.3l17.4-10.3L229.1,197z"/>
		<path class="st3" d="M159,197.3l35.2-19.9l17.1,9.8L159,217.5V197.3z"/>
		<path class="st3" d="M282,205.4l35.1-20.9l-17.8-10l-34.7,20.6L282,205.4z"/>
		<path class="st3" d="M211.6,146.5l-17.5,10.4l34.4,20l17.4-10L211.6,146.5z"/>
	</g>
	<g id="Union_2">
		<path class="st5" d="M334.1,73.8l-52.6,30.8v20.2l35.3-20.6v80.6L282,205.4v20.2l52.1-31V73.8z"/>
		<path class="st5" d="M229,177.3l-17.5,10v20.2l17.5-10.1V177.3z"/>
		<path class="st5" d="M246.5,126.8l17.3-10.3v120.8l-17.3,10.3V126.8z"/>
		<path class="st5" d="M141.6,126.9L194,96.6v20.2l-35,20.2v80.5l17.5-10l17.5-10.1v20.2l-17.5,10.1l-17.5,10l-17.4,10.1V126.9z"/>
	</g>
	<g id="Union_3">
		<path class="st4" d="M281.5,104.6l-17.5-10v20.2l17.5,10V104.6z"/>
		<path class="st4" d="M316.8,104l-17.5,10.5v60.2l17.5,10.1V104z"/>
		<path class="st4" d="M141.6,126.9l-17.4-10l-0.1,121l17.5,10.1V126.9z"/>
		<path class="st4" d="M264.5,195.3l17.5,10v20.2l-17.5-10V195.3z"/>
		<path class="st6" d="M246.1,126l-52-29.5v20.2l34.9,19.7v40.6l-26.9-15.3l-8.1-5.1v60.9l17.4,10.1v-0.2l17.5,10.1v0.1l17.5,10
			v-0.1l0.1,0.1l-0.1-0.2v-39.9l0.1,0.1V187l-0.1-0.1v-60.4l-0.4-0.2V126z M211.5,207.3l17.5,10v-20l-17.5-10.1V207.3z"/>
	</g>
</g>
</svg>
