<?xml version="1.0" encoding="utf-8"?>
<!-- Generator: Adobe Illustrator 27.1.1, SVG Export Plug-In . SVG Version: 6.00 Build 0)  -->
<svg version="1.1" id="Capa_1" xmlns="http://www.w3.org/2000/svg" xmlns:xlink="http://www.w3.org/1999/xlink" x="0px" y="0px"
	 viewBox="0 0 1104 312" style="enable-background:new 0 0 1104 312;" xml:space="preserve">
<style type="text/css">
	.st0{fill:#FAFF06;}
	.st1{fill:#42C6FF;}
	.st2{fill:#FF049B;}
	.st3{fill-rule:evenodd;clip-rule:evenodd;fill:#FF049B;}
</style>
<g id="Union">
	<path class="st0" d="M264,94.5L317,64l17.1,9.8l-52.6,30.8L264,94.5z"/>
	<path class="st0" d="M194,96.6l0.1-0.1l52.3,30.1l17.5-9.8l-59.5-34.2l-9.7-5.6l0,0l-0.1-0.1v0.2L177.7,87l-53.5,29.9l17.4,10
		L194,96.6z"/>
	<path class="st0" d="M229.1,197l-17.4,10.4l17.4,10.3l17.4-10.3L229.1,197z"/>
	<path class="st0" d="M159,197.3l35.2-19.9l17.1,9.8L159,217.5V197.3z"/>
	<path class="st0" d="M282,205.4l35.1-20.9l-17.8-10l-34.7,20.6L282,205.4z"/>
	<path class="st0" d="M211.6,146.5l-17.5,10.4l34.4,20l17.4-10L211.6,146.5z"/>
</g>
<g id="Union_2">
	<path class="st1" d="M334.1,73.8l-52.6,30.8v20.2l35.3-20.6v80.6L282,205.4v20.2l52.1-31V73.8z"/>
	<path class="st1" d="M229,177.3l-17.5,10v20.2l17.5-10.1V177.3z"/>
	<path class="st1" d="M246.5,126.8l17.3-10.3v120.8l-17.3,10.3L246.5,126.8L246.5,126.8z"/>
	<path class="st1" d="M141.6,126.9L194,96.6v20.2L159,137v80.5l17.5-10l17.5-10.1v20.2l-17.5,10.1l-17.5,10l-17.4,10.1V126.9z"/>
</g>
<g id="Union_3">
	<path class="st2" d="M281.5,104.6l-17.5-10v20.2l17.5,10V104.6z"/>
	<path class="st2" d="M316.8,104l-17.5,10.5v60.2l17.5,10.1V104z"/>
	<path class="st2" d="M141.6,126.9l-17.4-10l-0.1,121l17.5,10.1V126.9z"/>
	<path class="st2" d="M264.5,195.3l17.5,10v20.2l-17.5-10V195.3z"/>
	<path class="st3" d="M246.1,126l-52-29.5v20.2l34.9,19.7V177l-26.9-15.3l-8.1-5.1v60.9l17.4,10.1v-0.2l17.5,10.1v0.1l17.5,10v-0.1
		l0.1,0.1l-0.1-0.2v-39.9l0.1,0.1V187l-0.1-0.1v-60.4l-0.4-0.2V126H246.1z M211.5,207.3l17.5,10v-20l-17.5-10.1V207.3z"/>
</g>
<g>
	<path d="M398.5,161c-1.1,0.6-2.6,1.1-4.6,1.1c-3.3,0-5.3-1.1-6.8-2.6c-2.2-2.1-3-4.4-3-7.1c0-3.4,1.4-5.8,3-7.3
		c1.9-1.8,4.2-2.5,6.9-2.5c1.3,0,2.9,0.2,4.6,1.1v4.3c-1.7-2-3.8-2.1-4.5-2.1c-3.8,0-6.2,3.1-6.2,6.5c0,4.1,3.2,6.4,6.3,6.4
		c1.7,0,3.3-0.8,4.4-2V161z"/>
	<path d="M420.6,146.2h-6.7v4.2h6.4v3.1h-6.4v5.1h6.7v3.1h-10.4V143h10.4V146.2z"/>
	<path d="M432.6,161.7V143h2.5l11.4,12.5V143h3.6v18.7h-2.5l-11.4-12.5v12.5H432.6z"/>
	<path d="M468.6,146.2v15.5H465v-15.5h-4.2V143h12v3.1H468.6z"/>
	<path d="M488.9,143c2.6,0,3.9,0.7,4.8,1.4c1.4,1.2,1.8,2.8,1.8,4.2c0,1.8-0.7,3.4-2.2,4.4c-0.5,0.3-1.1,0.6-2,0.8l5.8,7.9h-4.5
		l-5-7.5h-0.4v7.5h-3.6V143H488.9z M487.2,151.6h1c0.7,0,3.6-0.1,3.6-2.8c0-2.8-2.9-2.8-3.5-2.8h-1.1V151.6z"/>
	<path d="M527,152.4c0,5.7-4.1,9.7-10,9.7c-5.9,0-10-4.1-10-9.7c0-5.7,4.1-9.8,10-9.8C522.9,142.6,527,146.7,527,152.4z
		 M523.3,152.4c0-3.8-2.6-6.5-6.2-6.5c-3.6,0-6.2,2.7-6.2,6.5c0,3.8,2.6,6.4,6.2,6.4C520.7,158.8,523.3,156.2,523.3,152.4z"/>
	<path d="M558.6,143c2.6,0,4.9,0.3,6.9,1.8c2.3,1.7,3.6,4.4,3.6,7.5c0,3.1-1.3,5.8-3.8,7.5c-2.2,1.5-4.2,1.8-6.8,1.8h-4.8V143H558.6
		z M557.3,158.6h1.1c0.9,0,2.9-0.1,4.6-1.2c1.5-1.1,2.3-3,2.3-5c0-2-0.8-3.9-2.3-5c-1.5-1.1-3.4-1.2-4.6-1.2h-1.1V158.6z"/>
	<path d="M591.2,146.2h-6.7v4.2h6.4v3.1h-6.4v5.1h6.7v3.1h-10.4V143h10.4V146.2z"/>
	<path d="M629.1,157.8h-7.5l-1.7,3.9H616l8-18.7h2.9l7.8,18.7h-3.9L629.1,157.8z M628.1,154.8l-2.7-6.7l-2.7,6.7H628.1z"/>
	<path d="M650.7,143c2.6,0,3.9,0.7,4.8,1.4c1.4,1.2,1.8,2.8,1.8,4.2c0,1.8-0.7,3.4-2.2,4.4c-0.5,0.3-1.1,0.6-2,0.8l5.8,7.9h-4.5
		l-5-7.5h-0.4v7.5h-3.6V143H650.7z M648.9,151.6h1c0.7,0,3.6-0.1,3.6-2.8c0-2.8-2.9-2.8-3.5-2.8h-1.1V151.6z"/>
	<path d="M675.6,146.2v15.5H672v-15.5h-4.2V143h12v3.1H675.6z"/>
	<path d="M700.9,146.2h-6.7v4.2h6.4v3.1h-6.4v5.1h6.7v3.1h-10.4V143h10.4V146.2z"/>
	<path d="M722,147.3c-1.1-1.5-2.4-1.6-3.1-1.6c-2,0-2.6,1.2-2.6,2.2c0,0.4,0.1,0.9,0.6,1.3c0.4,0.4,1.1,0.6,2.2,1.1
		c1.5,0.5,2.8,1,3.8,1.9c0.8,0.8,1.6,2,1.6,3.9c0,3.6-2.6,6.1-6.5,6.1c-3.4,0-5.5-2.1-6.4-3.5l2.4-2.3c0.9,1.8,2.6,2.5,3.9,2.5
		c1.7,0,2.9-1,2.9-2.6c0-0.7-0.2-1.2-0.7-1.7c-0.7-0.6-1.8-1-2.9-1.4c-1-0.3-2.2-0.8-3.1-1.6c-0.6-0.5-1.5-1.6-1.5-3.5
		c0-2.7,1.8-5.5,6-5.5c1.2,0,3.4,0.2,5.3,2.2L722,147.3z"/>
	<path d="M756,143c2.6,0,4.9,0.3,6.9,1.8c2.3,1.7,3.6,4.4,3.6,7.5c0,3.1-1.3,5.8-3.8,7.5c-2.2,1.5-4.2,1.8-6.8,1.8h-4.8V143H756z
		 M754.7,158.6h1.1c0.9,0,2.9-0.1,4.6-1.2c1.5-1.1,2.3-3,2.3-5c0-2-0.8-3.9-2.3-5c-1.5-1.1-3.4-1.2-4.6-1.2h-1.1V158.6z"/>
	<path d="M781.9,143v18.7h-3.6V143H781.9z"/>
	<path d="M804,151.7h8.6v0.2c0,1.3-0.2,5.2-2.7,7.7c-1.9,1.9-4.3,2.5-6.6,2.5s-4.7-0.5-6.8-2.5c-0.6-0.6-2.8-3-2.8-7.2
		c0-3.6,1.6-5.8,2.7-6.9c1.4-1.4,3.8-2.9,7.4-2.9c1.4,0,2.9,0.2,4.3,1c1.2,0.6,2.5,1.7,3.5,3.4l-3.2,1.7c-0.6-1.3-1.6-1.9-2.2-2.2
		c-0.8-0.4-1.8-0.6-2.6-0.6c-1.5,0-3.2,0.5-4.3,1.7c-1.1,1-1.9,2.8-1.9,4.9c0,2.5,1.1,4,1.8,4.7c0.8,0.8,2.2,1.6,4.1,1.6
		c1.2,0,2.6-0.3,3.7-1.1c0.7-0.6,1.5-1.5,1.8-2.9H804V151.7z"/>
	<path d="M828,143v18.7h-3.6V143H828z"/>
	<path d="M846.5,146.2v15.5h-3.6v-15.5h-4.2V143h12v3.1H846.5z"/>
	<path d="M871.4,157.8h-7.5l-1.7,3.9h-3.9l8-18.7h2.9l7.8,18.7H873L871.4,157.8z M870.3,154.8l-2.7-6.7l-2.7,6.7H870.3z"/>
	<path d="M891.2,143v15.5h5.8v3.1h-9.4V143H891.2z"/>
	<path d="M918.2,146.2h-6.7v4.2h6.4v3.1h-6.4v5.1h6.7v3.1h-10.4V143h10.4V146.2z"/>
	<path d="M939.3,147.3c-1.1-1.5-2.4-1.6-3.1-1.6c-2,0-2.6,1.2-2.6,2.2c0,0.4,0.1,0.9,0.6,1.3c0.4,0.4,1.1,0.6,2.2,1.1
		c1.5,0.5,2.8,1,3.8,1.9c0.8,0.8,1.6,2,1.6,3.9c0,3.6-2.6,6.1-6.5,6.1c-3.4,0-5.5-2.1-6.4-3.5l2.4-2.3c0.9,1.8,2.6,2.5,3.9,2.5
		c1.7,0,2.9-1,2.9-2.6c0-0.7-0.2-1.2-0.7-1.7c-0.7-0.6-1.8-1-2.9-1.4c-1-0.3-2.2-0.8-3.1-1.6c-0.6-0.5-1.5-1.6-1.5-3.5
		c0-2.7,1.8-5.5,6-5.5c1.2,0,3.4,0.2,5.3,2.2L939.3,147.3z"/>
	<path d="M805.8,176.6c2.1,0,3.6,0.2,4.9,1.4c1.5,1.3,1.9,3.2,1.9,4.5c0,0.7-0.1,2.7-1.5,4.2c-1,1-2.6,1.7-4.7,1.7H804v6.9h-3.6
		v-18.7H805.8z M804,185.2h1.5c0.7,0,1.6,0,2.4-0.6c0.7-0.5,1-1.4,1-2.2c0-1-0.5-1.7-1-2.1c-0.8-0.5-1.7-0.6-2.6-0.6H804V185.2z"/>
	<path d="M844.1,176.6v11.7c0,1.4,0.5,2.3,0.9,2.8c0.5,0.6,1.5,1.3,3,1.3s2.4-0.6,3-1.3c0.4-0.5,0.9-1.3,0.9-2.8v-11.7h3.6V188
		c0,1.8-0.3,3.6-1.4,5c-1.3,1.8-3.7,2.7-6.1,2.7c-2.4,0-4.8-0.9-6.1-2.7c-1.1-1.4-1.4-3.2-1.4-5v-11.4H844.1z"/>
	<path d="M898.5,194.6c-1.1,0.6-2.6,1.1-4.6,1.1c-3.3,0-5.3-1.1-6.8-2.6c-2.2-2.1-3-4.4-3-7.1c0-3.4,1.4-5.8,3-7.3
		c1.9-1.8,4.2-2.5,6.9-2.5c1.3,0,2.9,0.2,4.6,1.1v4.3c-1.7-2-3.8-2.1-4.5-2.1c-3.8,0-6.2,3.1-6.2,6.5c0,4.1,3.2,6.4,6.3,6.4
		c1.7,0,3.3-0.8,4.4-2V194.6z"/>
	<path d="M929,176.6l5,12.5l5-12.5h4l-7.9,18.7h-2.2l-7.8-18.7H929z"/>
</g>
<g>
	<path class="st2" d="M395.5,159c-1.1,0.6-2.6,1.1-4.6,1.1c-3.3,0-5.3-1.1-6.8-2.6c-2.2-2.1-3-4.4-3-7.1c0-3.4,1.4-5.8,3-7.3
		c1.9-1.8,4.2-2.5,6.9-2.5c1.3,0,2.9,0.2,4.6,1.1v4.3c-1.7-2-3.8-2.1-4.5-2.1c-3.8,0-6.2,3.1-6.2,6.5c0,4.1,3.2,6.4,6.3,6.4
		c1.7,0,3.3-0.8,4.4-2V159z"/>
	<path class="st2" d="M417.6,144.2h-6.7v4.2h6.4v3.1h-6.4v5.1h6.7v3.1h-10.4V141h10.4V144.2z"/>
	<path class="st2" d="M429.6,159.7V141h2.5l11.4,12.5V141h3.6v18.7h-2.5l-11.4-12.5v12.5H429.6z"/>
	<path class="st2" d="M465.6,144.2v15.5H462v-15.5h-4.2V141h12v3.1H465.6z"/>
	<path class="st2" d="M485.9,141c2.6,0,3.9,0.7,4.8,1.4c1.4,1.2,1.8,2.8,1.8,4.2c0,1.8-0.7,3.4-2.2,4.4c-0.5,0.3-1.1,0.6-2,0.8
		l5.8,7.9h-4.5l-5-7.5h-0.4v7.5h-3.6V141H485.9z M484.2,149.6h1c0.7,0,3.6-0.1,3.6-2.8c0-2.8-2.9-2.8-3.5-2.8h-1.1V149.6z"/>
	<path class="st2" d="M524,150.4c0,5.7-4.1,9.7-10,9.7s-10-4.1-10-9.7c0-5.7,4.1-9.8,10-9.8S524,144.7,524,150.4z M520.3,150.4
		c0-3.8-2.6-6.5-6.2-6.5s-6.2,2.7-6.2,6.5c0,3.8,2.6,6.4,6.2,6.4S520.3,154.2,520.3,150.4z"/>
	<path class="st2" d="M555.6,141c2.6,0,4.9,0.3,6.9,1.8c2.3,1.7,3.6,4.4,3.6,7.5c0,3.1-1.3,5.8-3.8,7.5c-2.2,1.5-4.2,1.8-6.8,1.8
		h-4.8V141H555.6z M554.3,156.6h1.1c0.9,0,2.9-0.1,4.6-1.2c1.5-1.1,2.3-3,2.3-5c0-2-0.8-3.9-2.3-5c-1.5-1.1-3.4-1.2-4.6-1.2h-1.1
		V156.6z"/>
	<path class="st2" d="M588.2,144.2h-6.7v4.2h6.4v3.1h-6.4v5.1h6.7v3.1h-10.4V141h10.4V144.2z"/>
	<path class="st0" d="M626.1,155.8h-7.5l-1.7,3.9H613l8-18.7h2.9l7.8,18.7h-3.9L626.1,155.8z M625.1,152.8l-2.7-6.7l-2.7,6.7H625.1z
		"/>
	<path class="st0" d="M647.7,141c2.6,0,3.9,0.7,4.8,1.4c1.4,1.2,1.8,2.8,1.8,4.2c0,1.8-0.7,3.4-2.2,4.4c-0.5,0.3-1.1,0.6-2,0.8
		l5.8,7.9h-4.5l-5-7.5h-0.4v7.5h-3.6V141H647.7z M645.9,149.6h1c0.7,0,3.6-0.1,3.6-2.8c0-2.8-2.9-2.8-3.5-2.8h-1.1V149.6z"/>
	<path class="st0" d="M672.6,144.2v15.5H669v-15.5h-4.2V141h12v3.1H672.6z"/>
	<path class="st0" d="M697.9,144.2h-6.7v4.2h6.4v3.1h-6.4v5.1h6.7v3.1h-10.4V141h10.4V144.2z"/>
	<path class="st0" d="M719,145.3c-1.1-1.5-2.4-1.6-3.1-1.6c-2,0-2.6,1.2-2.6,2.2c0,0.4,0.1,0.9,0.6,1.3c0.4,0.4,1.1,0.6,2.2,1.1
		c1.5,0.5,2.8,1,3.8,1.9c0.8,0.8,1.6,2,1.6,3.9c0,3.6-2.6,6.1-6.5,6.1c-3.4,0-5.5-2.1-6.4-3.5l2.4-2.3c0.9,1.8,2.6,2.5,3.9,2.5
		c1.7,0,2.9-1,2.9-2.6c0-0.7-0.2-1.2-0.7-1.7c-0.7-0.6-1.8-1-2.9-1.4c-1-0.3-2.2-0.8-3.1-1.6c-0.6-0.5-1.5-1.6-1.5-3.5
		c0-2.7,1.8-5.5,6-5.5c1.2,0,3.4,0.2,5.3,2.2L719,145.3z"/>
	<path class="st0" d="M753,141c2.6,0,4.9,0.3,6.9,1.8c2.3,1.7,3.6,4.4,3.6,7.5c0,3.1-1.3,5.8-3.8,7.5c-2.2,1.5-4.2,1.8-6.8,1.8h-4.8
		V141H753z M751.7,156.6h1.1c0.9,0,2.9-0.1,4.6-1.2c1.5-1.1,2.3-3,2.3-5c0-2-0.8-3.9-2.3-5c-1.5-1.1-3.4-1.2-4.6-1.2h-1.1V156.6z"/>
	<path class="st0" d="M778.9,141v18.7h-3.6V141H778.9z"/>
	<path class="st0" d="M801,149.7h8.6v0.2c0,1.3-0.2,5.2-2.7,7.7c-1.9,1.9-4.3,2.5-6.6,2.5c-2.3,0-4.7-0.5-6.8-2.5
		c-0.6-0.6-2.8-3-2.8-7.2c0-3.6,1.6-5.8,2.7-6.9c1.4-1.4,3.8-2.9,7.4-2.9c1.4,0,2.9,0.2,4.3,1c1.2,0.6,2.5,1.7,3.5,3.4l-3.2,1.7
		c-0.6-1.3-1.6-1.9-2.2-2.2c-0.8-0.4-1.8-0.6-2.6-0.6c-1.5,0-3.2,0.5-4.3,1.7c-1.1,1-1.9,2.8-1.9,4.9c0,2.5,1.1,4,1.8,4.7
		c0.8,0.8,2.2,1.6,4.1,1.6c1.2,0,2.6-0.3,3.7-1.1c0.7-0.6,1.5-1.5,1.8-2.9H801V149.7z"/>
	<path class="st0" d="M825,141v18.7h-3.6V141H825z"/>
	<path class="st0" d="M843.5,144.2v15.5h-3.6v-15.5h-4.2V141h12v3.1H843.5z"/>
	<path class="st0" d="M868.4,155.8h-7.5l-1.7,3.9h-3.9l8-18.7h2.9l7.8,18.7H870L868.4,155.8z M867.3,152.8l-2.7-6.7l-2.7,6.7H867.3z
		"/>
	<path class="st0" d="M888.2,141v15.5h5.8v3.1h-9.4V141H888.2z"/>
	<path class="st0" d="M915.2,144.2h-6.7v4.2h6.4v3.1h-6.4v5.1h6.7v3.1h-10.4V141h10.4V144.2z"/>
	<path class="st0" d="M936.3,145.3c-1.1-1.5-2.4-1.6-3.1-1.6c-2,0-2.6,1.2-2.6,2.2c0,0.4,0.1,0.9,0.6,1.3c0.4,0.4,1.1,0.6,2.2,1.1
		c1.5,0.5,2.8,1,3.8,1.9c0.8,0.8,1.6,2,1.6,3.9c0,3.6-2.6,6.1-6.5,6.1c-3.4,0-5.5-2.1-6.4-3.5l2.4-2.3c0.9,1.8,2.6,2.5,3.9,2.5
		c1.7,0,2.9-1,2.9-2.6c0-0.7-0.2-1.2-0.7-1.7c-0.7-0.6-1.8-1-2.9-1.4c-1-0.3-2.2-0.8-3.1-1.6c-0.6-0.5-1.5-1.6-1.5-3.5
		c0-2.7,1.8-5.5,6-5.5c1.2,0,3.4,0.2,5.3,2.2L936.3,145.3z"/>
	<path class="st1" d="M802.8,174.6c2.1,0,3.6,0.2,4.9,1.4c1.5,1.3,1.9,3.2,1.9,4.5c0,0.7-0.1,2.7-1.5,4.2c-1,1-2.6,1.7-4.7,1.7H801
		v6.9h-3.6v-18.7H802.8z M801,183.2h1.5c0.7,0,1.6,0,2.4-0.6c0.7-0.5,1-1.4,1-2.2c0-1-0.5-1.7-1-2.1c-0.8-0.5-1.7-0.6-2.6-0.6H801
		V183.2z"/>
	<path class="st1" d="M841.1,174.6v11.7c0,1.4,0.5,2.3,0.9,2.8c0.5,0.6,1.5,1.3,3,1.3s2.4-0.6,3-1.3c0.4-0.5,0.9-1.3,0.9-2.8v-11.7
		h3.6V186c0,1.8-0.3,3.6-1.4,5c-1.3,1.8-3.7,2.7-6.1,2.7s-4.8-0.9-6.1-2.7c-1.1-1.4-1.4-3.2-1.4-5v-11.4H841.1z"/>
	<path class="st1" d="M895.5,192.6c-1.1,0.6-2.6,1.1-4.6,1.1c-3.3,0-5.3-1.1-6.8-2.6c-2.2-2.1-3-4.4-3-7.1c0-3.4,1.4-5.8,3-7.3
		c1.9-1.8,4.2-2.5,6.9-2.5c1.3,0,2.9,0.2,4.6,1.1v4.3c-1.7-2-3.8-2.1-4.5-2.1c-3.8,0-6.2,3.1-6.2,6.5c0,4.1,3.2,6.4,6.3,6.4
		c1.7,0,3.3-0.8,4.4-2V192.6z"/>
	<path class="st1" d="M926,174.6l5,12.5l5-12.5h4l-7.9,18.7h-2.2l-7.8-18.7H926z"/>
</g>
</svg>
