<?xml version="1.0" encoding="utf-8"?>
<!-- Generator: Adobe Illustrator 27.2.0, SVG Export Plug-In . SVG Version: 6.00 Build 0)  -->
<svg version="1.1" id="Capa_1" xmlns="http://www.w3.org/2000/svg" xmlns:xlink="http://www.w3.org/1999/xlink" x="0px" y="0px"
	 viewBox="0 0 1104 312" style="enable-background:new 0 0 1104 312;" xml:space="preserve">
<style type="text/css">
	.st0{fill:#42C6FF;}
	.st1{fill:#FF049B;}
	.st2{fill:#FAFF06;}
	.st3{fill-rule:evenodd;clip-rule:evenodd;fill:#FF049B;}
</style>
<g id="CENTRO_DE_ARTES_DIGITALES">
	<path class="st0" d="M424.7,155.1c-1.8,1.7-3.4,2.1-4.6,2.1c-2.5,0-3.9-1.3-4.3-1.7c-0.9-0.9-1.7-2.3-1.7-4.4
		c0-1.9,0.8-3.5,1.9-4.6c1-1,2.4-1.6,4.1-1.6c2.1,0,3.7,1.1,4.7,2.1v-5.3c-1.9-0.8-3.5-1.1-4.8-1.1c-3.1,0-5.7,1.2-7.5,2.9
		c-1.8,1.7-3.1,4.4-3.1,7.5c0,3.2,1.3,5.9,3.1,7.6c1.7,1.7,4.2,2.9,7.9,2.9c1.2,0,2.6-0.2,4.4-1.1V155.1z M447.3,141h-11.3v20h11.3
		v-3.9h-6.7v-4.4h6.4v-3.9h-6.4v-3.9h6.7V141z M463.1,161v-13l10.9,13h4v-20h-4.6v12.9L462.5,141h-4v20H463.1z M501.2,144.9V141
		h-13.3v3.9h4.4V161h4.6v-16.1H501.2z M511.2,141v20h4.6v-7.9l5.4,7.9h5.6l-6.1-8.2c1.1-0.3,2.1-0.9,2.8-1.5
		c1.3-1.3,1.6-2.8,1.6-4.1c0-2.2-0.9-3.7-1.7-4.5c-1-0.9-2.6-1.7-5.1-1.7H511.2z M515.8,144.6h1.1c0.6,0,1.8,0.1,2.6,0.6
		c0.4,0.3,0.9,0.9,0.9,2c0,1-0.4,1.6-0.8,2c-0.8,0.8-1.9,0.9-2.8,0.9h-1V144.6z M546.9,140.5c-4,0-6.5,1.6-7.8,2.9
		c-1.8,1.8-3.1,4.7-3.1,7.6c0,2.9,1.2,5.6,3.1,7.4c1.5,1.4,4,2.9,7.8,2.9c3.4,0,5.9-1.1,7.7-2.9c2.2-2.1,3.1-4.8,3.1-7.5
		c0-3.1-1.2-5.7-3.1-7.6C552.6,141.5,550,140.5,546.9,140.5z M546.9,144.8c1.8,0,3.4,0.8,4.4,1.7c0.9,0.9,1.7,2.4,1.7,4.5
		c0,2.3-1,3.7-1.7,4.5c-1,1-2.4,1.7-4.4,1.7c-1.6,0-3-0.4-4.3-1.7c-1.2-1.2-1.8-2.7-1.8-4.5c0-2.2,0.9-3.7,1.8-4.5
		C543.6,145.4,545.1,144.8,546.9,144.8z"/>
	<path d="M783.5,141v20h6.5c1.7,0,5.1-0.2,7.9-3c1.7-1.6,2.7-3.9,2.7-7.1c0-3.1-1.1-5.5-2.9-7.2c-2.5-2.4-5.2-2.8-7.9-2.8H783.5z
		 M788.1,144.9h1.2c1.4,0,3.4,0.2,4.9,1.7c0.8,0.8,1.7,2.2,1.7,4.3c0,2.2-0.9,3.9-2,4.8c-1.5,1.3-3.6,1.4-4.6,1.4h-1.2V144.9z
		 M811.6,141v20h4.6v-20H811.6z M837.9,153.8h4.8c-0.4,1.5-1.3,2.2-1.4,2.4c-0.4,0.4-1.5,1.1-3.5,1.1c-1.5,0-2.9-0.4-4-1.6
		c-0.8-0.8-1.7-2.3-1.7-4.6c0-1.9,0.6-3.6,1.7-4.7c1-1,2.3-1.6,4.1-1.6c1.1,0,2.2,0.3,3.1,1c0.8,0.6,1.4,1.4,1.8,2.2l4.2-2.2
		c-0.7-1.3-1.9-2.7-3.2-3.6c-1.9-1.2-4-1.5-5.6-1.5c-2.4,0-5.4,0.4-7.9,2.9c-1.7,1.7-2.9,4.3-2.9,7.6c0,4,1.8,6.4,2.9,7.6
		c2.3,2.4,4.9,2.8,7.3,2.8c2.4,0,4.9-0.4,7.1-2.7c2.2-2.3,3.1-6,3.1-8.4v-0.2h-9.9V153.8z M858.8,141v20h4.6v-20H858.8z
		 M886.8,144.9V141h-13.3v3.9h4.3V161h4.6v-16.1H886.8z M908.7,161h4.8l-7.9-20h-4.2l-8.1,20h4.8l1.5-3.8h7.6L908.7,161z M901,153.7
		l2.5-6.7l2.5,6.7H901z M923.2,141v20h10.8v-3.9h-6.2V141H923.2z M955.5,141h-11.3v20h11.3v-3.9h-6.7v-4.4h6.4v-3.9h-6.4v-3.9h6.7
		V141z M979.1,142.5c-2.3-1.7-4.6-2-5.9-2c-1.9,0-3.5,0.4-4.9,1.8c-1.2,1.2-1.7,2.7-1.7,4.5c0,1,0.2,2.4,1.2,3.5
		c0.8,0.8,1.9,1.3,2.8,1.6l1.6,0.6c0.6,0.2,1.8,0.7,2.3,1.1c0.4,0.4,0.7,0.8,0.7,1.4c0,0.8-0.3,1.3-0.7,1.6
		c-0.7,0.6-1.5,0.7-2.1,0.7c-0.9,0-1.7-0.2-2.5-0.7c-0.5-0.3-1.3-1-1.9-1.5l-2.4,3.3c0.8,0.8,1.9,1.7,2.9,2.2c1.3,0.6,2.5,0.8,4,0.8
		c1.3,0,3.9-0.2,5.7-2c1.1-1.1,1.8-2.9,1.8-4.9c0-1.2-0.3-2.6-1.5-3.7c-0.8-0.8-1.9-1.2-2.7-1.5l-1.5-0.6c-1.3-0.5-2-0.7-2.5-1.1
		c-0.3-0.3-0.4-0.6-0.4-1.1c0-0.5,0.2-1,0.5-1.3c0.5-0.6,1.3-0.7,2-0.7c0.6,0,1.9,0.1,3.4,1.4L979.1,142.5z"/>
	<path class="st1" d="M583.2,141v20h6.5c1.7,0,5.1-0.2,7.9-3c1.7-1.6,2.7-3.9,2.7-7.1c0-3.1-1.1-5.5-2.9-7.2
		c-2.5-2.4-5.2-2.8-7.9-2.8H583.2z M587.8,144.9h1.2c1.4,0,3.4,0.2,4.9,1.7c0.8,0.8,1.7,2.2,1.7,4.3c0,2.2-0.9,3.9-1.9,4.8
		c-1.5,1.3-3.6,1.4-4.6,1.4h-1.2V144.9z M622.5,141h-11.3v20h11.3v-3.9h-6.7v-4.4h6.4v-3.9h-6.4v-3.9h6.7V141z M661.5,161h4.8
		l-7.9-20h-4.2l-8.1,20h4.8l1.5-3.8h7.6L661.5,161z M653.8,153.7l2.5-6.7l2.5,6.7H653.8z M676.1,141v20h4.6v-7.9l5.4,7.9h5.6
		l-6.2-8.2c1.1-0.3,2.1-0.9,2.8-1.5c1.3-1.3,1.6-2.8,1.6-4.1c0-2.2-0.9-3.7-1.7-4.5c-1-0.9-2.6-1.7-5.1-1.7H676.1z M680.7,144.6h1.1
		c0.6,0,1.8,0.1,2.6,0.6c0.4,0.3,0.9,0.9,0.9,2c0,1-0.4,1.6-0.8,2c-0.8,0.8-1.9,0.9-2.8,0.9h-1.1V144.6z M712.5,144.9V141h-13.3v3.9
		h4.3V161h4.6v-16.1H712.5z M733.8,141h-11.3v20h11.3v-3.9h-6.7v-4.4h6.4v-3.9h-6.4v-3.9h6.7V141z M757.4,142.5
		c-2.3-1.7-4.6-2-5.9-2c-1.9,0-3.5,0.4-5,1.8c-1.2,1.2-1.7,2.7-1.7,4.5c0,1,0.2,2.4,1.2,3.5c0.8,0.8,1.9,1.3,2.8,1.6l1.7,0.6
		c0.6,0.2,1.8,0.7,2.3,1.1c0.4,0.4,0.7,0.8,0.7,1.4c0,0.8-0.3,1.3-0.7,1.6c-0.7,0.6-1.5,0.7-2.1,0.7c-0.9,0-1.7-0.2-2.5-0.7
		c-0.5-0.3-1.3-1-1.9-1.5l-2.4,3.3c0.8,0.8,1.9,1.7,2.9,2.2c1.3,0.6,2.5,0.8,4,0.8c1.3,0,3.9-0.2,5.7-2c1.1-1.1,1.8-2.9,1.8-4.9
		c0-1.2-0.3-2.6-1.5-3.7c-0.8-0.8-1.9-1.2-2.7-1.5l-1.5-0.6c-1.3-0.5-2-0.7-2.5-1.1c-0.3-0.3-0.5-0.6-0.5-1.1c0-0.5,0.2-1,0.5-1.3
		c0.5-0.6,1.3-0.7,2-0.7c0.6,0,1.9,0.1,3.4,1.4L757.4,142.5z"/>
</g>
<g id="Union">
	<path class="st2" d="M264,94.5L317,64l17.1,9.8l-52.6,30.8L264,94.5z"/>
	<path class="st2" d="M194,96.6l0.1-0.1l52.3,30.1l17.5-9.8l-59.5-34.2l-9.7-5.6l0,0l-0.1-0.1l0,0.2L177.7,87l-53.5,29.9l17.4,10
		L194,96.6z"/>
	<path class="st2" d="M229.1,197l-17.4,10.4l17.4,10.3l17.4-10.3L229.1,197z"/>
	<path class="st2" d="M159,197.3l35.2-19.9l17.1,9.8L159,217.5V197.3z"/>
	<path class="st2" d="M282,205.4l35.1-20.9l-17.8-10l-34.7,20.6L282,205.4z"/>
	<path class="st2" d="M211.6,146.5l-17.5,10.4l34.4,20l17.4-10L211.6,146.5z"/>
</g>
<g id="Union_2">
	<path class="st0" d="M334.1,73.8l-52.6,30.8v20.2l35.3-20.6v80.6L282,205.4v20.2l52.1-31V73.8z"/>
	<path class="st0" d="M229,177.3l-17.5,10v20.2l17.5-10.1V177.3z"/>
	<path class="st0" d="M246.5,126.8l17.3-10.3v120.8l-17.3,10.3V126.8z"/>
	<path class="st0" d="M141.6,126.9L194,96.6v20.2l-35,20.2v80.5l17.5-10l17.5-10.1v20.2l-17.5,10.1l-17.5,10l-17.4,10.1V126.9z"/>
</g>
<g id="Union_3">
	<path class="st1" d="M281.5,104.6l-17.5-10v20.2l17.5,10V104.6z"/>
	<path class="st1" d="M316.8,104l-17.5,10.5v60.2l17.5,10.1V104z"/>
	<path class="st1" d="M141.6,126.9l-17.4-10l-0.1,121l17.5,10.1V126.9z"/>
	<path class="st1" d="M264.5,195.3l17.5,10v20.2l-17.5-10V195.3z"/>
	<path class="st3" d="M246.1,126l-52-29.5v20.2l34.9,19.7v40.6l-26.9-15.3l-8.1-5.1v60.9l17.4,10.1v-0.2l17.5,10.1v0.1l17.5,10v-0.1
		l0.1,0.1l-0.1-0.2v-39.9l0.1,0.1V187l-0.1-0.1v-60.4l-0.4-0.2V126z M211.5,207.3l17.5,10v-20l-17.5-10.1V207.3z"/>
</g>
<path id="DIGITALES" class="st2" d="M780.3,138v20h6.5c1.7,0,5.1-0.2,7.9-3c1.7-1.6,2.7-3.9,2.7-7.1c0-3.1-1.1-5.5-2.9-7.2
	c-2.5-2.4-5.2-2.8-7.9-2.8H780.3z M784.9,141.9h1.2c1.4,0,3.4,0.2,4.9,1.7c0.8,0.8,1.6,2.2,1.6,4.3c0,2.2-0.9,3.9-1.9,4.8
	c-1.5,1.3-3.6,1.4-4.6,1.4h-1.2V141.9z M808.4,138v20h4.6v-20H808.4z M834.6,150.8h4.8c-0.4,1.5-1.3,2.2-1.4,2.4
	c-0.5,0.4-1.5,1.1-3.5,1.1c-1.5,0-2.9-0.4-4.1-1.6c-0.8-0.8-1.7-2.3-1.7-4.6c0-1.9,0.6-3.6,1.7-4.7c1-1,2.3-1.6,4.1-1.6
	c1.1,0,2.2,0.3,3.1,1c0.8,0.6,1.4,1.4,1.8,2.2l4.2-2.2c-0.7-1.3-1.9-2.7-3.2-3.6c-1.9-1.2-4-1.5-5.6-1.5c-2.4,0-5.4,0.4-7.9,2.9
	c-1.7,1.7-2.9,4.3-2.9,7.6c0,4,1.8,6.4,2.9,7.6c2.3,2.4,4.9,2.8,7.3,2.8c2.4,0,4.9-0.4,7.1-2.7s3.1-6,3.1-8.4v-0.2h-9.9V150.8z
	 M855.6,138v20h4.6v-20H855.6z M883.5,141.9V138h-13.3v3.9h4.3V158h4.6v-16.1H883.5z M905.5,158h4.8l-7.9-20h-4.2l-8.1,20h4.8
	l1.5-3.8h7.6L905.5,158z M897.7,150.7l2.5-6.7l2.5,6.7H897.7z M920,138v20h10.8v-3.9h-6.2V138H920z M952.3,138h-11.3v20h11.3v-3.9
	h-6.7v-4.4h6.4v-3.9h-6.4v-3.9h6.7V138z M975.9,139.5c-2.3-1.7-4.6-2-5.9-2c-1.9,0-3.5,0.4-4.9,1.8c-1.2,1.2-1.7,2.7-1.7,4.5
	c0,1,0.2,2.4,1.2,3.5c0.8,0.8,1.9,1.3,2.8,1.6l1.7,0.6c0.6,0.2,1.8,0.7,2.3,1.1c0.4,0.4,0.7,0.8,0.7,1.4c0,0.8-0.3,1.3-0.7,1.6
	c-0.7,0.6-1.5,0.7-2.1,0.7c-0.9,0-1.7-0.2-2.5-0.7c-0.5-0.3-1.3-1-1.9-1.5l-2.4,3.3c0.8,0.8,1.9,1.7,2.9,2.2c1.3,0.6,2.5,0.8,4,0.8
	c1.3,0,3.9-0.2,5.7-2c1-1.1,1.8-2.9,1.8-4.9c0-1.2-0.3-2.6-1.5-3.7c-0.8-0.8-1.9-1.2-2.7-1.5l-1.5-0.6c-1.3-0.5-2-0.7-2.5-1.1
	c-0.3-0.3-0.4-0.6-0.4-1.1c0-0.5,0.2-1,0.5-1.3c0.5-0.6,1.3-0.7,1.9-0.7c0.6,0,1.9,0.1,3.4,1.4L975.9,139.5z"/>
</svg>
