<?xml version="1.0" encoding="utf-8"?>
<!-- Generator: Adobe Illustrator 27.2.0, SVG Export Plug-In . SVG Version: 6.00 Build 0)  -->
<svg version="1.1" id="Capa_1" xmlns="http://www.w3.org/2000/svg" xmlns:xlink="http://www.w3.org/1999/xlink" x="0px" y="0px"
	 viewBox="0 0 505.2 138.2" style="enable-background:new 0 0 505.2 138.2;" xml:space="preserve">
<style type="text/css">
	.st0{fill:#FFFFFF;}
</style>
<g>
	<path class="st0" d="M28.8,34.5C28.8,34.5,28.8,34.5,28.8,34.5C28.8,34.5,28.8,34.5,28.8,34.5L28.8,34.5z"/>
	<path class="st0" d="M116.5,46.7L116.5,46.7C116.6,46.7,116.6,46.7,116.5,46.7z"/>
	<polygon class="st0" points="116.5,46.7 116.5,46.7 116.5,46.7 	"/>
	<path class="st0" d="M50.5,76.4c-3.4-1.5-8.7-4.9-10.9-6.2c-4.1-2.3-5.7-7.7-5.7-13.2c0-9.9,7.3-19,11.9-22.7
		c6.5-5.2,12.5-8.9,12.5-8.9l12.6,5.5c0,0-7.4,5.3-13.6,10.1c-8.5,6.6-11.7,15.8-11.7,23C45.6,75.4,50.5,76.4,50.5,76.4z"/>
	<path class="st0" d="M134.5,25.1L134.5,25.1C134.5,25.1,134.5,25.1,134.5,25.1c-1.8-0.6-4.5,0.2-8.3,2.8c-5,3.4-13,9.3-13,9.3
		l13,5.7c0,0,5.8-4.1,11.2-8c0,0,0-0.1,0-0.1l0.1,0c0.6-0.4,1.2-0.9,1.7-1.3c3.3-2.4,6.7-4,9.3-2.9l0,0L134.5,25.1z"/>
	<polygon class="st0" points="113.2,37.2 113.1,70.3 126.1,75.9 126.2,42.9 	"/>
	<g>
		<path class="st0" d="M139.1,36.6c-0.8,0.6-0.8,0.6-1.7,1.3c0,0.1-0.1,0.1-0.1,0.1c0.4,9.6-0.4,14.1-9,20.9v15.5
			c3-2.1,8.2-5.9,10.8-7.7c6.5-4.7,13.5-13.7,13-24.3C151.5,30.5,145,32.3,139.1,36.6z"/>
	</g>
	<polygon class="st0" points="99.4,77.3 111.3,68.3 100.2,23.9 87.4,33 	"/>
	<polygon class="st0" points="92.1,60.2 89.8,51.7 82.1,48.4 75.5,53.2 	"/>
	<path class="st0" d="M94.5,69L66.3,55.7L48.9,67.8c0,9.8,13,6.2,17,3.1c4.1-3,6.4-4.4,6.4-4.4l24.3,10.4L94.5,69z"/>
	<g>
		<path class="st0" d="M44.5,97.9c1.1,0,2.1,0.2,2.8,0.5c0.7,0.3,1.4,0.7,1.9,1.2v2.3c-0.3-0.2-0.7-0.5-1.2-0.8
			c-0.4-0.3-0.9-0.6-1.5-0.8c-0.6-0.2-1.2-0.3-2-0.3c-1.2,0-2.2,0.3-3.1,0.8c-0.9,0.5-1.6,1.3-2.2,2.2c-0.5,0.9-0.8,2-0.8,3.2
			s0.3,2.2,0.8,3.2c0.5,0.9,1.2,1.7,2.2,2.2c0.9,0.5,2,0.8,3.1,0.8c1.2,0,2.2-0.2,3-0.6s1.5-0.8,2.1-1.2v2.1
			c-0.5,0.5-1.2,0.9-2.1,1.3c-0.9,0.4-1.9,0.5-3,0.5c-1.2,0-2.3-0.2-3.3-0.6c-1-0.4-1.9-1-2.6-1.8c-0.7-0.8-1.3-1.6-1.7-2.6
			c-0.4-1-0.6-2.1-0.6-3.2s0.2-2.2,0.6-3.2c0.4-1,1-1.9,1.7-2.6c0.7-0.8,1.6-1.3,2.6-1.8C42.2,98.1,43.3,97.9,44.5,97.9z"/>
		<path class="st0" d="M66.8,104.9v2h-7.6v5.1h8.6v2H57.1V98.2h10.7v2h-8.6v4.7H66.8z"/>
		<path class="st0" d="M89,98.2V114h-0.8l-10.1-11.3V114h-2.1V98.2h0.8l10.1,11.4V98.2H89z"/>
		<path class="st0" d="M108.9,98.2v2h-5.4v13.7h-2.1v-13.7h-5.4v-2H108.9z"/>
		<path class="st0" d="M122,98.2c0.9,0,1.8,0.2,2.6,0.5s1.5,0.9,2,1.6c0.5,0.7,0.8,1.6,0.8,2.7c0,1-0.3,1.8-0.8,2.5
			s-1.2,1.2-2.1,1.5c-0.8,0.3-1.7,0.5-2.6,0.5c-0.3,0-0.6,0-1.1,0l7.2,6.6h-3.2l-6.7-6.6v6.6H116V98.2H122z M118.1,100.2v5.1
			c0.5,0.1,1.1,0.3,1.7,0.3s1.2,0.1,1.8,0.1c1.2,0,2.1-0.3,2.7-0.8c0.6-0.5,1-1.2,1-2c0-0.9-0.4-1.6-1.1-2c-0.7-0.5-1.6-0.7-2.6-0.7
			H118.1z"/>
		<path class="st0" d="M140.3,97.9c1.2,0,2.3,0.2,3.2,0.6c1,0.4,1.9,1,2.6,1.8c0.7,0.8,1.3,1.6,1.7,2.6c0.4,1,0.6,2.1,0.6,3.2
			s-0.2,2.2-0.6,3.2c-0.4,1-1,1.9-1.7,2.6c-0.7,0.8-1.6,1.3-2.6,1.8c-1,0.4-2.1,0.6-3.2,0.6c-1.2,0-2.3-0.2-3.3-0.6
			c-1-0.4-1.9-1-2.6-1.8c-0.7-0.8-1.3-1.6-1.7-2.6c-0.4-1-0.6-2.1-0.6-3.2s0.2-2.2,0.6-3.2c0.4-1,1-1.9,1.7-2.6
			c0.7-0.8,1.6-1.3,2.6-1.8C138,98.1,139.1,97.9,140.3,97.9z M140.3,99.9c-1.2,0-2.2,0.3-3.1,0.8c-0.9,0.5-1.6,1.3-2.2,2.2
			c-0.5,0.9-0.8,2-0.8,3.2s0.3,2.2,0.8,3.2c0.5,0.9,1.2,1.7,2.2,2.2c0.9,0.5,2,0.8,3.1,0.8c1.2,0,2.2-0.3,3.1-0.8
			c0.9-0.5,1.6-1.3,2.2-2.2c0.5-0.9,0.8-2,0.8-3.2s-0.3-2.2-0.8-3.2c-0.5-0.9-1.2-1.7-2.2-2.2C142.5,100.2,141.4,99.9,140.3,99.9z"
			/>
		<path class="st0" d="M172.5,97.8c1.7,0,3.2,0.4,4.4,1.1c1.2,0.7,2.1,1.7,2.8,2.9c0.6,1.2,1,2.6,1,4.2c0,1.6-0.3,2.9-1,4.2
			c-0.6,1.2-1.6,2.2-2.8,2.9c-1.2,0.7-2.7,1.1-4.4,1.1c-1.1,0-2.1-0.1-2.9-0.2c-0.9-0.1-1.8-0.2-2.8-0.4V98.4
			c0.9-0.2,1.9-0.3,2.8-0.4C170.5,97.9,171.5,97.8,172.5,97.8z M172.5,99.8c-0.6,0-1.2,0-1.8,0.1s-1.2,0.1-1.8,0.2V112
			c0.6,0.1,1.2,0.1,1.8,0.2c0.6,0,1.2,0.1,1.8,0.1c1.2,0,2.3-0.3,3.2-0.8c0.9-0.5,1.6-1.3,2.1-2.2c0.5-0.9,0.7-2,0.7-3.2
			c0-1.2-0.2-2.2-0.7-3.2c-0.5-0.9-1.2-1.7-2.1-2.2C174.9,100.1,173.8,99.8,172.5,99.8z"/>
		<path class="st0" d="M197.9,104.9v2h-7.6v5.1h8.6v2h-10.7V98.2h10.7v2h-8.6v4.7H197.9z"/>
		<path class="st0" d="M224,98.2l7.3,15.8h-2.5l-1.6-3.8h-7.3l-1.7,3.8h-2.5l7.3-15.8H224z M223.5,101.8l-2.8,6.4h5.6L223.5,101.8z"
			/>
		<path class="st0" d="M243.8,98.2c0.9,0,1.8,0.2,2.6,0.5s1.5,0.9,2,1.6c0.5,0.7,0.8,1.6,0.8,2.7c0,1-0.3,1.8-0.8,2.5
			s-1.2,1.2-2.1,1.5c-0.8,0.3-1.7,0.5-2.6,0.5c-0.3,0-0.6,0-1.1,0l7.2,6.6h-3.2l-6.7-6.6v6.6h-2.1V98.2H243.8z M240,100.2v5.1
			c0.5,0.1,1.1,0.3,1.7,0.3s1.2,0.1,1.8,0.1c1.2,0,2.1-0.3,2.7-0.8c0.6-0.5,1-1.2,1-2c0-0.9-0.4-1.6-1.1-2c-0.7-0.5-1.6-0.7-2.6-0.7
			H240z"/>
		<path class="st0" d="M267.4,98.2v2h-5.4v13.7H260v-13.7h-5.4v-2H267.4z"/>
		<path class="st0" d="M284.2,104.9v2h-7.6v5.1h8.6v2h-10.7V98.2h10.7v2h-8.6v4.7H284.2z"/>
		<path class="st0" d="M297.2,98c0.9,0,1.7,0.1,2.3,0.4c0.6,0.3,1.1,0.5,1.6,0.8v2.2c-0.4-0.3-1-0.6-1.6-0.9c-0.6-0.3-1.3-0.4-2-0.4
			c-0.5,0-0.9,0.1-1.4,0.2c-0.5,0.2-0.9,0.4-1.3,0.8c-0.3,0.4-0.5,0.8-0.5,1.4c0,0.6,0.2,1.1,0.7,1.4c0.4,0.3,1,0.6,1.6,0.9l2.1,1
			c1.1,0.5,1.9,1,2.4,1.6c0.5,0.6,0.8,1.4,0.8,2.4c0,0.9-0.3,1.6-0.7,2.3c-0.5,0.7-1.1,1.2-2,1.5c-0.8,0.4-1.7,0.6-2.6,0.6
			c-0.9,0-1.7-0.2-2.5-0.5c-0.8-0.3-1.4-0.7-2-1.1v-2.2c0.6,0.4,1.3,0.8,2.1,1.1s1.7,0.5,2.7,0.5c0.8,0,1.5-0.2,2-0.6
			c0.6-0.4,0.9-0.9,0.9-1.6c0-0.4-0.1-0.7-0.4-1c-0.2-0.3-0.5-0.5-0.9-0.7c-0.3-0.2-0.7-0.4-1-0.5l-2.6-1.2
			c-1.1-0.5-1.9-1.1-2.3-1.8c-0.4-0.7-0.6-1.5-0.6-2.3c0-0.8,0.2-1.6,0.7-2.3c0.5-0.7,1.1-1.2,1.9-1.6C295.4,98.2,296.3,98,297.2,98
			z"/>
		<path class="st0" d="M325.9,97.8c1.7,0,3.2,0.4,4.4,1.1c1.2,0.7,2.1,1.7,2.8,2.9c0.6,1.2,1,2.6,1,4.2c0,1.6-0.3,2.9-1,4.2
			c-0.6,1.2-1.6,2.2-2.8,2.9c-1.2,0.7-2.7,1.1-4.4,1.1c-1.1,0-2.1-0.1-2.9-0.2c-0.9-0.1-1.8-0.2-2.8-0.4V98.4
			c0.9-0.2,1.9-0.3,2.8-0.4C323.9,97.9,324.9,97.8,325.9,97.8z M325.9,99.8c-0.6,0-1.2,0-1.8,0.1s-1.2,0.1-1.8,0.2V112
			c0.6,0.1,1.2,0.1,1.8,0.2c0.6,0,1.2,0.1,1.8,0.1c1.2,0,2.3-0.3,3.2-0.8c0.9-0.5,1.6-1.3,2.1-2.2c0.5-0.9,0.7-2,0.7-3.2
			c0-1.2-0.2-2.2-0.7-3.2c-0.5-0.9-1.2-1.7-2.1-2.2C328.3,100.1,327.2,99.8,325.9,99.8z"/>
		<path class="st0" d="M349,112v2h-7.3v-2h2.6v-11.8h-2.6v-2h7.3v2h-2.6V112H349z"/>
		<path class="st0" d="M363.9,105.4h6.8v6.5c-0.4,0.4-0.9,0.8-1.4,1.2c-0.6,0.4-1.3,0.7-2,0.9c-0.8,0.2-1.6,0.4-2.5,0.4
			c-1.2,0-2.3-0.2-3.3-0.6c-1-0.4-1.9-1-2.6-1.8c-0.7-0.8-1.3-1.6-1.7-2.6c-0.4-1-0.6-2.1-0.6-3.2s0.2-2.2,0.6-3.2
			c0.4-1,1-1.9,1.7-2.6c0.7-0.8,1.6-1.3,2.6-1.8c1-0.4,2.1-0.6,3.3-0.6c1.1,0,2.1,0.2,2.8,0.5c0.7,0.3,1.4,0.7,1.9,1.2v2.3
			c-0.3-0.2-0.7-0.5-1.2-0.8c-0.4-0.3-0.9-0.6-1.5-0.8c-0.6-0.2-1.2-0.3-2-0.3c-1.2,0-2.2,0.3-3.1,0.8c-0.9,0.5-1.6,1.3-2.2,2.2
			c-0.5,0.9-0.8,2-0.8,3.2s0.3,2.2,0.8,3.2c0.5,0.9,1.2,1.7,2.2,2.2c0.9,0.5,2,0.8,3.1,0.8c0.8,0,1.4-0.1,1.9-0.2s0.9-0.4,1.1-0.6
			c0.3-0.2,0.5-0.4,0.7-0.5l0-3.7h-4.6V105.4z"/>
		<path class="st0" d="M385.4,112v2h-7.3v-2h2.6v-11.8h-2.6v-2h7.3v2h-2.6V112H385.4z"/>
		<path class="st0" d="M405.3,98.2v2H400v13.7h-2.1v-13.7h-5.4v-2H405.3z"/>
		<path class="st0" d="M416.5,98.2l7.3,15.8h-2.5l-1.6-3.8h-7.3l-1.7,3.8h-2.5l7.3-15.8H416.5z M416,101.8l-2.8,6.4h5.6L416,101.8z"
			/>
		<path class="st0" d="M432.5,98.2V112h8.6v2h-10.7V98.2H432.5z"/>
		<path class="st0" d="M458.7,104.9v2h-7.6v5.1h8.6v2H449V98.2h10.7v2h-8.6v4.7H458.7z"/>
		<path class="st0" d="M471.7,98c0.9,0,1.7,0.1,2.3,0.4c0.6,0.3,1.1,0.5,1.6,0.8v2.2c-0.4-0.3-1-0.6-1.6-0.9c-0.6-0.3-1.3-0.4-2-0.4
			c-0.5,0-0.9,0.1-1.4,0.2c-0.5,0.2-0.9,0.4-1.3,0.8c-0.3,0.4-0.5,0.8-0.5,1.4c0,0.6,0.2,1.1,0.7,1.4c0.4,0.3,1,0.6,1.6,0.9l2.1,1
			c1.1,0.5,1.9,1,2.4,1.6c0.5,0.6,0.8,1.4,0.8,2.4c0,0.9-0.3,1.6-0.7,2.3c-0.5,0.7-1.1,1.2-2,1.5c-0.8,0.4-1.7,0.6-2.6,0.6
			c-0.9,0-1.7-0.2-2.5-0.5c-0.8-0.3-1.4-0.7-2-1.1v-2.2c0.6,0.4,1.3,0.8,2.1,1.1s1.7,0.5,2.7,0.5c0.8,0,1.5-0.2,2-0.6
			c0.6-0.4,0.9-0.9,0.9-1.6c0-0.4-0.1-0.7-0.4-1c-0.2-0.3-0.5-0.5-0.9-0.7c-0.3-0.2-0.7-0.4-1-0.5l-2.6-1.2
			c-1.1-0.5-1.9-1.1-2.3-1.8c-0.4-0.7-0.6-1.5-0.6-2.3c0-0.8,0.2-1.6,0.7-2.3c0.5-0.7,1.1-1.2,1.9-1.6C470,98.2,470.8,98,471.7,98z"
			/>
	</g>
</g>
</svg>
