<svg width="299" height="84" viewBox="0 0 299 84" fill="none" xmlns="http://www.w3.org/2000/svg">
<g filter="url(#filter0_d_1284_411)">
<path d="M188.977 53.9284C199.801 58.805 212.211 59.2274 223.466 55.6563C230.866 53.2811 237.72 49.5016 243.982 44.8992C239.847 44.4823 235.701 44.1806 231.55 44.016L231.025 43.9996C224.303 43.7472 217.571 43.846 210.865 44.3561L213.775 52.2498H202.88L205.609 44.8443C203.684 45.0528 201.759 45.2996 199.839 45.5794C194.32 46.3529 188.856 47.5432 183.409 48.8927L182.55 50.7852C184.656 51.9152 186.789 52.9794 188.977 53.9339V53.9284Z" fill="white"/>
</g>
<g filter="url(#filter1_d_1284_411)">
<path d="M101.67 40.7247C117.471 43.7088 137.576 48.1137 153.53 49.8033C154.646 47.5597 153.88 36.9232 152.053 35.2776C145.14 32.6994 137.871 31.1086 130.504 30.6203C122.371 29.9346 114.287 31.0098 106.297 32.5622C105.296 33.8184 104.382 35.1569 103.573 36.5996C102.687 38.1739 102.244 39.0352 101.67 40.7247V40.7247ZM122.109 38.7938C123.815 37.5431 125.85 36.9177 128.196 36.9177C130.542 36.9177 132.807 37.5431 134.765 38.7938C136.723 40.0445 137.702 41.9535 137.702 44.5262L118.931 43.5827C119.713 41.01 120.397 40.0445 122.103 38.7938H122.109Z" fill="white"/>
</g>
<g filter="url(#filter2_d_1284_411)">
<path d="M208.333 37.4608L210.17 42.4472C216.881 42.0357 223.62 42.0522 230.336 42.4636L213.359 5.10706H203.317L184.629 46.2212C191.783 44.5042 199.068 43.3578 206.397 42.7269L208.338 37.4608H208.333Z" fill="white"/>
</g>
<g filter="url(#filter3_d_1284_411)">
<path d="M64.2211 36.3966C59.1893 36.0674 54.152 35.9413 49.1147 35.9742V43.8843C46.8887 41.3061 43.6563 39.1997 39.4176 37.5705L36.2891 36.3911C34.2162 36.5118 32.1434 36.6434 30.0705 36.808C21.1445 37.4992 12.0818 38.8267 3.11755 40.3297C3.87232 41.542 4.79117 42.694 5.8741 43.7801C8.07825 45.9963 11.1794 47.7462 15.1665 49.0298L25.3122 52.2443C25.7661 52.3814 26.1982 52.5241 26.6084 52.6667C38.7613 47.9217 54.2614 43.3029 67.541 39.9073L67.53 36.6599C66.4252 36.5611 65.3204 36.4679 64.2156 36.3911L64.2211 36.3966Z" fill="white"/>
</g>
<g filter="url(#filter4_d_1284_411)">
<path d="M275.245 51.6025C279.943 50.3189 283.81 47.9217 286.834 44.422C289.859 40.9222 291.374 36.4954 291.374 31.136C291.374 26.9231 290.537 23.2423 288.863 20.0991C287.19 16.9558 284.964 14.3502 282.185 12.2767C279.407 10.2031 276.289 8.67267 272.838 7.66882C269.382 6.67045 265.843 6.17126 262.211 6.17126H231.556V42.5349C236.117 42.8476 240.662 43.3413 245.174 44.0106C248.035 41.8328 250.775 39.4905 253.378 37.0384C254.839 35.7383 256.25 34.2573 257.623 32.8639C257.644 32.842 257.666 32.82 257.688 32.7981C256.567 31.7174 255.867 30.2034 255.867 28.5194C255.867 25.239 258.519 22.5785 261.79 22.5785C265.061 22.5785 267.713 25.239 267.713 28.5194C267.713 31.7997 265.061 34.4602 261.79 34.4602C260.56 34.4602 259.416 34.0817 258.47 33.4399C258.432 33.4838 258.394 33.5277 258.355 33.5661C257.026 35.0252 255.55 36.4844 254.144 37.8448C251.841 40.0884 249.429 42.2442 246.908 44.2739C247.98 44.4439 249.052 44.6249 250.124 44.8114C250.523 44.1806 251.218 43.7637 252.016 43.7637C253.258 43.7637 254.259 44.773 254.259 46.0128C254.259 47.2525 253.253 48.2619 252.016 48.2619C250.78 48.2619 249.774 47.2525 249.774 46.0128C249.774 45.8592 249.79 45.7056 249.818 45.5575C248.505 45.3929 247.192 45.2393 245.88 45.0967C239.267 50.2805 231.938 54.5428 223.904 57.0661C212.314 60.7634 199.516 60.2862 188.485 55.0365C186.308 54.0272 184.191 52.9081 182.113 51.7287L171.491 75.0916V51.4599C169.686 51.7287 167.871 51.9043 166.044 51.9427C148.755 52.3047 131.702 48.6623 114.862 45.2064C104.191 42.9902 93.5476 41.5311 82.8058 39.7154L82.7566 51.1692C82.7566 54.8829 82.1714 57.5982 80.9955 59.3097C79.8196 61.0212 77.878 61.8825 75.1761 61.8825C72.4743 61.8825 70.5272 61.0267 69.3567 59.3097C68.1863 57.5928 67.5956 54.8829 67.5956 51.1692L67.5573 41.6847C62.6458 42.9683 57.7508 44.3068 52.8831 45.7385C44.7392 48.1247 36.661 50.7303 28.6539 53.5389C29.1133 53.7748 29.5344 54.0217 29.9118 54.2795C31.0494 55.0639 31.6183 55.991 31.6183 57.0661C31.6183 58.5637 30.8525 59.6224 29.3211 60.2258C27.7897 60.8347 25.777 61.1364 23.283 61.1364C19.2958 61.1364 15.3251 60.3136 11.3707 58.6734C7.41641 57.0332 3.73554 54.9213 0.3172 52.3541V71.7455C3.45113 73.9616 7.1156 75.8157 11.3215 77.3188C15.522 78.8163 19.7607 79.5679 24.0323 79.5679C29.5891 79.5679 34.61 78.5475 39.0949 76.5124C43.5797 74.4773 47.1403 71.6906 49.7765 68.1579C50.2633 67.5106 50.6844 66.8359 51.0782 66.1502C51.4829 67.0553 51.9423 67.922 52.4729 68.7504C54.7153 72.2501 57.7945 74.9271 61.7106 76.7867C65.6266 78.6408 70.1115 79.5733 75.1706 79.5733C80.2298 79.5733 84.7147 78.6463 88.6307 76.7867C92.5468 74.9326 95.626 72.2501 97.8684 68.7504C99.5038 66.1996 100.532 63.2703 100.975 59.9625C101.32 61.0925 101.73 62.1842 102.227 63.2319C103.863 66.6988 106.111 69.6445 108.955 72.0691C111.804 74.4992 115.026 76.3533 118.625 77.6424C122.218 78.926 125.943 79.5733 129.788 79.5733C133.846 79.5733 137.494 79.0028 140.737 77.8619C143.975 76.7209 146.524 75.5744 148.372 74.4334V58.6844C146.879 59.5401 144.615 60.5604 141.59 61.7398C138.56 62.9192 134.983 63.5062 130.854 63.5062C127.791 63.5062 125.084 62.8644 122.738 61.5753C120.883 60.5604 119.516 59.1232 118.636 57.2581C118.291 56.5286 118.827 55.6783 119.636 55.6783H153.114V77.9606H193.478L197.006 68.317H219.654L223.182 77.9606H251.53L250.583 53.5993C250.583 53.5993 250.441 52.5022 251.431 52.2005C252.421 51.7342 253.056 52.8587 253.056 52.8587L270.645 77.9606H295L275.239 51.6025H275.245ZM263.912 42.5459C262.616 42.5459 261.566 41.4927 261.566 40.1926C261.566 38.8925 262.616 37.8393 263.912 37.8393C265.208 37.8393 266.259 38.8925 266.259 40.1926C266.259 41.4927 265.208 42.5459 263.912 42.5459Z" fill="white"/>
</g>
<g filter="url(#filter5_d_1284_411)">
<path d="M151.681 34.0653C149.444 30.0169 146.354 26.8573 142.405 24.5917C138.418 22.3043 133.862 21.1633 128.732 21.1633C123.246 21.1633 118.318 22.5182 113.937 25.2335C111.531 26.7256 109.42 28.492 107.571 30.5216C112.537 29.6988 117.536 29.1063 122.573 29.0241C132.5 28.8759 142.372 30.6862 151.687 34.0653H151.681Z" fill="white"/>
</g>
<g filter="url(#filter6_d_1284_411)">
<path d="M171.497 43.5881V0H153.125V34.334C157.08 35.848 160.93 37.6308 164.633 39.6824C166.946 40.9276 169.227 42.2497 171.502 43.5881H171.497Z" fill="white"/>
</g>
<g filter="url(#filter7_d_1284_411)">
<path d="M101.243 32.2276V23.3136H82.8715L82.8223 36.254C88.1439 35.0143 93.482 33.8239 98.842 32.7049C99.6405 32.5403 100.444 32.3812 101.248 32.2221L101.243 32.2276Z" fill="white"/>
</g>
<g filter="url(#filter8_d_1284_411)">
<path d="M31.8808 34.729L31.7277 34.6742C28.7359 33.5332 26.2091 32.5129 24.1417 31.6187C22.0743 30.7246 21.046 29.3861 21.046 27.6033C21.046 25.9631 21.8993 24.7838 23.6112 24.0651C25.3176 23.352 27.3522 22.9955 29.6985 22.9955C33.7568 22.9955 37.2845 23.6592 40.2763 24.9757C43.1914 26.2648 46.1339 27.7734 49.1147 29.5013V34.2134C55.2677 34.3231 61.4207 34.762 67.5355 35.5738L67.4862 23.3191H49.3499V10.2471C46.8559 8.53557 43.5633 7.1587 39.4668 6.12193C35.3703 5.08516 31.2245 4.56952 27.024 4.56952C22.3915 4.56952 18.016 5.46366 13.8867 7.24646C9.75731 9.03475 6.41007 11.6568 3.84495 15.1237C1.27983 18.5851 0 22.8528 0 27.9215C0 30.7795 0.426609 33.5826 1.27983 36.3308C1.5697 37.2579 1.93615 38.152 2.37916 39.0133C3.04096 38.8871 3.69728 38.7554 4.35907 38.6293C13.4272 36.7752 22.6321 35.4257 31.8753 34.7236L31.8808 34.729Z" fill="white"/>
</g>
<defs>
<filter id="filter0_d_1284_411" x="182.55" y="43.8662" width="65.4317" height="18.1455" filterUnits="userSpaceOnUse" color-interpolation-filters="sRGB">
<feFlood flood-opacity="0" result="BackgroundImageFix"/>
<feColorMatrix in="SourceAlpha" type="matrix" values="0 0 0 0 0 0 0 0 0 0 0 0 0 0 0 0 0 0 127 0" result="hardAlpha"/>
<feOffset dx="2" dy="2"/>
<feGaussianBlur stdDeviation="1"/>
<feComposite in2="hardAlpha" operator="out"/>
<feColorMatrix type="matrix" values="0 0 0 0 0.00392157 0 0 0 0 0.196078 0 0 0 0 0.462745 0 0 0 0.4 0"/>
<feBlend mode="normal" in2="BackgroundImageFix" result="effect1_dropShadow_1284_411"/>
<feBlend mode="normal" in="SourceGraphic" in2="effect1_dropShadow_1284_411" result="shape"/>
</filter>
<filter id="filter1_d_1284_411" x="101.67" y="30.4094" width="56.3804" height="23.3939" filterUnits="userSpaceOnUse" color-interpolation-filters="sRGB">
<feFlood flood-opacity="0" result="BackgroundImageFix"/>
<feColorMatrix in="SourceAlpha" type="matrix" values="0 0 0 0 0 0 0 0 0 0 0 0 0 0 0 0 0 0 127 0" result="hardAlpha"/>
<feOffset dx="2" dy="2"/>
<feGaussianBlur stdDeviation="1"/>
<feComposite in2="hardAlpha" operator="out"/>
<feColorMatrix type="matrix" values="0 0 0 0 0.00392157 0 0 0 0 0.196078 0 0 0 0 0.462745 0 0 0 0.4 0"/>
<feBlend mode="normal" in2="BackgroundImageFix" result="effect1_dropShadow_1284_411"/>
<feBlend mode="normal" in="SourceGraphic" in2="effect1_dropShadow_1284_411" result="shape"/>
</filter>
<filter id="filter2_d_1284_411" x="184.629" y="5.10706" width="49.7073" height="45.1141" filterUnits="userSpaceOnUse" color-interpolation-filters="sRGB">
<feFlood flood-opacity="0" result="BackgroundImageFix"/>
<feColorMatrix in="SourceAlpha" type="matrix" values="0 0 0 0 0 0 0 0 0 0 0 0 0 0 0 0 0 0 127 0" result="hardAlpha"/>
<feOffset dx="2" dy="2"/>
<feGaussianBlur stdDeviation="1"/>
<feComposite in2="hardAlpha" operator="out"/>
<feColorMatrix type="matrix" values="0 0 0 0 0.00392157 0 0 0 0 0.196078 0 0 0 0 0.462745 0 0 0 0.4 0"/>
<feBlend mode="normal" in2="BackgroundImageFix" result="effect1_dropShadow_1284_411"/>
<feBlend mode="normal" in="SourceGraphic" in2="effect1_dropShadow_1284_411" result="shape"/>
</filter>
<filter id="filter3_d_1284_411" x="3.11755" y="35.9691" width="68.4234" height="20.6976" filterUnits="userSpaceOnUse" color-interpolation-filters="sRGB">
<feFlood flood-opacity="0" result="BackgroundImageFix"/>
<feColorMatrix in="SourceAlpha" type="matrix" values="0 0 0 0 0 0 0 0 0 0 0 0 0 0 0 0 0 0 127 0" result="hardAlpha"/>
<feOffset dx="2" dy="2"/>
<feGaussianBlur stdDeviation="1"/>
<feComposite in2="hardAlpha" operator="out"/>
<feColorMatrix type="matrix" values="0 0 0 0 0.00392157 0 0 0 0 0.196078 0 0 0 0 0.462745 0 0 0 0.4 0"/>
<feBlend mode="normal" in2="BackgroundImageFix" result="effect1_dropShadow_1284_411"/>
<feBlend mode="normal" in="SourceGraphic" in2="effect1_dropShadow_1284_411" result="shape"/>
</filter>
<filter id="filter4_d_1284_411" x="0.3172" y="6.17126" width="298.683" height="77.4021" filterUnits="userSpaceOnUse" color-interpolation-filters="sRGB">
<feFlood flood-opacity="0" result="BackgroundImageFix"/>
<feColorMatrix in="SourceAlpha" type="matrix" values="0 0 0 0 0 0 0 0 0 0 0 0 0 0 0 0 0 0 127 0" result="hardAlpha"/>
<feOffset dx="2" dy="2"/>
<feGaussianBlur stdDeviation="1"/>
<feComposite in2="hardAlpha" operator="out"/>
<feColorMatrix type="matrix" values="0 0 0 0 0.00392157 0 0 0 0 0.196078 0 0 0 0 0.462745 0 0 0 0.4 0"/>
<feBlend mode="normal" in2="BackgroundImageFix" result="effect1_dropShadow_1284_411"/>
<feBlend mode="normal" in="SourceGraphic" in2="effect1_dropShadow_1284_411" result="shape"/>
</filter>
<filter id="filter5_d_1284_411" x="107.571" y="21.1633" width="48.1157" height="16.902" filterUnits="userSpaceOnUse" color-interpolation-filters="sRGB">
<feFlood flood-opacity="0" result="BackgroundImageFix"/>
<feColorMatrix in="SourceAlpha" type="matrix" values="0 0 0 0 0 0 0 0 0 0 0 0 0 0 0 0 0 0 127 0" result="hardAlpha"/>
<feOffset dx="2" dy="2"/>
<feGaussianBlur stdDeviation="1"/>
<feComposite in2="hardAlpha" operator="out"/>
<feColorMatrix type="matrix" values="0 0 0 0 0.00392157 0 0 0 0 0.196078 0 0 0 0 0.462745 0 0 0 0.4 0"/>
<feBlend mode="normal" in2="BackgroundImageFix" result="effect1_dropShadow_1284_411"/>
<feBlend mode="normal" in="SourceGraphic" in2="effect1_dropShadow_1284_411" result="shape"/>
</filter>
<filter id="filter6_d_1284_411" x="153.125" y="0" width="22.377" height="47.5881" filterUnits="userSpaceOnUse" color-interpolation-filters="sRGB">
<feFlood flood-opacity="0" result="BackgroundImageFix"/>
<feColorMatrix in="SourceAlpha" type="matrix" values="0 0 0 0 0 0 0 0 0 0 0 0 0 0 0 0 0 0 127 0" result="hardAlpha"/>
<feOffset dx="2" dy="2"/>
<feGaussianBlur stdDeviation="1"/>
<feComposite in2="hardAlpha" operator="out"/>
<feColorMatrix type="matrix" values="0 0 0 0 0.00392157 0 0 0 0 0.196078 0 0 0 0 0.462745 0 0 0 0.4 0"/>
<feBlend mode="normal" in2="BackgroundImageFix" result="effect1_dropShadow_1284_411"/>
<feBlend mode="normal" in="SourceGraphic" in2="effect1_dropShadow_1284_411" result="shape"/>
</filter>
<filter id="filter7_d_1284_411" x="82.8223" y="23.3136" width="22.4262" height="16.9404" filterUnits="userSpaceOnUse" color-interpolation-filters="sRGB">
<feFlood flood-opacity="0" result="BackgroundImageFix"/>
<feColorMatrix in="SourceAlpha" type="matrix" values="0 0 0 0 0 0 0 0 0 0 0 0 0 0 0 0 0 0 127 0" result="hardAlpha"/>
<feOffset dx="2" dy="2"/>
<feGaussianBlur stdDeviation="1"/>
<feComposite in2="hardAlpha" operator="out"/>
<feColorMatrix type="matrix" values="0 0 0 0 0.00392157 0 0 0 0 0.196078 0 0 0 0 0.462745 0 0 0 0.4 0"/>
<feBlend mode="normal" in2="BackgroundImageFix" result="effect1_dropShadow_1284_411"/>
<feBlend mode="normal" in="SourceGraphic" in2="effect1_dropShadow_1284_411" result="shape"/>
</filter>
<filter id="filter8_d_1284_411" x="0" y="4.56952" width="71.5355" height="38.4437" filterUnits="userSpaceOnUse" color-interpolation-filters="sRGB">
<feFlood flood-opacity="0" result="BackgroundImageFix"/>
<feColorMatrix in="SourceAlpha" type="matrix" values="0 0 0 0 0 0 0 0 0 0 0 0 0 0 0 0 0 0 127 0" result="hardAlpha"/>
<feOffset dx="2" dy="2"/>
<feGaussianBlur stdDeviation="1"/>
<feComposite in2="hardAlpha" operator="out"/>
<feColorMatrix type="matrix" values="0 0 0 0 0.00392157 0 0 0 0 0.196078 0 0 0 0 0.462745 0 0 0 0.4 0"/>
<feBlend mode="normal" in2="BackgroundImageFix" result="effect1_dropShadow_1284_411"/>
<feBlend mode="normal" in="SourceGraphic" in2="effect1_dropShadow_1284_411" result="shape"/>
</filter>
</defs>
</svg>
